STARTFONT 2.1
COMMENT
COMMENT Converted from OpenType font "Q:\font stuff\winfont\TeutonWeiss-Bold.otf" by "otf2bdf 3.0".
COMMENT
FONT -FreeType-Teuton Weiss-Bold-R-Normal--179-1800-72-72-P-618-ISO10646-1
SIZE 180 72 72
FONTBOUNDINGBOX 157 191 -8 -39
STARTPROPERTIES 19
FOUNDRY "FreeType"
FAMILY_NAME "Teuton Weiss"
WEIGHT_NAME "Bold"
SLANT "R"
SETWIDTH_NAME "Normal"
ADD_STYLE_NAME ""
PIXEL_SIZE 179
POINT_SIZE 1800
RESOLUTION_X 72
RESOLUTION_Y 72
SPACING "P"
AVERAGE_WIDTH 618
CHARSET_REGISTRY "ISO10646"
CHARSET_ENCODING "1"
FONT_ASCENT 151
FONT_DESCENT 39
COPYRIGHT "Copyright Copr. 2001, Frantisek Storm, www.stormtype.com. All rights reserved."
_OTF_FONTFILE "Q:\font stuff\winfont\TeutonWeiss-Bold.otf"
_OTF_PSNAME "TeutonWeiss-Bold"
ENDPROPERTIES
CHARS 356
STARTCHAR 0020
ENCODING 32
SWIDTH 261 0
DWIDTH 47 0
BBX 0 0 0 0
BITMAP
ENDCHAR
STARTCHAR 0021
ENCODING 33
SWIDTH 200 0
DWIDTH 36 0
BBX 14 126 11 0
BITMAP
FFFC
FFFC
FFFC
FFFC
FFFC
FFFC
FFFC
FFFC
FFFC
FFFC
FFFC
FFFC
FFFC
FFFC
FFFC
FFFC
FFFC
FFFC
FFFC
FFFC
FFFC
FFFC
FFFC
FFFC
FFFC
FFFC
FFFC
FFFC
FFFC
FFFC
FFFC
FFFC
FFFC
FFFC
FFFC
FFFC
FFFC
FFFC
FFFC
FFFC
FFFC
FFFC
FFFC
FFFC
FFFC
FFFC
FFFC
FFFC
FFFC
FFFC
FFFC
FFFC
FFFC
FFFC
FFFC
FFFC
FFFC
FFFC
FFFC
FFFC
FFFC
FFFC
FFFC
FFFC
FFFC
FFFC
FFFC
FFFC
FFFC
FFFC
FFFC
FFFC
FFFC
FFFC
FFFC
FFFC
FFFC
FFFC
FFFC
FFFC
FFFC
FFFC
FFFC
FFFC
FFFC
FFFC
FFFC
FFFC
FFFC
FFFC
FFFC
FFFC
FFFC
FFFC
FFFC
FFFC
FFFC
FFFC
FFFC
0000
0000
0000
0000
0000
0000
0000
0000
0000
0000
0000
0000
0000
FFFC
FFFC
FFFC
FFFC
FFFC
FFFC
FFFC
FFFC
FFFC
FFFC
FFFC
FFFC
FFFC
FFFC
ENDCHAR
STARTCHAR 0022
ENCODING 34
SWIDTH 300 0
DWIDTH 54 0
BBX 30 30 12 95
BITMAP
FFC00FFC
FFC00FFC
FFC00FFC
FFC00FFC
FFC00FFC
FFC00FFC
FFC00FFC
FFC00FFC
FFC00FFC
FFC00FFC
FFC00FFC
FFC00FFC
FFC00FFC
FFC00FFC
FFC00FFC
FFC00FFC
FFC00FFC
FFC00FFC
FFC00FFC
FFC00FFC
FFC007FC
FFC007FC
FFC007FC
FFC007FC
FFC007FC
FF8007FC
FF8007FC
FF8007FC
FF8007FC
FF8007FC
ENDCHAR
STARTCHAR 0023
ENCODING 35
SWIDTH 500 0
DWIDTH 90 0
BBX 82 126 4 0
BITMAP
0000001FFE0000003FFC00
0000001FFE0000003FFC00
0000001FFE0000007FFC00
0000001FFE0000007FF800
0000001FFE0000007FF800
0000003FFE0000007FF800
0000003FFC0000007FF800
0000003FFC0000007FF800
0000003FFC000000FFF800
0000003FFC000000FFF000
0000003FFC000000FFF000
0000007FFC000000FFF000
0000007FF8000000FFF000
0000007FF8000001FFF000
0000007FF8000001FFE000
0000007FF8000001FFE000
000000FFF8000001FFE000
000000FFF0000001FFE000
000000FFF0000001FFE000
000000FFF0000003FFE000
000000FFF0000003FFC000
000000FFF0000003FFC000
000001FFF0000003FFC000
000001FFE0000003FFC000
000001FFE0000007FFC000
000001FFE0000007FFC000
000001FFE0000007FF8000
000003FFE0000007FF8000
000003FFE0000007FF8000
000003FFC0000007FF8000
000003FFC000000FFF8000
000003FFC000000FFF0000
000003FFC000000FFF0000
000007FFC000000FFF0000
000007FF8000000FFF0000
000007FF8000000FFF0000
00FFFFFFFFFFFFFFFFFFC0
00FFFFFFFFFFFFFFFFFFC0
00FFFFFFFFFFFFFFFFFFC0
00FFFFFFFFFFFFFFFFFFC0
00FFFFFFFFFFFFFFFFFFC0
00FFFFFFFFFFFFFFFFFFC0
00FFFFFFFFFFFFFFFFFFC0
00FFFFFFFFFFFFFFFFFFC0
00FFFFFFFFFFFFFFFFFFC0
00FFFFFFFFFFFFFFFFFFC0
00001FFE0000003FFC0000
00001FFE0000007FF80000
00001FFE0000007FF80000
00001FFE0000007FF80000
00003FFE0000007FF80000
00003FFC0000007FF80000
00003FFC0000007FF80000
00003FFC000000FFF00000
00003FFC000000FFF00000
00003FFC000000FFF00000
00007FFC000000FFF00000
00007FF8000000FFF00000
00007FF8000000FFF00000
00007FF8000001FFE00000
00007FF8000001FFE00000
00007FF8000001FFE00000
0000FFF8000001FFE00000
0000FFF0000001FFE00000
0000FFF0000003FFE00000
0000FFF0000003FFC00000
0000FFF0000003FFC00000
0000FFF0000003FFC00000
0001FFE0000003FFC00000
0001FFE0000003FFC00000
0001FFE0000007FFC00000
0001FFE0000007FF800000
0001FFE0000007FF800000
0003FFE0000007FF800000
0003FFC0000007FF800000
0003FFC0000007FF800000
0003FFC000000FFF800000
0003FFC000000FFF000000
0003FFC000000FFF000000
0007FFC000000FFF000000
0007FF8000000FFF000000
0007FF8000000FFF000000
0007FF8000001FFE000000
FFFFFFFFFFFFFFFFFFC000
FFFFFFFFFFFFFFFFFFC000
FFFFFFFFFFFFFFFFFFC000
FFFFFFFFFFFFFFFFFFC000
FFFFFFFFFFFFFFFFFFC000
FFFFFFFFFFFFFFFFFFC000
FFFFFFFFFFFFFFFFFFC000
FFFFFFFFFFFFFFFFFFC000
FFFFFFFFFFFFFFFFFFC000
FFFFFFFFFFFFFFFFFFC000
001FFE0000007FF8000000
001FFE0000007FF8000000
003FFE0000007FF8000000
003FFC0000007FF8000000
003FFC0000007FF8000000
003FFC000000FFF0000000
003FFC000000FFF0000000
003FFC000000FFF0000000
007FF8000000FFF0000000
007FF8000000FFF0000000
007FF8000000FFF0000000
007FF8000001FFE0000000
007FF8000001FFE0000000
007FF8000001FFE0000000
00FFF0000001FFE0000000
00FFF0000001FFE0000000
00FFF0000001FFE0000000
00FFF0000003FFC0000000
00FFF0000003FFC0000000
00FFF0000003FFC0000000
01FFE0000003FFC0000000
01FFE0000003FFC0000000
01FFE0000007FFC0000000
01FFE0000007FF80000000
01FFE0000007FF80000000
01FFE0000007FF80000000
03FFC0000007FF80000000
03FFC0000007FF80000000
03FFC000000FFF80000000
03FFC000000FFF00000000
03FFC000000FFF00000000
07FFC000000FFF00000000
07FF8000000FFF00000000
ENDCHAR
STARTCHAR 0024
ENCODING 36
SWIDTH 411 0
DWIDTH 74 0
BBX 53 126 10 0
BITMAP
000003FF800000
000003FF800000
000003FF800000
000003FF800000
000003FF800000
000003FF800000
000003FF800000
000003FF800000
000003FF800000
000003FF800000
000003FF800000
000003FF800000
000003FF800000
000003FF800000
000003FF800000
000003FF800000
000003FF800000
000003FF800000
007FFFFFFFFFF8
01FFFFFFFFFFF8
07FFFFFFFFFFF8
0FFFFFFFFFFFF8
1FFFFFFFFFFFF8
3FFFFFFFFFFFF8
3FFFFFFFFFFFF8
7FFFFFFFFFFFF8
7FFFFFFFFFFFF8
7FFFFFFFFFFFF8
FFFFFFFFFFFFF8
FFFE0000000038
FFFC0000000000
FFF80000000000
FFF00000000000
FFF00000000000
FFF00000000000
FFF00000000000
FFF00000000000
FFF00000000000
FFF00000000000
FFF00000000000
FFF00000000000
FFF00000000000
FFF80000000000
FFFC0000000000
7FFE0000000000
7FFF0000000000
7FFF8000000000
3FFFE000000000
3FFFF000000000
1FFFFC00000000
1FFFFE00000000
0FFFFF80000000
07FFFFC0000000
01FFFFF0000000
007FFFF8000000
003FFFFE000000
000FFFFF000000
0007FFFFC00000
0003FFFFE00000
0000FFFFF80000
00007FFFFC0000
00001FFFFF0000
00000FFFFF8000
000003FFFFE000
000001FFFFF000
0000007FFFFC00
0000003FFFFE00
0000000FFFFF00
00000007FFFF80
00000001FFFFC0
00000000FFFFE0
000000003FFFE0
000000001FFFF0
0000000007FFF0
0000000003FFF0
0000000001FFF8
0000000000FFF8
0000000000FFF8
00000000007FF8
00000000007FF8
00000000007FF8
00000000007FF8
00000000007FF8
00000000007FF8
00000000007FF8
00000000007FF8
00000000007FF8
00000000007FF8
00000000007FF8
00000000007FF8
00000000007FF8
00000000007FF8
00000000007FF8
00000000007FF8
0000000000FFF8
0000000001FFF8
C000000003FFF8
FFFFFFFFFFFFF8
FFFFFFFFFFFFF8
FFFFFFFFFFFFF0
FFFFFFFFFFFFF0
FFFFFFFFFFFFF0
FFFFFFFFFFFFE0
FFFFFFFFFFFFC0
FFFFFFFFFFFF80
FFFFFFFFFFFF00
FFFFFFFFFFFE00
FFFFFFFFFFF000
000003FF800000
000003FF800000
000003FF800000
000003FF800000
000003FF800000
000003FF800000
000003FF800000
000003FF800000
000003FF800000
000003FF800000
000003FF800000
000003FF800000
000003FF800000
000003FF800000
000003FF800000
000003FF800000
000003FF800000
000003FF800000
ENDCHAR
STARTCHAR 0025
ENCODING 37
SWIDTH 600 0
DWIDTH 108 0
BBX 90 126 9 0
BITMAP
000FFFF00000000001FFE000
007FFFFE0000000003FFC000
01FFFFFF8000000003FFC000
03FFFFFFE000000007FF8000
0FFFFFFFF000000007FF8000
1FFFFFFFF80000000FFF0000
1FFFFFFFF80000000FFF0000
3FFFFFFFFC0000001FFE0000
3FFFFFFFFC0000001FFE0000
7FFE00FFFE0000003FFC0000
7FF8001FFE0000003FFC0000
7FF0000FFE0000007FF80000
FFE00007FF0000007FF80000
FFE00007FF000000FFF00000
FFC00003FF000000FFF00000
FFC00003FF000001FFE00000
FFC00003FF000001FFE00000
FFC00003FF000003FFC00000
FFC00003FF000003FFC00000
FFC00003FF000007FF800000
FFC00003FF000007FF800000
FFC00003FF00000FFF000000
FFC00003FF00000FFF000000
FFC00003FF00001FFE000000
FFC00003FF00001FFE000000
FFC00003FF00003FFC000000
FFC00003FF00003FFC000000
FFC00003FF00007FF8000000
FFC00003FF00007FF8000000
FFC00003FF0000FFF0000000
FFC00003FF0000FFF0000000
FFC00003FF0001FFE0000000
FFC00003FF0001FFE0000000
FFC00003FF0003FFC0000000
FFC00003FF0003FFC0000000
FFC00003FF0007FF80000000
FFC00003FF0007FF80000000
FFC00003FF000FFF00000000
FFC00003FF000FFF00000000
FFC00003FF001FFE00000000
FFC00003FF001FFE00000000
FFC00003FF003FFC00000000
FFC00003FF003FFC00000000
FFC00003FF007FF800000000
FFC00003FF00FFF800000000
FFC00003FF00FFF000000000
FFC00003FF01FFF000000000
FFE00007FF01FFE000000000
FFE00007FF03FFC000000000
7FF0000FFE03FFC000000000
7FF8001FFE07FF8000000000
7FFE007FFE07FF8000000000
3FFFFFFFFC0FFF0000000000
3FFFFFFFFC0FFF0000000000
1FFFFFFFF81FFE0000000000
1FFFFFFFF01FFE0000000000
0FFFFFFFF03FFC0000000000
07FFFFFFC03FFC0000000000
01FFFFFF807FF80000000000
00FFFFFE007FF80000000000
001FFFF000FFF00000000000
0000000000FFF00000000000
0000000001FFE00000000000
0000000001FFE00000000000
0000000003FFC00000000000
0000000003FFC001FFFE0000
0000000007FF800FFFFFC000
0000000007FF803FFFFFE000
000000000FFF00FFFFFFF800
000000000FFF01FFFFFFFC00
000000001FFE03FFFFFFFE00
000000001FFE03FFFFFFFE00
000000003FFC07FFFFFFFF00
000000003FFC07FFFFFFFF00
000000007FF80FFF801FFF80
000000007FF80FFF0007FF80
00000000FFF00FFE0003FF80
00000000FFF01FFC0001FFC0
00000001FFE01FFC0001FFC0
00000001FFE01FF80000FFC0
00000003FFC01FF80000FFC0
00000003FFC01FF80000FFC0
00000007FF801FF80000FFC0
00000007FF801FF80000FFC0
0000000FFF001FF80000FFC0
0000000FFF001FF80000FFC0
0000001FFE001FF80000FFC0
0000003FFE001FF80000FFC0
0000003FFC001FF80000FFC0
0000007FFC001FF80000FFC0
0000007FF8001FF80000FFC0
000000FFF8001FF80000FFC0
000000FFF0001FF80000FFC0
000001FFF0001FF80000FFC0
000001FFE0001FF80000FFC0
000003FFE0001FF80000FFC0
000003FFC0001FF80000FFC0
000007FFC0001FF80000FFC0
000007FF80001FF80000FFC0
00000FFF80001FF80000FFC0
00000FFF00001FF80000FFC0
00001FFF00001FF80000FFC0
00001FFE00001FF80000FFC0
00003FFC00001FF80000FFC0
00003FFC00001FF80000FFC0
00007FF800001FF80000FFC0
00007FF800001FF80000FFC0
0000FFF000001FF80000FFC0
0000FFF000001FF80000FFC0
0001FFE000001FF80000FFC0
0001FFE000001FF80000FFC0
0003FFC000001FFC0000FFC0
0003FFC000001FFC0001FFC0
0007FF8000001FFC0001FFC0
0007FF8000000FFE0003FF80
000FFF0000000FFF0007FF80
000FFF0000000FFFE03FFF80
001FFE00000007FFFFFFFF00
001FFE00000007FFFFFFFF00
003FFC00000003FFFFFFFE00
003FFC00000003FFFFFFFE00
007FF800000001FFFFFFFC00
007FF800000000FFFFFFF800
00FFF0000000007FFFFFE000
00FFF0000000001FFFFF8000
01FFE00000000003FFFC0000
ENDCHAR
STARTCHAR 0026
ENCODING 38
SWIDTH 644 0
DWIDTH 116 0
BBX 94 126 13 0
BITMAP
0007FFFFFFFFFFFFC0000000
007FFFFFFFFFFFFFC0000000
01FFFFFFFFFFFFFFC0000000
07FFFFFFFFFFFFFFC0000000
0FFFFFFFFFFFFFFFC0000000
1FFFFFFFFFFFFFFFC0000000
1FFFFFFFFFFFFFFFC0000000
3FFFFFFFFFFFFFFFC0000000
3FFFFFFFFFFFFFFFC0000000
7FFFFFFFFFFFFFFFC0000000
7FFFFFFFFFFFFFFFC0000000
7FFFFFFFFFFFFFFFC0000000
FFFF80000000000040000000
FFFE00000000000000000000
FFFC00000000000000000000
FFFC00000000000000000000
FFF800000000000000000000
FFF800000000000000000000
FFF800000000000000000000
FFF800000000000000000000
FFF800000000000000000000
FFF800000000000000000000
FFF800000000000000000000
FFF800000000000000000000
FFF800000000000000000000
FFF800000000000000000000
FFF800000000000000000000
FFF800000000000000000000
FFF800000000000000000000
FFF800000000000000000000
FFF800000000000000000000
FFF800000000000000000000
FFF800000000000000000000
FFF800000000000000000000
FFF800000000000000000000
7FF800000000000000000000
7FF800000000000000200000
7FF800000000000000600000
3FF800000000000000E00000
3FF800000000000001E00000
1FF800000000000007E00000
0FFC0000000000000FE00000
07FC0000000000001FE00000
03FE0000000000003FE00000
00FF0000000000007FE00000
000FC00000000000FFE00000
000FFFFFFFFFFFFFFFFFFFFC
007FFFFFFFFFFFFFFFFFFFFC
01FFFFFFFFFFFFFFFFFFFFFC
03FFFFFFFFFFFFFFFFFFFFFC
07FFFFFFFFFFFFFFFFFFFFFC
0FFFFFFFFFFFFFFFFFFFFFFC
1FFFFFFFFFFFFFFFFFFFFFFC
3FFFFFFFFFFFFFFFFFFFFFFC
3FFFFFFFFFFFFFFFFFFFFFFC
7FFFFFFFFFFFFFFFFFFFFFFC
7FFFFFFFFFFFFFFFFFFFFFFC
7FFF800000000001FFE00000
7FFF000000000001FFE00000
FFFE000000000001FFE00000
FFFC000000000001FFE00000
FFFC000000000001FFE00000
FFF8000000000001FFE00000
FFF8000000000001FFE00000
FFF8000000000001FFE00000
FFF8000000000001FFE00000
FFF8000000000001FFE00000
FFF8000000000001FFE00000
FFF8000000000001FFE00000
FFF8000000000001FFE00000
FFF8000000000001FFE00000
FFF8000000000001FFE00000
FFF8000000000001FFE00000
FFF8000000000001FFE00000
FFF8000000000001FFE00000
FFF8000000000001FFE00000
FFF8000000000001FFE00000
FFF8000000000001FFE00000
FFF8000000000001FFE00000
FFF8000000000001FFE00000
FFF8000000000001FFE00000
FFF8000000000001FFE00000
FFF8000000000001FFE00000
FFF8000000000001FFE00000
FFF8000000000001FFE00000
FFF8000000000001FFE00000
FFF8000000000001FFE00000
FFF8000000000001FFE00000
FFF8000000000001FFE00000
FFF8000000000001FFE00000
FFF8000000000001FFE00000
FFF8000000000001FFE00000
FFF8000000000001FFE00000
FFF8000000000001FFE00000
FFF8000000000001FFE00000
FFF8000000000001FFE00000
FFF8000000000001FFE00000
FFF8000000000001FFE00000
FFF8000000000001FFE00000
FFF8000000000001FFE00000
FFF8000000000001FFE00000
FFF8000000000001FFE00000
FFF8000000000001FFE00000
FFF8000000000001FFE00000
FFF8000000000001FFE00000
FFF8000000000001FFE00000
FFF8000000000001FFE00000
FFF8000000000001FFE00000
FFF8000000000001FFE00000
FFF8000000000001FFE00000
FFFC000000000001FFE00000
FFFC000000000001FFE00000
7FFE000000000001FFF00000
7FFF000000000001FFF80004
7FFFFFFFFFFFE001FFFFFFFC
7FFFFFFFFFFFE000FFFFFFFC
3FFFFFFFFFFFE000FFFFFFFC
3FFFFFFFFFFFE000FFFFFFFC
1FFFFFFFFFFFE0007FFFFFFC
1FFFFFFFFFFFE0007FFFFFFC
0FFFFFFFFFFFE0003FFFFFFC
07FFFFFFFFFFE0001FFFFFFC
03FFFFFFFFFFE0000FFFFFFC
00FFFFFFFFFFE00007FFFFFC
003FFFFFFFFFE00001FFFFFC
0007FFFFFFFFE000003FFFFC
ENDCHAR
STARTCHAR 0027
ENCODING 39
SWIDTH 200 0
DWIDTH 36 0
BBX 11 29 12 97
BITMAP
FFE0
FFE0
FFE0
FFE0
FFE0
FFE0
FFE0
FFE0
FFE0
FFE0
FFE0
FFE0
FFE0
FFE0
FFE0
FFE0
FFE0
FFE0
FFE0
FFE0
FFE0
FFE0
FFE0
FFE0
FFE0
FFE0
FFE0
FFE0
FFE0
ENDCHAR
STARTCHAR 0028
ENCODING 40
SWIDTH 322 0
DWIDTH 58 0
BBX 36 162 14 -36
BITMAP
0000003FF0
00000FFFF0
0000FFFFF0
0003FFFFF0
000FFFFFF0
003FFFFFF0
007FFFFFF0
01FFFFFFF0
03FFFFFFF0
03FFFFFFF0
07FFFFFFF0
0FFFFFFF00
0FFFFF0000
1FFFF80000
1FFFE00000
3FFF800000
3FFF000000
3FFF000000
7FFE000000
7FFE000000
7FFC000000
7FFC000000
7FFC000000
FFF8000000
FFF8000000
FFF8000000
FFF8000000
FFF8000000
FFF8000000
FFF8000000
FFF8000000
FFF8000000
FFF8000000
FFF8000000
FFF8000000
FFF8000000
FFF8000000
FFF8000000
FFF8000000
FFF8000000
FFF8000000
FFF8000000
FFF8000000
FFF8000000
FFF8000000
FFF8000000
FFF8000000
FFF8000000
FFF8000000
FFF8000000
FFF8000000
FFF8000000
FFF8000000
FFF8000000
FFF8000000
FFF8000000
FFF8000000
FFF8000000
FFF8000000
FFF8000000
FFF8000000
FFF8000000
FFF8000000
FFF8000000
FFF8000000
FFF8000000
FFF8000000
FFF8000000
FFF8000000
FFF8000000
FFF8000000
FFF8000000
FFF8000000
FFF8000000
FFF8000000
FFF8000000
FFF8000000
FFF8000000
FFF8000000
FFF8000000
FFF8000000
FFF8000000
FFF8000000
FFF8000000
FFF8000000
FFF8000000
FFF8000000
FFF8000000
FFF8000000
FFF8000000
FFF8000000
FFF8000000
FFF8000000
FFF8000000
FFF8000000
FFF8000000
FFF8000000
FFF8000000
FFF8000000
FFF8000000
FFF8000000
FFF8000000
FFF8000000
FFF8000000
FFF8000000
FFF8000000
FFF8000000
FFF8000000
FFF8000000
FFF8000000
FFF8000000
FFF8000000
FFF8000000
FFF8000000
FFF8000000
FFF8000000
FFF8000000
FFF8000000
FFF8000000
FFF8000000
FFF8000000
FFF8000000
FFF8000000
FFF8000000
FFF8000000
FFF8000000
FFF8000000
FFF8000000
FFF8000000
FFF8000000
FFF8000000
FFF8000000
FFF8000000
FFF8000000
FFF8000000
FFF8000000
FFF8000000
FFF8000000
FFFC000000
7FFC000000
7FFC000000
7FFC000000
7FFE000000
7FFE000000
3FFF000000
3FFF800000
3FFF800000
1FFFE00000
1FFFF80000
0FFFFE0000
0FFFFFF800
07FFFFFFF0
03FFFFFFF0
03FFFFFFF0
01FFFFFFF0
007FFFFFF0
003FFFFFF0
000FFFFFF0
0003FFFFF0
0000FFFFF0
00000FFFF0
0000003FF0
ENDCHAR
STARTCHAR 0029
ENCODING 41
SWIDTH 322 0
DWIDTH 58 0
BBX 36 162 9 -36
BITMAP
FFC0000000
FFFF000000
FFFFF00000
FFFFFE0000
FFFFFF8000
FFFFFFC000
FFFFFFF000
FFFFFFF800
FFFFFFFC00
FFFFFFFE00
FFFFFFFE00
0FFFFFFF00
000FFFFF00
0001FFFF80
00007FFF80
00003FFFC0
00000FFFC0
00000FFFC0
000007FFE0
000007FFE0
000003FFE0
000003FFE0
000003FFE0
000001FFF0
000001FFF0
000001FFF0
000001FFF0
000001FFF0
000001FFF0
000001FFF0
000001FFF0
000001FFF0
000001FFF0
000001FFF0
000001FFF0
000001FFF0
000001FFF0
000001FFF0
000001FFF0
000001FFF0
000001FFF0
000001FFF0
000001FFF0
000001FFF0
000001FFF0
000001FFF0
000001FFF0
000001FFF0
000001FFF0
000001FFF0
000001FFF0
000001FFF0
000001FFF0
000001FFF0
000001FFF0
000001FFF0
000001FFF0
000001FFF0
000001FFF0
000001FFF0
000001FFF0
000001FFF0
000001FFF0
000001FFF0
000001FFF0
000001FFF0
000001FFF0
000001FFF0
000001FFF0
000001FFF0
000001FFF0
000001FFF0
000001FFF0
000001FFF0
000001FFF0
000001FFF0
000001FFF0
000001FFF0
000001FFF0
000001FFF0
000001FFF0
000001FFF0
000001FFF0
000001FFF0
000001FFF0
000001FFF0
000001FFF0
000001FFF0
000001FFF0
000001FFF0
000001FFF0
000001FFF0
000001FFF0
000001FFF0
000001FFF0
000001FFF0
000001FFF0
000001FFF0
000001FFF0
000001FFF0
000001FFF0
000001FFF0
000001FFF0
000001FFF0
000001FFF0
000001FFF0
000001FFF0
000001FFF0
000001FFF0
000001FFF0
000001FFF0
000001FFF0
000001FFF0
000001FFF0
000001FFF0
000001FFF0
000001FFF0
000001FFF0
000001FFF0
000001FFF0
000001FFF0
000001FFF0
000001FFF0
000001FFF0
000001FFF0
000001FFF0
000001FFF0
000001FFF0
000001FFF0
000001FFF0
000001FFF0
000001FFF0
000001FFF0
000001FFF0
000001FFF0
000001FFF0
000001FFF0
000001FFF0
000001FFF0
000003FFE0
000003FFE0
000003FFE0
000007FFE0
000007FFE0
00000FFFC0
00000FFFC0
00001FFFC0
00007FFF80
0000FFFF80
0007FFFF00
01FFFFFF00
FFFFFFFE00
FFFFFFFC00
FFFFFFFC00
FFFFFFF800
FFFFFFE000
FFFFFFC000
FFFFFF0000
FFFFFC0000
FFFFF00000
FFFF000000
FFC0000000
ENDCHAR
STARTCHAR 002A
ENCODING 42
SWIDTH 427 0
DWIDTH 77 0
BBX 58 55 10 71
BITMAP
000000FFC0000000
000000FFC0000000
000000FFC0000000
000000FFC0000000
000000FFC0000000
000000FFC0000000
000000FFC0000000
000000FFC0000000
000000FF80000000
000000FF80000000
0000007F80000000
0000007F80000000
0000007F80000000
0000007F80000000
0000007F80000000
1800007F80000E00
1F00007F80003E00
3FC0007F8001FF00
3FF8007F8007FF00
3FFE007F803FFF00
7FFFC07F80FFFF80
7FFFF07F83FFFF80
7FFFFE7F9FFFFF80
FFFFFFBF7FFFFFC0
FFFFFFFFFFFFFFC0
1FFFFFFFFFFFFC00
00FFFFFFFFFFC000
000FFFFFFFFC0000
0000FFFFFFC00000
00000FFFFC000000
000001FFE0000000
000003FFF0000000
000007FFF8000000
00000FFFF8000000
00000FFFFC000000
00001FF3FE000000
00003FF3FF000000
00007FE1FF800000
0000FFC0FFC00000
0001FFC0FFE00000
0001FF807FE00000
0003FF807FF00000
0007FF003FF80000
000FFE001FFC0000
001FFE001FFE0000
003FFC000FFF0000
007FFC000FFF8000
007FF80007FF8000
00FFF00003FFC000
003FF00003FF0000
001FE00001FE0000
000FE00000FC0000
0003C00000F00000
0001800000600000
0000000000400000
ENDCHAR
STARTCHAR 002B
ENCODING 43
SWIDTH 461 0
DWIDTH 83 0
BBX 62 64 10 20
BITMAP
0000003FF0000000
0000003FF0000000
0000003FF0000000
0000003FF0000000
0000003FF0000000
0000003FF0000000
0000003FF0000000
0000003FF0000000
0000003FF0000000
0000003FF0000000
0000003FF0000000
0000003FF0000000
0000003FF0000000
0000003FF0000000
0000003FF0000000
0000003FF0000000
0000003FF0000000
0000003FF0000000
0000003FF0000000
0000003FF0000000
0000003FF0000000
0000003FF0000000
0000003FF0000000
0000003FF0000000
0000003FF0000000
0000003FF0000000
0000003FF0000000
FFFFFFFFFFFFFFFC
FFFFFFFFFFFFFFFC
FFFFFFFFFFFFFFFC
FFFFFFFFFFFFFFFC
FFFFFFFFFFFFFFFC
FFFFFFFFFFFFFFFC
FFFFFFFFFFFFFFFC
FFFFFFFFFFFFFFFC
FFFFFFFFFFFFFFFC
FFFFFFFFFFFFFFFC
0000003FF0000000
0000003FF0000000
0000003FF0000000
0000003FF0000000
0000003FF0000000
0000003FF0000000
0000003FF0000000
0000003FF0000000
0000003FF0000000
0000003FF0000000
0000003FF0000000
0000003FF0000000
0000003FF0000000
0000003FF0000000
0000003FF0000000
0000003FF0000000
0000003FF0000000
0000003FF0000000
0000003FF0000000
0000003FF0000000
0000003FF0000000
0000003FF0000000
0000003FF0000000
0000003FF0000000
0000003FF0000000
0000003FF0000000
0000003FF0000000
ENDCHAR
STARTCHAR 002C
ENCODING 44
SWIDTH 205 0
DWIDTH 37 0
BBX 19 40 6 -26
BITMAP
01FFE0
01FFE0
01FFE0
01FFE0
01FFE0
01FFE0
01FFE0
01FFE0
01FFE0
01FFE0
01FFE0
01FFE0
01FFE0
01FFE0
01FFE0
01FFE0
03FFC0
03FFC0
03FFC0
07FF80
07FF80
07FF80
07FF00
0FFF00
0FFF00
0FFE00
0FFE00
1FFE00
1FFE00
1FFC00
3FFC00
3FFC00
3FF800
3FF800
7FF800
7FF000
7FF000
FFF000
FFE000
FFE000
ENDCHAR
STARTCHAR 002D
ENCODING 45
SWIDTH 300 0
DWIDTH 54 0
BBX 35 11 10 47
BITMAP
FFFFFFFFE0
FFFFFFFFE0
FFFFFFFFE0
FFFFFFFFE0
FFFFFFFFE0
FFFFFFFFE0
FFFFFFFFE0
FFFFFFFFE0
FFFFFFFFE0
FFFFFFFFE0
FFFFFFFFE0
ENDCHAR
STARTCHAR 002E
ENCODING 46
SWIDTH 194 0
DWIDTH 35 0
BBX 14 14 11 1
BITMAP
FFFC
FFFC
FFFC
FFFC
FFFC
FFFC
FFFC
FFFC
FFFC
FFFC
FFFC
FFFC
FFFC
FFFC
ENDCHAR
STARTCHAR 002F
ENCODING 47
SWIDTH 433 0
DWIDTH 78 0
BBX 78 162 1 -36
BITMAP
0000000000000001FFFC
0000000000000001FFF8
0000000000000001FFF8
0000000000000003FFF0
0000000000000003FFF0
0000000000000007FFF0
0000000000000007FFE0
0000000000000007FFE0
000000000000000FFFC0
000000000000000FFFC0
000000000000001FFFC0
000000000000001FFF80
000000000000001FFF80
000000000000003FFF00
000000000000003FFF00
000000000000007FFF00
000000000000007FFE00
000000000000007FFE00
00000000000000FFFE00
00000000000000FFFC00
00000000000001FFFC00
00000000000001FFF800
00000000000001FFF800
00000000000003FFF800
00000000000003FFF000
00000000000003FFF000
00000000000007FFE000
00000000000007FFE000
0000000000000FFFE000
0000000000000FFFC000
0000000000000FFFC000
0000000000001FFF8000
0000000000001FFF8000
0000000000003FFF8000
0000000000003FFF0000
0000000000003FFF0000
0000000000007FFE0000
0000000000007FFE0000
000000000000FFFE0000
000000000000FFFC0000
000000000000FFFC0000
000000000001FFFC0000
000000000001FFF80000
000000000003FFF80000
000000000003FFF00000
000000000003FFF00000
000000000007FFF00000
000000000007FFE00000
000000000007FFE00000
00000000000FFFC00000
00000000000FFFC00000
00000000001FFFC00000
00000000001FFF800000
00000000001FFF800000
00000000003FFF000000
00000000003FFF000000
00000000007FFF000000
00000000007FFE000000
00000000007FFE000000
0000000000FFFE000000
0000000000FFFC000000
0000000001FFFC000000
0000000001FFF8000000
0000000001FFF8000000
0000000003FFF8000000
0000000003FFF0000000
0000000007FFF0000000
0000000007FFE0000000
0000000007FFE0000000
000000000FFFE0000000
000000000FFFC0000000
000000001FFFC0000000
000000001FFF80000000
000000001FFF80000000
000000003FFF80000000
000000003FFF00000000
000000003FFF00000000
000000007FFE00000000
000000007FFE00000000
00000000FFFE00000000
00000000FFFC00000000
00000000FFFC00000000
00000001FFFC00000000
00000001FFF800000000
00000003FFF800000000
00000003FFF000000000
00000003FFF000000000
00000007FFF000000000
00000007FFE000000000
0000000FFFE000000000
0000000FFFC000000000
0000000FFFC000000000
0000001FFFC000000000
0000001FFF8000000000
0000003FFF8000000000
0000003FFF0000000000
0000003FFF0000000000
0000007FFF0000000000
0000007FFE0000000000
0000007FFE0000000000
000000FFFC0000000000
000000FFFC0000000000
000001FFFC0000000000
000001FFF80000000000
000001FFF80000000000
000003FFF80000000000
000003FFF00000000000
000007FFF00000000000
000007FFE00000000000
000007FFE00000000000
00000FFFE00000000000
00000FFFC00000000000
00001FFFC00000000000
00001FFF800000000000
00001FFF800000000000
00003FFF800000000000
00003FFF000000000000
00007FFF000000000000
00007FFE000000000000
00007FFE000000000000
0000FFFE000000000000
0000FFFC000000000000
0001FFFC000000000000
0001FFF8000000000000
0001FFF8000000000000
0003FFF8000000000000
0003FFF0000000000000
0003FFF0000000000000
0007FFF0000000000000
0007FFE0000000000000
000FFFE0000000000000
000FFFC0000000000000
000FFFC0000000000000
001FFFC0000000000000
001FFF80000000000000
003FFF80000000000000
003FFF00000000000000
003FFF00000000000000
007FFF00000000000000
007FFE00000000000000
00FFFE00000000000000
00FFFC00000000000000
00FFFC00000000000000
01FFFC00000000000000
01FFF800000000000000
03FFF800000000000000
03FFF000000000000000
03FFF000000000000000
07FFF000000000000000
07FFE000000000000000
07FFE000000000000000
0FFFE000000000000000
0FFFC000000000000000
1FFFC000000000000000
1FFF8000000000000000
1FFF8000000000000000
3FFF8000000000000000
3FFF0000000000000000
7FFF0000000000000000
7FFE0000000000000000
7FFE0000000000000000
FFFE0000000000000000
ENDCHAR
STARTCHAR 0030
ENCODING 48
SWIDTH 516 0
DWIDTH 93 0
BBX 64 126 14 0
BITMAP
0007FFFFFFFFF000
003FFFFFFFFFFE00
00FFFFFFFFFFFF80
03FFFFFFFFFFFFC0
07FFFFFFFFFFFFE0
0FFFFFFFFFFFFFF0
1FFFFFFFFFFFFFF8
1FFFFFFFFFFFFFFC
3FFFFFFFFFFFFFFC
3FFFFFFFFFFFFFFE
7FFFFFFFFFFFFFFE
7FFFFFFFFFFFFFFE
7FFF80000000FFFE
FFFF000000007FFF
FFFE000000003FFF
FFFC000000001FFF
FFFC000000001FFF
FFF8000000000FFF
FFF8000000000FFF
FFF8000000000FFF
FFF8000000000FFF
FFF8000000000FFF
FFF8000000000FFF
FFF8000000000FFF
FFF8000000000FFF
FFF8000000000FFF
FFF8000000000FFF
FFF8000000000FFF
FFF8000000000FFF
FFF8000000000FFF
FFF8000000000FFF
FFF8000000000FFF
FFF8000000000FFF
FFF8000000000FFF
FFF8000000000FFF
FFF8000000000FFF
FFF8000000000FFF
FFF8000000000FFF
FFF8000000000FFF
FFF8000000000FFF
FFF8000000000FFF
FFF8000000000FFF
FFF8000000000FFF
FFF8000000000FFF
FFF8000000000FFF
FFF8000000000FFF
FFF8000000000FFF
FFF8000000000FFF
FFF8000000000FFF
FFF8000000000FFF
FFF8000000000FFF
FFF8000000000FFF
FFF8000000000FFF
FFF8000000000FFF
FFF8000000000FFF
FFF8000000000FFF
FFF8000000000FFF
FFF8000000000FFF
FFF8000000000FFF
FFF8000000000FFF
FFF8000000000FFF
FFF8000000000FFF
FFF8000000000FFF
FFF8000000000FFF
FFF8000000000FFF
FFF8000000000FFF
FFF8000000000FFF
FFF8000000000FFF
FFF8000000000FFF
FFF8000000000FFF
FFF8000000000FFF
FFF8000000000FFF
FFF8000000000FFF
FFF8000000000FFF
FFF8000000000FFF
FFF8000000000FFF
FFF8000000000FFF
FFF8000000000FFF
FFF8000000000FFF
FFF8000000000FFF
FFF8000000000FFF
FFF8000000000FFF
FFF8000000000FFF
FFF8000000000FFF
FFF8000000000FFF
FFF8000000000FFF
FFF8000000000FFF
FFF8000000000FFF
FFF8000000000FFF
FFF8000000000FFF
FFF8000000000FFF
FFF8000000000FFF
FFF8000000000FFF
FFF8000000000FFF
FFF8000000000FFF
FFF8000000000FFF
FFF8000000000FFF
FFF8000000000FFF
FFF8000000000FFF
FFF8000000000FFF
FFF8000000000FFF
FFF8000000000FFF
FFF8000000000FFF
FFF8000000000FFF
FFF8000000000FFF
FFF8000000000FFF
FFF8000000000FFF
FFF8000000000FFF
FFF8000000000FFF
FFFC000000001FFF
FFFC000000001FFF
FFFE000000003FFF
FFFF000000007FFF
7FFF80000000FFFE
7FFFFFFFFFFFFFFE
7FFFFFFFFFFFFFFE
3FFFFFFFFFFFFFFC
3FFFFFFFFFFFFFFC
1FFFFFFFFFFFFFFC
1FFFFFFFFFFFFFF8
0FFFFFFFFFFFFFF0
07FFFFFFFFFFFFE0
03FFFFFFFFFFFFC0
01FFFFFFFFFFFF80
007FFFFFFFFFFE00
0007FFFFFFFFE000
ENDCHAR
STARTCHAR 0031
ENCODING 49
SWIDTH 516 0
DWIDTH 93 0
BBX 60 129 17 1
BITMAP
000000000C000000
000000001C000000
000000007C000000
00000000FC000000
00000003FC000000
00000007FC000000
0000001FFC000000
0000003FFC000000
000000FFFC000000
000001FFFC000000
000007FFFC000000
00000FFFFC000000
00003FFFFC000000
0000FFFFFC000000
0001FFFFFC000000
0007FFFFFC000000
000FFFFFFC000000
003FFFFFFC000000
007FFFFFFC000000
01FFFFFFFC000000
03FFFFFFFC000000
0FFFFF3FFC000000
1FFFFE3FFC000000
7FFFFC3FFC000000
FFFFF03FFC000000
FFFFE03FFC000000
FFFF803FFC000000
FFFF003FFC000000
FFFC003FFC000000
FFF8003FFC000000
FFE0003FFC000000
FFC0003FFC000000
FF00003FFC000000
FE00003FFC000000
F800003FFC000000
F000003FFC000000
C000003FFC000000
8000003FFC000000
0000003FFC000000
0000003FFC000000
0000003FFC000000
0000003FFC000000
0000003FFC000000
0000003FFC000000
0000003FFC000000
0000003FFC000000
0000003FFC000000
0000003FFC000000
0000003FFC000000
0000003FFC000000
0000003FFC000000
0000003FFC000000
0000003FFC000000
0000003FFC000000
0000003FFC000000
0000003FFC000000
0000003FFC000000
0000003FFC000000
0000003FFC000000
0000003FFC000000
0000003FFC000000
0000003FFC000000
0000003FFC000000
0000003FFC000000
0000003FFC000000
0000003FFC000000
0000003FFC000000
0000003FFC000000
0000003FFC000000
0000003FFC000000
0000003FFC000000
0000003FFC000000
0000003FFC000000
0000003FFC000000
0000003FFC000000
0000003FFC000000
0000003FFC000000
0000003FFC000000
0000003FFC000000
0000003FFC000000
0000003FFC000000
0000003FFC000000
0000003FFC000000
0000003FFC000000
0000003FFC000000
0000003FFC000000
0000003FFC000000
0000003FFC000000
0000003FFC000000
0000003FFC000000
0000003FFC000000
0000003FFC000000
0000003FFC000000
0000003FFC000000
0000003FFC000000
0000003FFC000000
0000003FFC000000
0000003FFC000000
0000003FFC000000
0000003FFC000000
0000003FFC000000
0000003FFC000000
0000003FFC000000
0000003FFC000000
0000003FFC000000
0000003FFC000000
0000003FFC000000
0000003FFC000000
0000003FFC000000
0000003FFC000000
0000003FFC000000
0000003FFC000000
0000003FFC000000
0000003FFC000000
0000003FFC000000
0000003FFC000000
0000003FFC000000
0FFFFFFFFFFFFFF0
0FFFFFFFFFFFFFF0
0FFFFFFFFFFFFFF0
0FFFFFFFFFFFFFF0
0FFFFFFFFFFFFFF0
0FFFFFFFFFFFFFF0
0FFFFFFFFFFFFFF0
0FFFFFFFFFFFFFF0
0FFFFFFFFFFFFFF0
0FFFFFFFFFFFFFF0
0FFFFFFFFFFFFFF0
0FFFFFFFFFFFFFF0
ENDCHAR
STARTCHAR 0032
ENCODING 50
SWIDTH 516 0
DWIDTH 93 0
BBX 65 126 15 0
BITMAP
FFFFFFFFFFFFF00000
FFFFFFFFFFFFFE0000
FFFFFFFFFFFFFF8000
FFFFFFFFFFFFFFE000
FFFFFFFFFFFFFFF000
FFFFFFFFFFFFFFF800
FFFFFFFFFFFFFFFC00
FFFFFFFFFFFFFFFC00
FFFFFFFFFFFFFFFE00
FFFFFFFFFFFFFFFE00
FFFFFFFFFFFFFFFF00
FFFFFFFFFFFFFFFF00
800000000000FFFF00
0000000000007FFF80
0000000000003FFF80
0000000000001FFF80
0000000000001FFF80
0000000000000FFF80
0000000000000FFF80
0000000000000FFF80
0000000000000FFF80
0000000000000FFF80
0000000000000FFF80
0000000000000FFF80
0000000000000FFF80
0000000000000FFF80
0000000000000FFF80
0000000000000FFF80
0000000000000FFF80
0000000000000FFF80
0000000000000FFF80
0000000000000FFF80
0000000000000FFF80
0000000000001FFF80
0000000000001FFF80
0000000000001FFF00
0000000000003FFF00
0000000000007FFF00
000000000000FFFE00
000000000001FFFE00
000000000003FFFE00
000000000007FFFC00
00000000000FFFF800
00000000001FFFF800
00000000007FFFF000
0000000000FFFFE000
0000000001FFFFC000
0000000003FFFF8000
0000000007FFFF0000
000000000FFFFE0000
000000001FFFF80000
000000007FFFF00000
00000000FFFFE00000
00000001FFFFC00000
00000003FFFF800000
00000007FFFF000000
0000000FFFFC000000
0000001FFFF8000000
0000007FFFF0000000
000000FFFFE0000000
000001FFFFC0000000
000003FFFF80000000
000007FFFF00000000
00000FFFFC00000000
00001FFFF800000000
00007FFFF000000000
0000FFFFE000000000
0001FFFFC000000000
0003FFFF8000000000
0007FFFE0000000000
000FFFFC0000000000
001FFFF80000000000
007FFFF00000000000
00FFFFE00000000000
01FFFFC00000000000
03FFFF800000000000
07FFFE000000000000
0FFFFC000000000000
0FFFF8000000000000
1FFFF0000000000000
3FFFE0000000000000
3FFFC0000000000000
7FFF80000000000000
7FFF00000000000000
7FFE00000000000000
7FFC00000000000000
FFFC00000000000000
FFFC00000000000000
FFF800000000000000
FFF800000000000000
FFF800000000000000
FFF800000000000000
FFF800000000000000
FFF800000000000000
FFF800000000000000
FFF800000000000000
FFF800000000000000
FFF800000000000000
FFF800000000000000
FFF800000000000000
FFF800000000000000
FFF800000000000000
FFF800000000000000
FFF800000000000000
FFF800000000000000
FFF800000000000000
FFF800000000000000
FFF800000000000000
FFF800000000000000
FFF800000000000000
FFF800000000000000
FFF800000000000000
FFF800000000000000
FFF800000000000080
FFFFFFFFFFFFFFFF80
FFFFFFFFFFFFFFFF80
FFFFFFFFFFFFFFFF80
FFFFFFFFFFFFFFFF80
FFFFFFFFFFFFFFFF80
FFFFFFFFFFFFFFFF80
FFFFFFFFFFFFFFFF80
FFFFFFFFFFFFFFFF80
FFFFFFFFFFFFFFFF80
FFFFFFFFFFFFFFFF80
FFFFFFFFFFFFFFFF80
FFFFFFFFFFFFFFFF80
ENDCHAR
STARTCHAR 0033
ENCODING 51
SWIDTH 516 0
DWIDTH 93 0
BBX 65 126 13 0
BITMAP
FFFFFFFFFFFFF80000
FFFFFFFFFFFFFF0000
FFFFFFFFFFFFFFC000
FFFFFFFFFFFFFFE000
FFFFFFFFFFFFFFF000
FFFFFFFFFFFFFFF800
FFFFFFFFFFFFFFFC00
FFFFFFFFFFFFFFFE00
FFFFFFFFFFFFFFFE00
FFFFFFFFFFFFFFFF00
FFFFFFFFFFFFFFFF00
FFFFFFFFFFFFFFFF00
0000000000007FFF00
0000000000003FFF80
0000000000001FFF80
0000000000000FFF80
0000000000000FFF80
00000000000007FF80
00000000000007FF80
00000000000007FF80
00000000000007FF80
00000000000007FF80
00000000000007FF80
00000000000007FF80
00000000000007FF80
00000000000007FF80
00000000000007FF80
00000000000007FF80
00000000000007FF80
00000000000007FF80
00000000000007FF80
00000000000007FF80
00000000000007FF80
00000000000007FF80
00000000000007FF80
00000000000007FF80
00000000000007FF80
00000000000007FF80
00000000000007FF80
00000000000007FF80
00000000000007FF80
00000000000007FF80
00000000000007FF80
00000000000007FF80
00000000000007FF80
00000000000007FF80
00000000000007FF80
00000000000007FF00
0000000000000FFF00
0000000000000FFF00
0000000000000FFF00
0000000000001FFE00
0000000000003FFE00
000000000000FFFC00
007FFFFFFFFFFFF800
007FFFFFFFFFFFF000
007FFFFFFFFFFFE000
007FFFFFFFFFFFC000
007FFFFFFFFFFE0000
007FFFFFFFFFC00000
007FFFFFFFFFFE0000
007FFFFFFFFFFF8000
007FFFFFFFFFFFE000
007FFFFFFFFFFFF000
007FFFFFFFFFFFF800
000000000000FFFC00
0000000000003FFC00
0000000000001FFE00
0000000000001FFE00
0000000000000FFF00
0000000000000FFF00
00000000000007FF00
00000000000007FF00
00000000000007FF80
00000000000007FF80
00000000000007FF80
00000000000007FF80
00000000000007FF80
00000000000007FF80
00000000000007FF80
00000000000007FF80
00000000000007FF80
00000000000007FF80
00000000000007FF80
00000000000007FF80
00000000000007FF80
00000000000007FF80
00000000000007FF80
00000000000007FF80
00000000000007FF80
00000000000007FF80
00000000000007FF80
00000000000007FF80
00000000000007FF80
00000000000007FF80
00000000000007FF80
00000000000007FF80
00000000000007FF80
00000000000007FF80
00000000000007FF80
00000000000007FF80
00000000000007FF80
00000000000007FF80
00000000000007FF80
00000000000007FF80
00000000000007FF80
00000000000007FF80
00000000000007FF80
00000000000007FF80
0000000000000FFF80
0000000000000FFF80
0000000000001FFF80
0000000000003FFF80
0000000000007FFF00
FFFFFFFFFFFFFFFF00
FFFFFFFFFFFFFFFF00
FFFFFFFFFFFFFFFE00
FFFFFFFFFFFFFFFE00
FFFFFFFFFFFFFFFC00
FFFFFFFFFFFFFFFC00
FFFFFFFFFFFFFFF800
FFFFFFFFFFFFFFF000
FFFFFFFFFFFFFFE000
FFFFFFFFFFFFFFC000
FFFFFFFFFFFFFF0000
FFFFFFFFFFFFF00000
ENDCHAR
STARTCHAR 0034
ENCODING 52
SWIDTH 516 0
DWIDTH 93 0
BBX 79 126 8 0
BITMAP
000000000003FFF00000
000000000003FFF00000
000000000007FFF00000
000000000007FFF00000
00000000000FFFF00000
00000000001FFFF00000
00000000001FFFF00000
00000000003FFFF00000
00000000003FFFF00000
00000000007FFFF00000
00000000007FFFF00000
0000000000FFFFF00000
0000000000FFFFF00000
0000000001FFFFF00000
0000000003FFFFF00000
0000000003FFFFF00000
0000000007FFFFF00000
0000000007FFFFF00000
000000000FFEFFF00000
000000000FFEFFF00000
000000001FFCFFF00000
000000001FFCFFF00000
000000003FF8FFF00000
000000007FF8FFF00000
000000007FF0FFF00000
00000000FFE0FFF00000
00000000FFE0FFF00000
00000001FFC0FFF00000
00000001FFC0FFF00000
00000003FF80FFF00000
00000003FF80FFF00000
00000007FF00FFF00000
0000000FFF00FFF00000
0000000FFE00FFF00000
0000001FFC00FFF00000
0000001FFC00FFF00000
0000003FF800FFF00000
0000003FF800FFF00000
0000007FF000FFF00000
000000FFF000FFF00000
000000FFE000FFF00000
000001FFC000FFF00000
000001FFC000FFF00000
000003FF8000FFF00000
000003FF8000FFF00000
000007FF0000FFF00000
000007FF0000FFF00000
00000FFE0000FFF00000
00001FFE0000FFF00000
00001FFC0000FFF00000
00003FF80000FFF00000
00003FF80000FFF00000
00007FF00000FFF00000
00007FF00000FFF00000
0000FFE00000FFF00000
0000FFE00000FFF00000
0001FFC00000FFF00000
0003FFC00000FFF00000
0003FF800000FFF00000
0007FF000000FFF00000
0007FF000000FFF00000
000FFE000000FFF00000
000FFE000000FFF00000
001FFC000000FFF00000
001FFC000000FFF00000
003FF8000000FFF00000
007FF0000000FFF00000
007FF0000000FFF00000
00FFE0000000FFF00000
00FFE0000000FFF00000
01FFC0000000FFF00000
01FFC0000000FFF00000
03FF80000000FFF00000
07FF80000000FFF00000
07FF00000000FFF00000
0FFE00000000FFF00000
0FFE00000000FFF00000
1FFC00000000FFF00000
1FFC00000000FFF00000
3FF800000000FFF00000
3FF800000000FFF00000
7FFFFFFFFFFFFFFFFFFE
FFFFFFFFFFFFFFFFFFFE
FFFFFFFFFFFFFFFFFFFE
FFFFFFFFFFFFFFFFFFFE
FFFFFFFFFFFFFFFFFFFE
FFFFFFFFFFFFFFFFFFFE
FFFFFFFFFFFFFFFFFFFE
FFFFFFFFFFFFFFFFFFFE
FFFFFFFFFFFFFFFFFFFE
FFFFFFFFFFFFFFFFFFFE
FFFFFFFFFFFFFFFFFFFE
000000000000FFF00000
000000000000FFF00000
000000000000FFF00000
000000000000FFF00000
000000000000FFF00000
000000000000FFF00000
000000000000FFF00000
000000000000FFF00000
000000000000FFF00000
000000000000FFF00000
000000000000FFF00000
000000000000FFF00000
000000000000FFF00000
000000000000FFF00000
000000000000FFF00000
000000000000FFF00000
000000000000FFF00000
000000000000FFF00000
000000000000FFF00000
000000000000FFF00000
000000000000FFF00000
000000000000FFF00000
000000000000FFF00000
000000000000FFF00000
000000000000FFF00000
000000000000FFF00000
000000000000FFF00000
000000000000FFF00000
000000000000FFF00000
000000000000FFF00000
000000000000FFF00000
000000000000FFF00000
000000000000FFF00000
000000000000FFF00000
ENDCHAR
STARTCHAR 0035
ENCODING 53
SWIDTH 516 0
DWIDTH 93 0
BBX 64 126 14 0
BITMAP
FFFFFFFFFFFFFFFF
FFFFFFFFFFFFFFFF
FFFFFFFFFFFFFFFF
FFFFFFFFFFFFFFFF
FFFFFFFFFFFFFFFF
FFFFFFFFFFFFFFFF
FFFFFFFFFFFFFFFF
FFFFFFFFFFFFFFFF
FFFFFFFFFFFFFFFF
FFFFFFFFFFFFFFFF
FFFFFFFFFFFFFFFF
FFFFFFFFFFFFFFFF
FFF8000000000000
FFF8000000000000
FFF8000000000000
FFF8000000000000
FFF8000000000000
FFF8000000000000
FFF8000000000000
FFF8000000000000
FFF8000000000000
FFF8000000000000
FFF8000000000000
FFF8000000000000
FFF8000000000000
FFF8000000000000
FFF8000000000000
FFF8000000000000
FFF8000000000000
FFF8000000000000
FFF8000000000000
FFF8000000000000
FFF8000000000000
FFF8000000000000
FFF8000000000000
FFF8000000000000
FFF8000000000000
FFF8000000000000
FFF8000000000000
FFF8000000000000
FFF8000000000000
FFF8000000000000
FFF8000000000000
FFF8000000000000
FFF8000000000000
FFF8000000000000
FFF8000000000000
FFF8000000000000
FFF8000000000000
FFF8000000000000
FFF8000000000000
FFF8000000000000
FFF8000000000000
FFF8000000000000
FFFFFFFFFFFFF000
FFFFFFFFFFFFFE00
FFFFFFFFFFFFFF80
FFFFFFFFFFFFFFC0
FFFFFFFFFFFFFFE0
FFFFFFFFFFFFFFF0
FFFFFFFFFFFFFFF8
FFFFFFFFFFFFFFFC
FFFFFFFFFFFFFFFC
FFFFFFFFFFFFFFFE
FFFFFFFFFFFFFFFE
000000000001FFFE
0000000000007FFE
0000000000003FFF
0000000000001FFF
0000000000001FFF
0000000000000FFF
0000000000000FFF
0000000000000FFF
0000000000000FFF
0000000000000FFF
0000000000000FFF
0000000000000FFF
0000000000000FFF
0000000000000FFF
0000000000000FFF
0000000000000FFF
0000000000000FFF
0000000000000FFF
0000000000000FFF
0000000000000FFF
0000000000000FFF
0000000000000FFF
0000000000000FFF
0000000000000FFF
0000000000000FFF
0000000000000FFF
0000000000000FFF
0000000000000FFF
0000000000000FFF
0000000000000FFF
0000000000000FFF
0000000000000FFF
0000000000000FFF
0000000000000FFF
0000000000000FFF
0000000000000FFF
0000000000000FFF
0000000000000FFF
0000000000000FFF
0000000000000FFF
0000000000000FFF
0000000000000FFF
0000000000000FFF
0000000000000FFF
0000000000001FFF
0000000000001FFF
0000000000003FFF
0000000000007FFF
C00000000000FFFE
FFFFFFFFFFFFFFFE
FFFFFFFFFFFFFFFE
FFFFFFFFFFFFFFFE
FFFFFFFFFFFFFFFC
FFFFFFFFFFFFFFFC
FFFFFFFFFFFFFFF8
FFFFFFFFFFFFFFF0
FFFFFFFFFFFFFFE0
FFFFFFFFFFFFFFC0
FFFFFFFFFFFFFF80
FFFFFFFFFFFFFE00
FFFFFFFFFFFFE000
ENDCHAR
STARTCHAR 0036
ENCODING 54
SWIDTH 516 0
DWIDTH 93 0
BBX 64 126 14 0
BITMAP
0007FFFFFFFFFFFF
003FFFFFFFFFFFFF
00FFFFFFFFFFFFFF
03FFFFFFFFFFFFFF
07FFFFFFFFFFFFFF
0FFFFFFFFFFFFFFF
1FFFFFFFFFFFFFFF
1FFFFFFFFFFFFFFF
3FFFFFFFFFFFFFFF
3FFFFFFFFFFFFFFF
7FFFFFFFFFFFFFFF
7FFFFFFFFFFFFFFF
7FFF800000000000
FFFF000000000000
FFFE000000000000
FFFC000000000000
FFFC000000000000
FFF8000000000000
FFF8000000000000
FFF8000000000000
FFF8000000000000
FFF8000000000000
FFF8000000000000
FFF8000000000000
FFF8000000000000
FFF8000000000000
FFF8000000000000
FFF8000000000000
FFF8000000000000
FFF8000000000000
FFF8000000000000
FFF8000000000000
FFF8000000000000
FFF8000000000000
FFF8000000000000
FFF8000000000000
FFF8000000000000
FFF8000000000000
FFF8000000000000
FFF8000000000000
FFF8000000000000
FFF8000000000000
FFF8000000000000
FFF8000000000000
FFF8000000000000
FFF8000000000000
FFF8000000000000
FFF8000000000000
FFF8000000000000
FFF8000000000000
FFF8000000000000
FFF8000000000000
FFF8000000000000
FFF8000000000000
FFFFFFFFFFFFF000
FFFFFFFFFFFFFE00
FFFFFFFFFFFFFF80
FFFFFFFFFFFFFFC0
FFFFFFFFFFFFFFE0
FFFFFFFFFFFFFFF0
FFFFFFFFFFFFFFF8
FFFFFFFFFFFFFFFC
FFFFFFFFFFFFFFFC
FFFFFFFFFFFFFFFE
FFFFFFFFFFFFFFFE
FFF800000001FFFE
FFF8000000007FFE
FFF8000000003FFF
FFF8000000001FFF
FFF8000000001FFF
FFF8000000000FFF
FFF8000000000FFF
FFF8000000000FFF
FFF8000000000FFF
FFF8000000000FFF
FFF8000000000FFF
FFF8000000000FFF
FFF8000000000FFF
FFF8000000000FFF
FFF8000000000FFF
FFF8000000000FFF
FFF8000000000FFF
FFF8000000000FFF
FFF8000000000FFF
FFF8000000000FFF
FFF8000000000FFF
FFF8000000000FFF
FFF8000000000FFF
FFF8000000000FFF
FFF8000000000FFF
FFF8000000000FFF
FFF8000000000FFF
FFF8000000000FFF
FFF8000000000FFF
FFF8000000000FFF
FFF8000000000FFF
FFF8000000000FFF
FFF8000000000FFF
FFF8000000000FFF
FFF8000000000FFF
FFF8000000000FFF
FFF8000000000FFF
FFF8000000000FFF
FFF8000000000FFF
FFF8000000000FFF
FFF8000000000FFF
FFF8000000000FFF
FFF8000000000FFF
FFF8000000000FFF
FFFC000000001FFF
FFFC000000001FFF
FFFE000000003FFF
FFFF000000003FFF
7FFF80000000FFFE
7FFFFFFFFFFFFFFE
7FFFFFFFFFFFFFFE
3FFFFFFFFFFFFFFC
3FFFFFFFFFFFFFFC
1FFFFFFFFFFFFFF8
1FFFFFFFFFFFFFF8
0FFFFFFFFFFFFFF0
07FFFFFFFFFFFFE0
03FFFFFFFFFFFFC0
01FFFFFFFFFFFF80
007FFFFFFFFFFE00
0007FFFFFFFFE000
ENDCHAR
STARTCHAR 0037
ENCODING 55
SWIDTH 516 0
DWIDTH 93 0
BBX 70 126 11 0
BITMAP
FFFFFFFFFFFFFFFFFC
FFFFFFFFFFFFFFFFFC
FFFFFFFFFFFFFFFFFC
FFFFFFFFFFFFFFFFFC
FFFFFFFFFFFFFFFFFC
FFFFFFFFFFFFFFFFFC
FFFFFFFFFFFFFFFFFC
FFFFFFFFFFFFFFFFFC
FFFFFFFFFFFFFFFFFC
FFFFFFFFFFFFFFFFFC
FFFFFFFFFFFFFFFFFC
C00000000000007FF8
000000000000007FF8
00000000000000FFF8
00000000000000FFF0
00000000000001FFF0
00000000000001FFF0
00000000000001FFE0
00000000000003FFE0
00000000000003FFE0
00000000000003FFC0
00000000000007FFC0
00000000000007FF80
0000000000000FFF80
0000000000000FFF80
0000000000000FFF00
0000000000001FFF00
0000000000001FFF00
0000000000001FFE00
0000000000003FFE00
0000000000003FFE00
0000000000007FFC00
0000000000007FFC00
0000000000007FF800
000000000000FFF800
000000000000FFF800
000000000000FFF000
000000000001FFF000
000000000001FFF000
000000000003FFE000
000000000003FFE000
000000000003FFE000
000000000007FFC000
000000000007FFC000
000000000007FF8000
00000000000FFF8000
00000000000FFF8000
00000000001FFF0000
00000000001FFF0000
00000000001FFF0000
00000000003FFE0000
00000000003FFE0000
00000000003FFE0000
00000000007FFC0000
00000000007FFC0000
0000000000FFF80000
0000000000FFF80000
0000000000FFF80000
0000000001FFF00000
0000000001FFF00000
0000000001FFF00000
0000000003FFE00000
0000000003FFE00000
0000000007FFE00000
0000000007FFC00000
0000000007FFC00000
000000000FFF800000
000000000FFF800000
000000000FFF800000
000000001FFF000000
000000001FFF000000
000000003FFF000000
000000003FFE000000
000000003FFE000000
000000007FFE000000
000000007FFC000000
000000007FFC000000
00000000FFFC000000
00000000FFF8000000
00000001FFF8000000
00000001FFF0000000
00000001FFF0000000
00000003FFF0000000
00000003FFE0000000
00000003FFE0000000
00000007FFE0000000
00000007FFC0000000
0000000FFFC0000000
0000000FFFC0000000
0000000FFF80000000
0000001FFF80000000
0000001FFF00000000
0000001FFF00000000
0000003FFF00000000
0000003FFE00000000
0000007FFE00000000
0000007FFE00000000
0000007FFC00000000
000000FFFC00000000
000000FFFC00000000
000000FFF800000000
000001FFF800000000
000001FFF000000000
000003FFF000000000
000003FFF000000000
000003FFE000000000
000007FFE000000000
000007FFE000000000
000007FFC000000000
00000FFFC000000000
00000FFFC000000000
00001FFF8000000000
00001FFF8000000000
00001FFF0000000000
00003FFF0000000000
00003FFF0000000000
00003FFE0000000000
00007FFE0000000000
00007FFE0000000000
0000FFFC0000000000
0000FFFC0000000000
0000FFFC0000000000
0001FFF80000000000
0001FFF80000000000
0001FFF00000000000
0003FFF00000000000
ENDCHAR
STARTCHAR 0038
ENCODING 56
SWIDTH 516 0
DWIDTH 93 0
BBX 64 126 14 0
BITMAP
0007FFFFFFFFF000
003FFFFFFFFFFE00
00FFFFFFFFFFFF80
03FFFFFFFFFFFFC0
07FFFFFFFFFFFFE0
0FFFFFFFFFFFFFF0
1FFFFFFFFFFFFFF8
1FFFFFFFFFFFFFFC
3FFFFFFFFFFFFFFC
3FFFFFFFFFFFFFFE
7FFFFFFFFFFFFFFE
7FFFC0000003FFFE
7FFE000000007FFE
FFFC000000003FFF
FFF8000000001FFF
FFF8000000001FFF
FFF0000000000FFF
FFF0000000000FFF
FFF0000000000FFF
FFF0000000000FFF
FFF0000000000FFF
FFF0000000000FFF
FFF0000000000FFF
FFF0000000000FFF
FFF0000000000FFF
FFF0000000000FFF
FFF0000000000FFF
FFF0000000000FFF
FFF0000000000FFF
FFF0000000000FFF
FFF0000000000FFF
FFF0000000000FFF
FFF0000000000FFF
FFF0000000000FFF
FFF0000000000FFF
FFF0000000000FFF
FFF0000000000FFF
FFF0000000000FFF
FFF0000000000FFF
FFF0000000000FFF
FFF0000000000FFF
FFF0000000000FFF
FFF0000000000FFF
FFF0000000000FFF
FFF0000000000FFF
FFF0000000000FFF
FFF0000000000FFF
7FF0000000000FFE
7FF8000000001FFE
7FF8000000001FFE
3FFC000000003FFE
3FFC000000003FFC
3FFE000000007FFC
1FFFC0000001FFF8
0FFFFFFFFFFFFFF0
07FFFFFFFFFFFFE0
03FFFFFFFFFFFFC0
01FFFFFFFFFFFF80
003FFFFFFFFFFC00
0001FFFFFFFF8000
001FFFFFFFFFFC00
00FFFFFFFFFFFF00
01FFFFFFFFFFFFC0
07FFFFFFFFFFFFE0
0FFFFFFFFFFFFFF0
1FFF80000003FFF8
1FFE00000000FFF8
3FFC000000003FFC
3FFC000000003FFC
7FF8000000001FFE
7FF8000000001FFE
7FF0000000000FFE
7FF0000000000FFE
FFF0000000000FFF
FFF0000000000FFF
FFF0000000000FFF
FFF0000000000FFF
FFF0000000000FFF
FFF0000000000FFF
FFF0000000000FFF
FFF0000000000FFF
FFF0000000000FFF
FFF0000000000FFF
FFF0000000000FFF
FFF0000000000FFF
FFF0000000000FFF
FFF0000000000FFF
FFF0000000000FFF
FFF0000000000FFF
FFF0000000000FFF
FFF0000000000FFF
FFF0000000000FFF
FFF0000000000FFF
FFF0000000000FFF
FFF0000000000FFF
FFF0000000000FFF
FFF0000000000FFF
FFF0000000000FFF
FFF0000000000FFF
FFF0000000000FFF
FFF0000000000FFF
FFF0000000000FFF
FFF0000000000FFF
FFF0000000000FFF
FFF0000000000FFF
FFF0000000000FFF
FFF0000000000FFF
FFF0000000000FFF
FFF0000000000FFF
FFF8000000000FFF
FFF8000000001FFF
FFF8000000001FFF
FFFC000000003FFF
7FFE000000007FFE
7FFFC0000003FFFE
7FFFFFFFFFFFFFFE
3FFFFFFFFFFFFFFC
3FFFFFFFFFFFFFFC
1FFFFFFFFFFFFFF8
1FFFFFFFFFFFFFF8
0FFFFFFFFFFFFFF0
07FFFFFFFFFFFFE0
03FFFFFFFFFFFFC0
01FFFFFFFFFFFF80
007FFFFFFFFFFE00
0007FFFFFFFFE000
ENDCHAR
STARTCHAR 0039
ENCODING 57
SWIDTH 516 0
DWIDTH 93 0
BBX 63 126 14 0
BITMAP
0007FFFFFFFFE000
007FFFFFFFFFFC00
01FFFFFFFFFFFF00
03FFFFFFFFFFFF80
07FFFFFFFFFFFFC0
0FFFFFFFFFFFFFE0
1FFFFFFFFFFFFFF0
1FFFFFFFFFFFFFF8
3FFFFFFFFFFFFFF8
3FFFFFFFFFFFFFFC
7FFFFFFFFFFFFFFC
7FFFFFFFFFFFFFFC
7FFF80000001FFFC
FFFE00000000FFFE
FFFE000000007FFE
FFFC000000003FFE
FFFC000000003FFE
FFF8000000001FFE
FFF8000000001FFE
FFF8000000001FFE
FFF8000000001FFE
FFF8000000001FFE
FFF8000000001FFE
FFF8000000001FFE
FFF8000000001FFE
FFF8000000001FFE
FFF8000000001FFE
FFF8000000001FFE
FFF8000000001FFE
FFF8000000001FFE
FFF8000000001FFE
FFF8000000001FFE
FFF8000000001FFE
FFF8000000001FFE
FFF8000000001FFE
FFF8000000001FFE
FFF8000000001FFE
FFF8000000001FFE
FFF8000000001FFE
FFF8000000001FFE
FFF8000000001FFE
FFF8000000001FFE
FFF8000000001FFE
FFF8000000001FFE
FFF8000000001FFE
FFF8000000001FFE
FFF8000000001FFE
FFF8000000001FFE
FFF8000000001FFE
FFF8000000001FFE
FFF8000000001FFE
FFFC000000001FFE
FFFC000000001FFE
FFFE000000001FFE
7FFF000000001FFE
7FFFC00000001FFE
7FFFFFFFFFFFFFFE
3FFFFFFFFFFFFFFE
3FFFFFFFFFFFFFFE
1FFFFFFFFFFFFFFE
1FFFFFFFFFFFFFFE
0FFFFFFFFFFFFFFE
07FFFFFFFFFFFFFE
03FFFFFFFFFFFFFE
01FFFFFFFFFFFFFE
007FFFFFFFFFFFFE
0007FFFFFFFFFFFE
0000000000001FFE
0000000000001FFE
0000000000001FFE
0000000000001FFE
0000000000001FFE
0000000000001FFE
0000000000001FFE
0000000000001FFE
0000000000001FFE
0000000000001FFE
0000000000001FFE
0000000000001FFE
0000000000001FFE
0000000000001FFE
0000000000001FFE
0000000000001FFE
0000000000001FFE
0000000000001FFE
0000000000001FFE
0000000000001FFE
0000000000001FFE
0000000000001FFE
0000000000001FFE
0000000000001FFE
0000000000001FFE
0000000000001FFE
0000000000001FFE
0000000000001FFE
0000000000001FFE
0000000000001FFE
0000000000001FFE
0000000000001FFE
0000000000001FFE
0000000000001FFE
0000000000001FFE
0000000000001FFE
0000000000001FFE
0000000000001FFE
0000000000001FFE
0000000000001FFE
0000000000001FFE
0000000000001FFE
0000000000003FFE
0000000000003FFE
0000000000007FFE
000000000000FFFE
000000000001FFFC
FFFFFFFFFFFFFFFC
FFFFFFFFFFFFFFFC
FFFFFFFFFFFFFFF8
FFFFFFFFFFFFFFF8
FFFFFFFFFFFFFFF0
FFFFFFFFFFFFFFF0
FFFFFFFFFFFFFFE0
FFFFFFFFFFFFFFC0
FFFFFFFFFFFFFF80
FFFFFFFFFFFFFF00
FFFFFFFFFFFFFC00
FFFFFFFFFFFFC000
ENDCHAR
STARTCHAR 003A
ENCODING 58
SWIDTH 200 0
DWIDTH 36 0
BBX 14 90 11 0
BITMAP
FFFC
FFFC
FFFC
FFFC
FFFC
FFFC
FFFC
FFFC
FFFC
FFFC
FFFC
FFFC
FFFC
FFFC
0000
0000
0000
0000
0000
0000
0000
0000
0000
0000
0000
0000
0000
0000
0000
0000
0000
0000
0000
0000
0000
0000
0000
0000
0000
0000
0000
0000
0000
0000
0000
0000
0000
0000
0000
0000
0000
0000
0000
0000
0000
0000
0000
0000
0000
0000
0000
0000
0000
0000
0000
0000
0000
0000
0000
0000
0000
0000
0000
0000
0000
0000
FFFC
FFFC
FFFC
FFFC
FFFC
FFFC
FFFC
FFFC
FFFC
FFFC
FFFC
FFFC
FFFC
FFFC
ENDCHAR
STARTCHAR 003B
ENCODING 59
SWIDTH 205 0
DWIDTH 37 0
BBX 21 116 5 -26
BITMAP
01FFF8
01FFF8
01FFF8
01FFF8
01FFF8
01FFF8
01FFF8
01FFF8
01FFF8
01FFF8
01FFF8
01FFF8
01FFF8
01FFF8
000000
000000
000000
000000
000000
000000
000000
000000
000000
000000
000000
000000
000000
000000
000000
000000
000000
000000
000000
000000
000000
000000
000000
000000
000000
000000
000000
000000
000000
000000
000000
000000
000000
000000
000000
000000
000000
000000
000000
000000
000000
000000
000000
000000
000000
000000
000000
000000
000000
000000
000000
000000
000000
000000
000000
000000
000000
000000
000000
000000
000000
000000
01FFF8
01FFF8
01FFF8
01FFF8
01FFF8
01FFF8
01FFF8
01FFF8
01FFF8
01FFF8
01FFF8
01FFF8
01FFF8
01FFF8
01FFF8
01FFF8
03FFF0
03FFF0
03FFF0
03FFE0
07FFE0
07FFC0
07FFC0
07FFC0
0FFF80
0FFF80
0FFF80
0FFF00
1FFF00
1FFE00
1FFE00
1FFE00
3FFC00
3FFC00
3FFC00
7FF800
7FF800
7FF000
7FF000
FFF000
ENDCHAR
STARTCHAR 003C
ENCODING 60
SWIDTH 461 0
DWIDTH 83 0
BBX 63 78 10 20
BITMAP
0000000000000002
000000000000000E
000000000000003E
00000000000000FE
00000000000003FE
00000000000007FE
0000000000001FFE
0000000000007FFE
000000000001FFFE
000000000007FFFE
00000000001FFFFE
00000000003FFFF8
0000000000FFFFE0
0000000003FFFF80
000000000FFFFF00
000000003FFFFC00
000000007FFFF000
00000001FFFFE000
00000007FFFF8000
0000001FFFFE0000
0000007FFFF80000
000001FFFFF00000
000003FFFFC00000
00000FFFFF000000
00003FFFFE000000
0000FFFFF8000000
0003FFFFE0000000
0007FFFF80000000
001FFFFF00000000
007FFFFC00000000
01FFFFF000000000
07FFFFE000000000
1FFFFF8000000000
3FFFFE0000000000
FFFFF80000000000
FFFFF00000000000
FFFFC00000000000
FFFF000000000000
FFFE000000000000
FFFF000000000000
FFFFC00000000000
FFFFF00000000000
FFFFF80000000000
FFFFFE0000000000
3FFFFF8000000000
0FFFFFC000000000
03FFFFF000000000
00FFFFFC00000000
007FFFFF00000000
001FFFFF80000000
0007FFFFE0000000
0001FFFFF8000000
00007FFFFC000000
00003FFFFF000000
00000FFFFFC00000
000003FFFFF00000
000000FFFFF80000
0000003FFFFE0000
0000000FFFFF8000
00000007FFFFC000
00000001FFFFF000
000000007FFFFC00
000000001FFFFE00
0000000007FFFF80
0000000001FFFFE0
0000000000FFFFF8
00000000003FFFFC
00000000000FFFFE
000000000003FFFE
000000000000FFFE
0000000000007FFE
0000000000001FFE
00000000000007FE
00000000000001FE
000000000000007E
000000000000001E
000000000000000E
0000000000000002
ENDCHAR
STARTCHAR 003D
ENCODING 61
SWIDTH 461 0
DWIDTH 83 0
BBX 63 48 10 30
BITMAP
FFFFFFFFFFFFFFFE
FFFFFFFFFFFFFFFE
FFFFFFFFFFFFFFFE
FFFFFFFFFFFFFFFE
FFFFFFFFFFFFFFFE
FFFFFFFFFFFFFFFE
FFFFFFFFFFFFFFFE
FFFFFFFFFFFFFFFE
FFFFFFFFFFFFFFFE
FFFFFFFFFFFFFFFE
0000000000000000
0000000000000000
0000000000000000
0000000000000000
0000000000000000
0000000000000000
0000000000000000
0000000000000000
0000000000000000
0000000000000000
0000000000000000
0000000000000000
0000000000000000
0000000000000000
0000000000000000
0000000000000000
0000000000000000
0000000000000000
0000000000000000
0000000000000000
0000000000000000
0000000000000000
0000000000000000
0000000000000000
0000000000000000
0000000000000000
0000000000000000
0000000000000000
FFFFFFFFFFFFFFFE
FFFFFFFFFFFFFFFE
FFFFFFFFFFFFFFFE
FFFFFFFFFFFFFFFE
FFFFFFFFFFFFFFFE
FFFFFFFFFFFFFFFE
FFFFFFFFFFFFFFFE
FFFFFFFFFFFFFFFE
FFFFFFFFFFFFFFFE
FFFFFFFFFFFFFFFE
ENDCHAR
STARTCHAR 003E
ENCODING 62
SWIDTH 461 0
DWIDTH 83 0
BBX 63 78 10 20
BITMAP
8000000000000000
E000000000000000
F800000000000000
FE00000000000000
FF80000000000000
FFC0000000000000
FFF0000000000000
FFFC000000000000
FFFF000000000000
FFFFC00000000000
FFFFF00000000000
7FFFF80000000000
1FFFFE0000000000
07FFFF8000000000
03FFFFE000000000
00FFFFF800000000
003FFFFC00000000
001FFFFF00000000
0007FFFFC0000000
0001FFFFF0000000
00007FFFFC000000
00003FFFFF000000
00000FFFFF800000
000003FFFFE00000
000001FFFFF80000
0000007FFFFE0000
0000001FFFFF8000
0000000FFFFFE000
00000003FFFFF000
00000000FFFFFC00
000000003FFFFF00
000000001FFFFFC0
0000000007FFFFF0
0000000001FFFFF8
0000000000FFFFFE
00000000003FFFFE
00000000000FFFFE
000000000003FFFE
000000000001FFFE
000000000000FFFE
000000000003FFFE
000000000007FFFE
00000000001FFFFE
00000000007FFFFE
0000000001FFFFF8
0000000003FFFFE0
000000000FFFFF80
000000003FFFFE00
000000007FFFFC00
00000001FFFFF000
00000007FFFFC000
0000001FFFFF0000
0000003FFFFC0000
000000FFFFF80000
000003FFFFE00000
000007FFFF800000
00001FFFFE000000
00007FFFF8000000
0001FFFFE0000000
0003FFFFC0000000
000FFFFF00000000
003FFFFC00000000
007FFFF000000000
01FFFFC000000000
07FFFF0000000000
1FFFFE0000000000
3FFFF80000000000
FFFFE00000000000
FFFF800000000000
FFFE000000000000
FFFC000000000000
FFF0000000000000
FFC0000000000000
FF00000000000000
FC00000000000000
F000000000000000
E000000000000000
8000000000000000
ENDCHAR
STARTCHAR 003F
ENCODING 63
SWIDTH 405 0
DWIDTH 73 0
BBX 58 126 9 0
BITMAP
FFFFFFFFFFFE0000
FFFFFFFFFFFFC000
FFFFFFFFFFFFF000
FFFFFFFFFFFFF800
FFFFFFFFFFFFFC00
FFFFFFFFFFFFFE00
FFFFFFFFFFFFFF00
FFFFFFFFFFFFFF00
FFFFFFFFFFFFFF80
FFFFFFFFFFFFFF80
FFFFFFFFFFFFFF80
E000000000FFFFC0
00000000001FFFC0
00000000000FFFC0
000000000007FFC0
000000000007FFC0
000000000003FFC0
000000000003FFC0
000000000003FFC0
000000000003FFC0
000000000003FFC0
000000000003FFC0
000000000003FFC0
000000000003FFC0
000000000003FFC0
000000000003FFC0
000000000003FFC0
000000000003FFC0
000000000007FFC0
000000000007FF80
00000000000FFF80
00000000000FFF80
00000000001FFF00
00000000003FFF00
00000000007FFF00
0000000000FFFE00
0000000001FFFC00
0000000003FFFC00
000000000FFFF800
000000001FFFF000
000000003FFFE000
000000007FFFC000
00000000FFFF8000
00000001FFFF0000
00000003FFFE0000
00000007FFFC0000
0000000FFFF80000
0000001FFFF00000
0000003FFFE00000
0000007FFFC00000
000000FFFF800000
000001FFFF000000
000003FFFE000000
000003FFFC000000
000007FFF8000000
000007FFF0000000
00000FFFE0000000
00000FFFE0000000
00001FFFC0000000
00001FFF80000000
00001FFF80000000
00003FFF80000000
00003FFF00000000
00003FFF00000000
00003FFF00000000
00003FFF00000000
00003FFF00000000
00003FFF00000000
00003FFF00000000
00003FFF00000000
00003FFF00000000
00003FFF00000000
00003FFF00000000
00003FFF00000000
00003FFF00000000
00003FFF00000000
00003FFF00000000
00003FFF00000000
00003FFF00000000
00003FFF00000000
00003FFF00000000
00003FFF00000000
00003FFF00000000
00003FFF00000000
00003FFF00000000
00003FFF00000000
00003FFF00000000
00003FFF00000000
00003FFF00000000
00003FFF00000000
00003FFF00000000
00003FFF00000000
00003FFF00000000
00003FFF00000000
00003FFF00000000
00003FFF00000000
00003FFF00000000
00003FFF00000000
00003FFF00000000
0000000000000000
0000000000000000
0000000000000000
0000000000000000
0000000000000000
0000000000000000
0000000000000000
0000000000000000
0000000000000000
0000000000000000
0000000000000000
0000000000000000
0000000000000000
00003FFF00000000
00003FFF00000000
00003FFF00000000
00003FFF00000000
00003FFF00000000
00003FFF00000000
00003FFF00000000
00003FFF00000000
00003FFF00000000
00003FFF00000000
00003FFF00000000
00003FFF00000000
00003FFF00000000
00003FFF00000000
ENDCHAR
STARTCHAR 0040
ENCODING 64
SWIDTH 733 0
DWIDTH 132 0
BBX 107 126 15 -19
BITMAP
0007FFFFFFFFFFFF000000000000
003FFFFFFFFFFFFFF00000000000
00FFFFFFFFFFFFFFFC0000000000
03FFFFFFFFFFFFFFFE0000000000
07FFFFFFFFFFFFFFFF0000000000
0FFFFFFFFFFFFFFFFF8000000000
1FFFFFFFFFFFFFFFFFC000000000
1FFFFFFFFFFFFFFFFFC000000000
3FFFFFFFFFFFFFFFFFE000000000
3FFFFFFFFFFFFFFFFFE000000000
7FFFFFFFFFFFFFFFFFF000000000
7FFF000000000007FFF000000000
7FFC000000000001FFF000000000
FFF8000000000000FFF800000000
FFF00000000000007FF800000000
FFF00000000000007FF800000000
FFE00000000000003FF800000000
FFE00000000000003FF800000000
FFE00000000000003FF800000000
FFE00000000000003FF800000000
FFE00000000000003FF800000000
FFE00000000000003FF800000000
FFE00000000000003FF800000000
FFE00000000000003FF800000000
FFE00000000000003FF800000000
FFE00000000000003FF800000000
FFE00000000000003FF800000000
FFE00000000000003FF800000000
FFE00000000000003FF800000000
FFE00000000000003FF800000000
FFE00000000000003FF800000000
FFE00000000000003FF800000000
FFE00000000000003FF800000000
FFE00000000000003FF800000000
FFE0000000FFFFFFFFF80000FFE0
FFE0000007FFFFFFFFF80000FFE0
FFE000001FFFFFFFFFF80000FFE0
FFE000003FFFFFFFFFF80000FFE0
FFE000007FFFFFFFFFF80000FFE0
FFE00000FFFFFFFFFFF80000FFE0
FFE00001FFFFFFFFFFF80000FFE0
FFE00001FFFFFFFFFFF80000FFE0
FFE00003FFFFFFFFFFF80000FFE0
FFE00003FFF800003FF80000FFE0
FFE00003FFE000003FF80000FFE0
FFE00007FFC000003FF80000FFE0
FFE00007FF8000003FF80000FFE0
FFE00007FF8000003FF80000FFE0
FFE00007FF0000003FF80000FFE0
FFE00007FF0000003FF80000FFE0
FFE00007FF0000003FF80000FFE0
FFE00007FF0000003FF80000FFE0
FFE00007FF0000003FF80000FFE0
FFE00007FF0000003FF80000FFE0
FFE00007FF0000003FF80000FFE0
FFE00007FF0000003FF80000FFE0
FFE00007FF0000003FF80000FFE0
FFE00007FF0000003FF80000FFE0
FFE00007FF0000003FF80000FFE0
FFE00007FF0000003FF80000FFE0
FFE00007FF0000003FF80000FFE0
FFE00007FF0000003FF80000FFE0
FFE00007FF0000003FF80000FFE0
FFE00007FF0000003FF80000FFE0
FFE00007FF0000003FF80000FFE0
FFE00007FF0000003FF80000FFE0
FFE00007FF0000003FF80000FFE0
FFE00007FF0000003FF80000FFE0
FFE00007FF0000003FF80000FFE0
FFE00007FF0000003FF80000FFE0
FFE00007FF0000003FF80000FFE0
FFE00007FF0000003FF80000FFE0
FFE00007FF0000003FF80000FFE0
FFE00007FF0000003FF80000FFE0
FFE00007FF0000003FF80000FFE0
FFE00007FF0000003FF80000FFE0
FFE00007FF8000003FF80000FFE0
FFE00007FF8000003FF80000FFE0
FFE00007FF8000003FF80000FFE0
FFE00007FFC000003FF80000FFE0
FFE00007FFE000003FF80000FFE0
FFE00003FFF800003FF80000FFE0
FFE00003FFFFFFFFFFF80000FFE0
FFE00003FFFFFFFFFFF80000FFE0
FFE00001FFFFFFFFFFF80000FFE0
FFE00001FFFFFFFFFFF80000FFE0
FFE00000FFFFFFFFFFF80000FFE0
FFE000007FFFFFFFFFF80000FFE0
FFE000003FFFFFFFFFF80000FFE0
FFE000001FFFFFFFFFF80000FFE0
FFE0000007FFFFFFFFF80000FFE0
FFE0000000FFFFFFFFF80000FFE0
FFE000000000000000000000FFE0
FFE000000000000000000000FFE0
FFE000000000000000000000FFE0
FFE000000000000000000000FFE0
FFE000000000000000000000FFE0
FFE000000000000000000000FFE0
FFE000000000000000000000FFE0
FFE000000000000000000000FFE0
FFE000000000000000000000FFE0
FFE000000000000000000000FFE0
FFE000000000000000000000FFE0
FFE000000000000000000000FFE0
FFE000000000000000000000FFE0
FFE000000000000000000000FFE0
FFE000000000000000000000FFE0
FFE000000000000000000000FFE0
FFE000000000000000000000FFE0
FFE000000000000000000000FFE0
FFF000000000000000000001FFE0
FFF000000000000000000001FFE0
FFF800000000000000000003FFE0
7FFC00000000000000000007FFC0
7FFF0000000000000000001FFFC0
7FFFFFFFFFFFFFFFFFFFFFFFFFC0
3FFFFFFFFFFFFFFFFFFFFFFFFF80
3FFFFFFFFFFFFFFFFFFFFFFFFF80
1FFFFFFFFFFFFFFFFFFFFFFFFF00
1FFFFFFFFFFFFFFFFFFFFFFFFF00
0FFFFFFFFFFFFFFFFFFFFFFFFE00
07FFFFFFFFFFFFFFFFFFFFFFFC00
03FFFFFFFFFFFFFFFFFFFFFFF800
01FFFFFFFFFFFFFFFFFFFFFFE000
007FFFFFFFFFFFFFFFFFFFFF8000
0007FFFFFFFFFFFFFFFFFFFC0000
ENDCHAR
STARTCHAR 0041
ENCODING 65
SWIDTH 500 0
DWIDTH 90 0
BBX 87 126 2 1
BITMAP
000000001FFFF000000000
000000001FFFF800000000
000000001FFFF800000000
000000003FFFF800000000
000000003FFFFC00000000
000000003FFFFC00000000
000000003FFFFC00000000
000000007FFFFC00000000
000000007FFFFE00000000
000000007FFFFE00000000
00000000FFFFFE00000000
00000000FFFFFF00000000
00000000FFFFFF00000000
00000000FFFFFF00000000
00000001FFFFFF00000000
00000001FFFFFF80000000
00000001FFEFFF80000000
00000003FFEFFF80000000
00000003FFCFFF80000000
00000003FFC7FFC0000000
00000003FFC7FFC0000000
00000007FFC7FFC0000000
00000007FF87FFE0000000
00000007FF83FFE0000000
00000007FF83FFE0000000
0000000FFF03FFE0000000
0000000FFF03FFF0000000
0000000FFF01FFF0000000
0000001FFF01FFF0000000
0000001FFE01FFF0000000
0000001FFE01FFF8000000
0000001FFE00FFF8000000
0000003FFE00FFF8000000
0000003FFC00FFFC000000
0000003FFC007FFC000000
0000007FFC007FFC000000
0000007FF8007FFC000000
0000007FF8007FFE000000
0000007FF8003FFE000000
000000FFF8003FFE000000
000000FFF0003FFE000000
000000FFF0003FFF000000
000001FFF0001FFF000000
000001FFF0001FFF000000
000001FFE0001FFF800000
000001FFE0001FFF800000
000003FFE0000FFF800000
000003FFC0000FFF800000
000003FFC0000FFFC00000
000007FFC00007FFC00000
000007FFC00007FFC00000
000007FF800007FFE00000
000007FF800007FFE00000
00000FFF800003FFE00000
00000FFF800003FFE00000
00000FFF000003FFF00000
00000FFF000003FFF00000
00001FFF000001FFF00000
00001FFF000001FFF00000
00001FFE000001FFF80000
00003FFE000000FFF80000
00003FFE000000FFF80000
00003FFC000000FFFC0000
00003FFC000000FFFC0000
00007FFC0000007FFC0000
00007FFC0000007FFC0000
00007FF80000007FFE0000
0000FFF80000007FFE0000
0000FFF80000003FFE0000
0000FFF80000003FFE0000
0000FFF00000003FFF0000
0001FFF00000003FFF0000
0001FFF00000001FFF0000
0001FFE00000001FFF8000
0003FFE00000001FFF8000
0003FFE00000000FFF8000
0003FFE00000000FFF8000
0003FFC00000000FFFC000
0007FFC00000000FFFC000
0007FFC000000007FFC000
0007FFC000000007FFC000
0007FF8000000007FFE000
000FFF8000000007FFE000
000FFF8000000003FFE000
000FFFFFFFFFFFFFFFF000
001FFFFFFFFFFFFFFFF000
001FFFFFFFFFFFFFFFF000
001FFFFFFFFFFFFFFFF000
001FFFFFFFFFFFFFFFF800
003FFFFFFFFFFFFFFFF800
003FFFFFFFFFFFFFFFF800
003FFFFFFFFFFFFFFFFC00
007FFFFFFFFFFFFFFFFC00
007FFFFFFFFFFFFFFFFC00
007FFE0000000000FFFC00
007FFC0000000000FFFE00
00FFFC0000000000FFFE00
00FFFC00000000007FFE00
00FFFC00000000007FFE00
01FFF800000000007FFF00
01FFF800000000007FFF00
01FFF800000000003FFF00
01FFF800000000003FFF80
03FFF000000000003FFF80
03FFF000000000003FFF80
03FFF000000000001FFF80
07FFF000000000001FFFC0
07FFE000000000001FFFC0
07FFE000000000000FFFC0
07FFE000000000000FFFC0
0FFFC000000000000FFFE0
0FFFC000000000000FFFE0
0FFFC0000000000007FFE0
0FFFC0000000000007FFF0
1FFF80000000000007FFF0
1FFF80000000000007FFF0
1FFF80000000000003FFF0
3FFF80000000000003FFF8
3FFF00000000000003FFF8
3FFF00000000000003FFF8
3FFF00000000000001FFF8
7FFF00000000000001FFFC
7FFE00000000000001FFFC
7FFE00000000000000FFFC
FFFE00000000000000FFFE
FFFE00000000000000FFFE
ENDCHAR
STARTCHAR 0042
ENCODING 66
SWIDTH 555 0
DWIDTH 100 0
BBX 72 126 13 0
BITMAP
FFFFFFFFFFFFFFE000
FFFFFFFFFFFFFFFC00
FFFFFFFFFFFFFFFF00
FFFFFFFFFFFFFFFFC0
FFFFFFFFFFFFFFFFE0
FFFFFFFFFFFFFFFFF0
FFFFFFFFFFFFFFFFF0
FFFFFFFFFFFFFFFFF8
FFFFFFFFFFFFFFFFFC
FFFFFFFFFFFFFFFFFC
FFFFFFFFFFFFFFFFFE
FFF80000000007FFFE
FFF80000000000FFFE
FFF800000000007FFE
FFF800000000003FFF
FFF800000000003FFF
FFF800000000001FFF
FFF800000000001FFF
FFF800000000001FFF
FFF800000000001FFF
FFF800000000001FFF
FFF800000000001FFF
FFF800000000001FFF
FFF800000000001FFF
FFF800000000001FFF
FFF800000000001FFF
FFF800000000001FFF
FFF800000000001FFF
FFF800000000001FFF
FFF800000000001FFF
FFF800000000001FFF
FFF800000000001FFF
FFF800000000001FFF
FFF800000000001FFF
FFF800000000001FFF
FFF800000000001FFF
FFF800000000001FFF
FFF800000000001FFF
FFF800000000001FFF
FFF800000000001FFF
FFF800000000001FFF
FFF800000000001FFF
FFF800000000001FFF
FFF800000000001FFF
FFF800000000001FFF
FFF800000000001FFF
FFF800000000001FFF
FFF800000000001FFF
FFF800000000001FFF
FFF800000000003FFF
FFF800000000003FFF
FFF800000000003FFE
FFF800000000007FFE
FFF80000000000FFFE
FFF80000000003FFFE
FFFFFFFFFFFFFFFFFC
FFFFFFFFFFFFFFFFFC
FFFFFFFFFFFFFFFFF8
FFFFFFFFFFFFFFFFF0
FFFFFFFFFFFFFFFFE0
FFFFFFFFFFFFFFFFF0
FFFFFFFFFFFFFFFFF8
FFFFFFFFFFFFFFFFF8
FFFFFFFFFFFFFFFFFC
FFFFFFFFFFFFFFFFFC
FFF80000000003FFFE
FFF80000000000FFFE
FFF800000000007FFE
FFF800000000007FFE
FFF800000000003FFF
FFF800000000003FFF
FFF800000000001FFF
FFF800000000001FFF
FFF800000000001FFF
FFF800000000001FFF
FFF800000000001FFF
FFF800000000001FFF
FFF800000000001FFF
FFF800000000001FFF
FFF800000000001FFF
FFF800000000001FFF
FFF800000000001FFF
FFF800000000001FFF
FFF800000000001FFF
FFF800000000001FFF
FFF800000000001FFF
FFF800000000001FFF
FFF800000000001FFF
FFF800000000001FFF
FFF800000000001FFF
FFF800000000001FFF
FFF800000000001FFF
FFF800000000001FFF
FFF800000000001FFF
FFF800000000001FFF
FFF800000000001FFF
FFF800000000001FFF
FFF800000000001FFF
FFF800000000001FFF
FFF800000000001FFF
FFF800000000001FFF
FFF800000000001FFF
FFF800000000001FFF
FFF800000000001FFF
FFF800000000001FFF
FFF800000000001FFF
FFF800000000001FFF
FFF800000000001FFF
FFF800000000001FFF
FFF800000000001FFF
FFF800000000003FFF
FFF800000000003FFF
FFF800000000007FFE
FFF80000000000FFFE
FFF80000000003FFFE
FFFFFFFFFFFFFFFFFE
FFFFFFFFFFFFFFFFFC
FFFFFFFFFFFFFFFFFC
FFFFFFFFFFFFFFFFF8
FFFFFFFFFFFFFFFFF0
FFFFFFFFFFFFFFFFF0
FFFFFFFFFFFFFFFFE0
FFFFFFFFFFFFFFFFC0
FFFFFFFFFFFFFFFF00
FFFFFFFFFFFFFFFC00
FFFFFFFFFFFFFFE000
ENDCHAR
STARTCHAR 0043
ENCODING 67
SWIDTH 477 0
DWIDTH 86 0
BBX 66 126 14 0
BITMAP
0007FFFFFFFFFFFFC0
007FFFFFFFFFFFFFC0
01FFFFFFFFFFFFFFC0
03FFFFFFFFFFFFFFC0
07FFFFFFFFFFFFFFC0
0FFFFFFFFFFFFFFFC0
1FFFFFFFFFFFFFFFC0
1FFFFFFFFFFFFFFFC0
3FFFFFFFFFFFFFFFC0
3FFFFFFFFFFFFFFFC0
7FFFFFFFFFFFFFFFC0
7FFFFFFFFFFFFFFFC0
7FFF00000000000040
FFFE00000000000000
FFFC00000000000000
FFF800000000000000
FFF800000000000000
FFF000000000000000
FFF000000000000000
FFF000000000000000
FFF000000000000000
FFF000000000000000
FFF000000000000000
FFF000000000000000
FFF000000000000000
FFF000000000000000
FFF000000000000000
FFF000000000000000
FFF000000000000000
FFF000000000000000
FFF000000000000000
FFF000000000000000
FFF000000000000000
FFF000000000000000
FFF000000000000000
FFF000000000000000
FFF000000000000000
FFF000000000000000
FFF000000000000000
FFF000000000000000
FFF000000000000000
FFF000000000000000
FFF000000000000000
FFF000000000000000
FFF000000000000000
FFF000000000000000
FFF000000000000000
FFF000000000000000
FFF000000000000000
FFF000000000000000
FFF000000000000000
FFF000000000000000
FFF000000000000000
FFF000000000000000
FFF000000000000000
FFF000000000000000
FFF000000000000000
FFF000000000000000
FFF000000000000000
FFF000000000000000
FFF000000000000000
FFF000000000000000
FFF000000000000000
FFF000000000000000
FFF000000000000000
FFF000000000000000
FFF000000000000000
FFF000000000000000
FFF000000000000000
FFF000000000000000
FFF000000000000000
FFF000000000000000
FFF000000000000000
FFF000000000000000
FFF000000000000000
FFF000000000000000
FFF000000000000000
FFF000000000000000
FFF000000000000000
FFF000000000000000
FFF000000000000000
FFF000000000000000
FFF000000000000000
FFF000000000000000
FFF000000000000000
FFF000000000000000
FFF000000000000000
FFF000000000000000
FFF000000000000000
FFF000000000000000
FFF000000000000000
FFF000000000000000
FFF000000000000000
FFF000000000000000
FFF000000000000000
FFF000000000000000
FFF000000000000000
FFF000000000000000
FFF000000000000000
FFF000000000000000
FFF000000000000000
FFF000000000000000
FFF000000000000000
FFF000000000000000
FFF000000000000000
FFF000000000000000
FFF000000000000000
FFF000000000000000
FFF000000000000000
FFF800000000000000
FFF800000000000000
FFFC00000000000000
FFFE00000000000000
7FFF00000000000040
7FFFFFFFFFFFFFFFC0
7FFFFFFFFFFFFFFFC0
3FFFFFFFFFFFFFFFC0
3FFFFFFFFFFFFFFFC0
1FFFFFFFFFFFFFFFC0
1FFFFFFFFFFFFFFFC0
0FFFFFFFFFFFFFFFC0
07FFFFFFFFFFFFFFC0
03FFFFFFFFFFFFFFC0
01FFFFFFFFFFFFFFC0
007FFFFFFFFFFFFFC0
0007FFFFFFFFFFFFC0
ENDCHAR
STARTCHAR 0044
ENCODING 68
SWIDTH 555 0
DWIDTH 100 0
BBX 72 126 14 0
BITMAP
FFFFFFFFFFFFFFE000
FFFFFFFFFFFFFFFE00
FFFFFFFFFFFFFFFF80
FFFFFFFFFFFFFFFFC0
FFFFFFFFFFFFFFFFE0
FFFFFFFFFFFFFFFFF0
FFFFFFFFFFFFFFFFF8
FFFFFFFFFFFFFFFFF8
FFFFFFFFFFFFFFFFFC
FFFFFFFFFFFFFFFFFC
FFFFFFFFFFFFFFFFFE
FFFFFFFFFFFFFFFFFE
FFF00000000001FFFE
FFF00000000000FFFF
FFF000000000007FFF
FFF000000000003FFF
FFF000000000003FFF
FFF000000000001FFF
FFF000000000001FFF
FFF000000000001FFF
FFF000000000001FFF
FFF000000000001FFF
FFF000000000001FFF
FFF000000000001FFF
FFF000000000001FFF
FFF000000000001FFF
FFF000000000001FFF
FFF000000000001FFF
FFF000000000001FFF
FFF000000000001FFF
FFF000000000001FFF
FFF000000000001FFF
FFF000000000001FFF
FFF000000000001FFF
FFF000000000001FFF
FFF000000000001FFF
FFF000000000001FFF
FFF000000000001FFF
FFF000000000001FFF
FFF000000000001FFF
FFF000000000001FFF
FFF000000000001FFF
FFF000000000001FFF
FFF000000000001FFF
FFF000000000001FFF
FFF000000000001FFF
FFF000000000001FFF
FFF000000000001FFF
FFF000000000001FFF
FFF000000000001FFF
FFF000000000001FFF
FFF000000000001FFF
FFF000000000001FFF
FFF000000000001FFF
FFF000000000001FFF
FFF000000000001FFF
FFF000000000001FFF
FFF000000000001FFF
FFF000000000001FFF
FFF000000000001FFF
FFF000000000001FFF
FFF000000000001FFF
FFF000000000001FFF
FFF000000000001FFF
FFF000000000001FFF
FFF000000000001FFF
FFF000000000001FFF
FFF000000000001FFF
FFF000000000001FFF
FFF000000000001FFF
FFF000000000001FFF
FFF000000000001FFF
FFF000000000001FFF
FFF000000000001FFF
FFF000000000001FFF
FFF000000000001FFF
FFF000000000001FFF
FFF000000000001FFF
FFF000000000001FFF
FFF000000000001FFF
FFF000000000001FFF
FFF000000000001FFF
FFF000000000001FFF
FFF000000000001FFF
FFF000000000001FFF
FFF000000000001FFF
FFF000000000001FFF
FFF000000000001FFF
FFF000000000001FFF
FFF000000000001FFF
FFF000000000001FFF
FFF000000000001FFF
FFF000000000001FFF
FFF000000000001FFF
FFF000000000001FFF
FFF000000000001FFF
FFF000000000001FFF
FFF000000000001FFF
FFF000000000001FFF
FFF000000000001FFF
FFF000000000001FFF
FFF000000000001FFF
FFF000000000001FFF
FFF000000000001FFF
FFF000000000001FFF
FFF000000000001FFF
FFF000000000001FFF
FFF000000000001FFF
FFF000000000001FFF
FFF000000000003FFF
FFF000000000003FFF
FFF000000000007FFF
FFF00000000000FFFF
FFF00000000001FFFE
FFFFFFFFFFFFFFFFFE
FFFFFFFFFFFFFFFFFE
FFFFFFFFFFFFFFFFFC
FFFFFFFFFFFFFFFFFC
FFFFFFFFFFFFFFFFF8
FFFFFFFFFFFFFFFFF8
FFFFFFFFFFFFFFFFF0
FFFFFFFFFFFFFFFFE0
FFFFFFFFFFFFFFFFC0
FFFFFFFFFFFFFFFF00
FFFFFFFFFFFFFFFC00
FFFFFFFFFFFFFFE000
ENDCHAR
STARTCHAR 0045
ENCODING 69
SWIDTH 477 0
DWIDTH 86 0
BBX 67 126 14 0
BITMAP
FFFFFFFFFFFFFFFE00
FFFFFFFFFFFFFFFE00
FFFFFFFFFFFFFFFE00
FFFFFFFFFFFFFFFE00
FFFFFFFFFFFFFFFE00
FFFFFFFFFFFFFFFE00
FFFFFFFFFFFFFFFE00
FFFFFFFFFFFFFFFE00
FFFFFFFFFFFFFFFE00
FFFFFFFFFFFFFFFE00
FFFFFFFFFFFFFFFE00
FFF000000000000600
FFF000000000000000
FFF000000000000000
FFF000000000000000
FFF000000000000000
FFF000000000000000
FFF000000000000000
FFF000000000000000
FFF000000000000000
FFF000000000000000
FFF000000000000000
FFF000000000000000
FFF000000000000000
FFF000000000000000
FFF000000000000000
FFF000000000000000
FFF000000000000000
FFF000000000000000
FFF000000000000000
FFF000000000000000
FFF000000000000000
FFF000000000000000
FFF000000000000000
FFF000000000000000
FFF000000000000000
FFF000000000000000
FFF000000000000000
FFF000000000000000
FFF000000000000000
FFF000000000000000
FFF000000000000000
FFF000000000000000
FFF000000000000000
FFF000000000000000
FFF000000000000000
FFF000000000000000
FFF000000000000000
FFF000000000000000
FFF000000000000000
FFF000000000000000
FFF000000000000000
FFF000000000000000
FFF000000000000000
FFFFFFFFFFFFFC0000
FFFFFFFFFFFFFC0000
FFFFFFFFFFFFFC0000
FFFFFFFFFFFFFC0000
FFFFFFFFFFFFFC0000
FFFFFFFFFFFFFC0000
FFFFFFFFFFFFFC0000
FFFFFFFFFFFFFC0000
FFFFFFFFFFFFFC0000
FFFFFFFFFFFFFC0000
FFFFFFFFFFFFFC0000
FFF000000000040000
FFF000000000000000
FFF000000000000000
FFF000000000000000
FFF000000000000000
FFF000000000000000
FFF000000000000000
FFF000000000000000
FFF000000000000000
FFF000000000000000
FFF000000000000000
FFF000000000000000
FFF000000000000000
FFF000000000000000
FFF000000000000000
FFF000000000000000
FFF000000000000000
FFF000000000000000
FFF000000000000000
FFF000000000000000
FFF000000000000000
FFF000000000000000
FFF000000000000000
FFF000000000000000
FFF000000000000000
FFF000000000000000
FFF000000000000000
FFF000000000000000
FFF000000000000000
FFF000000000000000
FFF000000000000000
FFF000000000000000
FFF000000000000000
FFF000000000000000
FFF000000000000000
FFF000000000000000
FFF000000000000000
FFF000000000000000
FFF000000000000000
FFF000000000000000
FFF000000000000000
FFF000000000000000
FFF000000000000000
FFF000000000000000
FFF000000000000000
FFF000000000000000
FFF000000000000000
FFF000000000000000
FFF000000000000000
FFF000000000000060
FFFFFFFFFFFFFFFFE0
FFFFFFFFFFFFFFFFE0
FFFFFFFFFFFFFFFFE0
FFFFFFFFFFFFFFFFE0
FFFFFFFFFFFFFFFFE0
FFFFFFFFFFFFFFFFE0
FFFFFFFFFFFFFFFFE0
FFFFFFFFFFFFFFFFE0
FFFFFFFFFFFFFFFFE0
FFFFFFFFFFFFFFFFE0
FFFFFFFFFFFFFFFFE0
ENDCHAR
STARTCHAR 0046
ENCODING 70
SWIDTH 444 0
DWIDTH 80 0
BBX 63 126 14 0
BITMAP
FFFFFFFFFFFFFFFE
FFFFFFFFFFFFFFFE
FFFFFFFFFFFFFFFE
FFFFFFFFFFFFFFFE
FFFFFFFFFFFFFFFE
FFFFFFFFFFFFFFFE
FFFFFFFFFFFFFFFE
FFFFFFFFFFFFFFFE
FFFFFFFFFFFFFFFE
FFFFFFFFFFFFFFFE
FFFFFFFFFFFFFFFE
FFF0000000000006
FFF0000000000000
FFF0000000000000
FFF0000000000000
FFF0000000000000
FFF0000000000000
FFF0000000000000
FFF0000000000000
FFF0000000000000
FFF0000000000000
FFF0000000000000
FFF0000000000000
FFF0000000000000
FFF0000000000000
FFF0000000000000
FFF0000000000000
FFF0000000000000
FFF0000000000000
FFF0000000000000
FFF0000000000000
FFF0000000000000
FFF0000000000000
FFF0000000000000
FFF0000000000000
FFF0000000000000
FFF0000000000000
FFF0000000000000
FFF0000000000000
FFF0000000000000
FFF0000000000000
FFF0000000000000
FFF0000000000000
FFF0000000000000
FFF0000000000000
FFF0000000000000
FFF0000000000000
FFF0000000000000
FFF0000000000000
FFF0000000000000
FFF0000000000000
FFF0000000000000
FFF0000000000000
FFF0000000000000
FFFFFFFFFFFFFC00
FFFFFFFFFFFFFC00
FFFFFFFFFFFFFC00
FFFFFFFFFFFFFC00
FFFFFFFFFFFFFC00
FFFFFFFFFFFFFC00
FFFFFFFFFFFFFC00
FFFFFFFFFFFFFC00
FFFFFFFFFFFFFC00
FFFFFFFFFFFFFC00
FFFFFFFFFFFFFC00
FFF0000000000400
FFF0000000000000
FFF0000000000000
FFF0000000000000
FFF0000000000000
FFF0000000000000
FFF0000000000000
FFF0000000000000
FFF0000000000000
FFF0000000000000
FFF0000000000000
FFF0000000000000
FFF0000000000000
FFF0000000000000
FFF0000000000000
FFF0000000000000
FFF0000000000000
FFF0000000000000
FFF0000000000000
FFF0000000000000
FFF0000000000000
FFF0000000000000
FFF0000000000000
FFF0000000000000
FFF0000000000000
FFF0000000000000
FFF0000000000000
FFF0000000000000
FFF0000000000000
FFF0000000000000
FFF0000000000000
FFF0000000000000
FFF0000000000000
FFF0000000000000
FFF0000000000000
FFF0000000000000
FFF0000000000000
FFF0000000000000
FFF0000000000000
FFF0000000000000
FFF0000000000000
FFF0000000000000
FFF0000000000000
FFF0000000000000
FFF0000000000000
FFF0000000000000
FFF0000000000000
FFF0000000000000
FFF0000000000000
FFF0000000000000
FFF0000000000000
FFF0000000000000
FFF0000000000000
FFF0000000000000
FFF0000000000000
FFF0000000000000
FFF0000000000000
FFF0000000000000
FFF0000000000000
FFF0000000000000
FFF0000000000000
ENDCHAR
STARTCHAR 0047
ENCODING 71
SWIDTH 550 0
DWIDTH 99 0
BBX 72 126 14 0
BITMAP
0007FFFFFFFFFFFFFF
003FFFFFFFFFFFFFFF
00FFFFFFFFFFFFFFFF
03FFFFFFFFFFFFFFFF
07FFFFFFFFFFFFFFFF
0FFFFFFFFFFFFFFFFF
1FFFFFFFFFFFFFFFFF
1FFFFFFFFFFFFFFFFF
3FFFFFFFFFFFFFFFFF
3FFFFFFFFFFFFFFFFF
7FFFFFFFFFFFFFFFFF
7FFFFFFFFFFFFFFFFF
7FFF00000000000003
FFFE00000000000000
FFFC00000000000000
FFF800000000000000
FFF800000000000000
FFF000000000000000
FFF000000000000000
FFF000000000000000
FFF000000000000000
FFF000000000000000
FFF000000000000000
FFF000000000000000
FFF000000000000000
FFF000000000000000
FFF000000000000000
FFF000000000000000
FFF000000000000000
FFF000000000000000
FFF000000000000000
FFF000000000000000
FFF000000000000000
FFF000000000000000
FFF000000000000000
FFF000000000000000
FFF000000000000000
FFF000000000000000
FFF000000000000000
FFF000000000000000
FFF000000000000000
FFF000000000000000
FFF000000000000000
FFF000000000000000
FFF000000000000000
FFF000000000000000
FFF000000000000000
FFF000000000000000
FFF000000000000000
FFF000000000000000
FFF000000000000000
FFF000000000000000
FFF000000000000000
FFF000002000000000
FFF000003FFFFFFFFF
FFF000003FFFFFFFFF
FFF000003FFFFFFFFF
FFF000003FFFFFFFFF
FFF000003FFFFFFFFF
FFF000003FFFFFFFFF
FFF000003FFFFFFFFF
FFF000003FFFFFFFFF
FFF000003FFFFFFFFF
FFF000003FFFFFFFFF
FFF000003FFFFFFFFF
FFF000002000001FFF
FFF000000000001FFF
FFF000000000001FFF
FFF000000000001FFF
FFF000000000001FFF
FFF000000000001FFF
FFF000000000001FFF
FFF000000000001FFF
FFF000000000001FFF
FFF000000000001FFF
FFF000000000001FFF
FFF000000000001FFF
FFF000000000001FFF
FFF000000000001FFF
FFF000000000001FFF
FFF000000000001FFF
FFF000000000001FFF
FFF000000000001FFF
FFF000000000001FFF
FFF000000000001FFF
FFF000000000001FFF
FFF000000000001FFF
FFF000000000001FFF
FFF000000000001FFF
FFF000000000001FFF
FFF000000000001FFF
FFF000000000001FFF
FFF000000000001FFF
FFF000000000001FFF
FFF000000000001FFF
FFF000000000001FFF
FFF000000000001FFF
FFF000000000001FFF
FFF000000000001FFF
FFF000000000001FFF
FFF000000000001FFF
FFF000000000001FFF
FFF000000000001FFF
FFF000000000001FFF
FFF000000000001FFF
FFF000000000001FFF
FFF000000000001FFF
FFF000000000001FFF
FFF000000000001FFF
FFF800000000003FFF
FFF800000000003FFF
FFFC00000000007FFF
FFFE0000000000FFFF
7FFF0000000001FFFE
7FFFFFFFFFFFFFFFFE
7FFFFFFFFFFFFFFFFE
3FFFFFFFFFFFFFFFFC
3FFFFFFFFFFFFFFFFC
1FFFFFFFFFFFFFFFF8
1FFFFFFFFFFFFFFFF8
0FFFFFFFFFFFFFFFF0
07FFFFFFFFFFFFFFE0
03FFFFFFFFFFFFFFC0
01FFFFFFFFFFFFFF00
007FFFFFFFFFFFFC00
0007FFFFFFFFFFE000
ENDCHAR
STARTCHAR 0048
ENCODING 72
SWIDTH 555 0
DWIDTH 100 0
BBX 72 126 14 1
BITMAP
FFF000000000001FFF
FFF000000000001FFF
FFF000000000001FFF
FFF000000000001FFF
FFF000000000001FFF
FFF000000000001FFF
FFF000000000001FFF
FFF000000000001FFF
FFF000000000001FFF
FFF000000000001FFF
FFF000000000001FFF
FFF000000000001FFF
FFF000000000001FFF
FFF000000000001FFF
FFF000000000001FFF
FFF000000000001FFF
FFF000000000001FFF
FFF000000000001FFF
FFF000000000001FFF
FFF000000000001FFF
FFF000000000001FFF
FFF000000000001FFF
FFF000000000001FFF
FFF000000000001FFF
FFF000000000001FFF
FFF000000000001FFF
FFF000000000001FFF
FFF000000000001FFF
FFF000000000001FFF
FFF000000000001FFF
FFF000000000001FFF
FFF000000000001FFF
FFF000000000001FFF
FFF000000000001FFF
FFF000000000001FFF
FFF000000000001FFF
FFF000000000001FFF
FFF000000000001FFF
FFF000000000001FFF
FFF000000000001FFF
FFF000000000001FFF
FFF000000000001FFF
FFF000000000001FFF
FFF000000000001FFF
FFF000000000001FFF
FFF000000000001FFF
FFF000000000001FFF
FFF000000000001FFF
FFF000000000001FFF
FFF000000000001FFF
FFF000000000001FFF
FFF000000000001FFF
FFF000000000001FFF
FFF000000000001FFF
FFFFFFFFFFFFFFFFFF
FFFFFFFFFFFFFFFFFF
FFFFFFFFFFFFFFFFFF
FFFFFFFFFFFFFFFFFF
FFFFFFFFFFFFFFFFFF
FFFFFFFFFFFFFFFFFF
FFFFFFFFFFFFFFFFFF
FFFFFFFFFFFFFFFFFF
FFFFFFFFFFFFFFFFFF
FFFFFFFFFFFFFFFFFF
FFFFFFFFFFFFFFFFFF
FFF000000000001FFF
FFF000000000001FFF
FFF000000000001FFF
FFF000000000001FFF
FFF000000000001FFF
FFF000000000001FFF
FFF000000000001FFF
FFF000000000001FFF
FFF000000000001FFF
FFF000000000001FFF
FFF000000000001FFF
FFF000000000001FFF
FFF000000000001FFF
FFF000000000001FFF
FFF000000000001FFF
FFF000000000001FFF
FFF000000000001FFF
FFF000000000001FFF
FFF000000000001FFF
FFF000000000001FFF
FFF000000000001FFF
FFF000000000001FFF
FFF000000000001FFF
FFF000000000001FFF
FFF000000000001FFF
FFF000000000001FFF
FFF000000000001FFF
FFF000000000001FFF
FFF000000000001FFF
FFF000000000001FFF
FFF000000000001FFF
FFF000000000001FFF
FFF000000000001FFF
FFF000000000001FFF
FFF000000000001FFF
FFF000000000001FFF
FFF000000000001FFF
FFF000000000001FFF
FFF000000000001FFF
FFF000000000001FFF
FFF000000000001FFF
FFF000000000001FFF
FFF000000000001FFF
FFF000000000001FFF
FFF000000000001FFF
FFF000000000001FFF
FFF000000000001FFF
FFF000000000001FFF
FFF000000000001FFF
FFF000000000001FFF
FFF000000000001FFF
FFF000000000001FFF
FFF000000000001FFF
FFF000000000001FFF
FFF000000000001FFF
FFF000000000001FFF
FFF000000000001FFF
FFF000000000001FFF
FFF000000000001FFF
FFF000000000001FFF
FFF000000000001FFF
ENDCHAR
STARTCHAR 0049
ENCODING 73
SWIDTH 227 0
DWIDTH 41 0
BBX 12 126 14 0
BITMAP
FFF0
FFF0
FFF0
FFF0
FFF0
FFF0
FFF0
FFF0
FFF0
FFF0
FFF0
FFF0
FFF0
FFF0
FFF0
FFF0
FFF0
FFF0
FFF0
FFF0
FFF0
FFF0
FFF0
FFF0
FFF0
FFF0
FFF0
FFF0
FFF0
FFF0
FFF0
FFF0
FFF0
FFF0
FFF0
FFF0
FFF0
FFF0
FFF0
FFF0
FFF0
FFF0
FFF0
FFF0
FFF0
FFF0
FFF0
FFF0
FFF0
FFF0
FFF0
FFF0
FFF0
FFF0
FFF0
FFF0
FFF0
FFF0
FFF0
FFF0
FFF0
FFF0
FFF0
FFF0
FFF0
FFF0
FFF0
FFF0
FFF0
FFF0
FFF0
FFF0
FFF0
FFF0
FFF0
FFF0
FFF0
FFF0
FFF0
FFF0
FFF0
FFF0
FFF0
FFF0
FFF0
FFF0
FFF0
FFF0
FFF0
FFF0
FFF0
FFF0
FFF0
FFF0
FFF0
FFF0
FFF0
FFF0
FFF0
FFF0
FFF0
FFF0
FFF0
FFF0
FFF0
FFF0
FFF0
FFF0
FFF0
FFF0
FFF0
FFF0
FFF0
FFF0
FFF0
FFF0
FFF0
FFF0
FFF0
FFF0
FFF0
FFF0
FFF0
FFF0
FFF0
FFF0
ENDCHAR
STARTCHAR 004A
ENCODING 74
SWIDTH 333 0
DWIDTH 60 0
BBX 43 126 3 0
BITMAP
00000003FFE0
00000003FFE0
00000003FFE0
00000003FFE0
00000003FFE0
00000003FFE0
00000003FFE0
00000003FFE0
00000003FFE0
00000003FFE0
00000003FFE0
00000003FFE0
00000003FFE0
00000003FFE0
00000003FFE0
00000003FFE0
00000003FFE0
00000003FFE0
00000003FFE0
00000003FFE0
00000003FFE0
00000003FFE0
00000003FFE0
00000003FFE0
00000003FFE0
00000003FFE0
00000003FFE0
00000003FFE0
00000003FFE0
00000003FFE0
00000003FFE0
00000003FFE0
00000003FFE0
00000003FFE0
00000003FFE0
00000003FFE0
00000003FFE0
00000003FFE0
00000003FFE0
00000003FFE0
00000003FFE0
00000003FFE0
00000003FFE0
00000003FFE0
00000003FFE0
00000003FFE0
00000003FFE0
00000003FFE0
00000003FFE0
00000003FFE0
00000003FFE0
00000003FFE0
00000003FFE0
00000003FFE0
00000003FFE0
00000003FFE0
00000003FFE0
00000003FFE0
00000003FFE0
00000003FFE0
00000003FFE0
00000003FFE0
00000003FFE0
00000003FFE0
00000003FFE0
00000003FFE0
00000003FFE0
00000003FFE0
00000003FFE0
00000003FFE0
00000003FFE0
00000003FFE0
00000003FFE0
00000003FFE0
00000003FFE0
00000003FFE0
00000003FFE0
00000003FFE0
00000003FFE0
00000003FFE0
00000003FFE0
00000003FFE0
00000003FFE0
00000003FFE0
00000003FFE0
00000003FFE0
00000003FFE0
00000003FFE0
00000003FFE0
00000003FFE0
00000003FFE0
00000003FFE0
00000003FFE0
00000003FFE0
00000003FFE0
00000003FFE0
00000003FFE0
00000003FFE0
00000003FFE0
00000003FFE0
00000003FFE0
00000003FFE0
00000003FFE0
00000003FFE0
00000003FFE0
00000003FFE0
00000003FFE0
00000003FFE0
00000003FFE0
00000007FFE0
00000007FFE0
0000000FFFE0
0000001FFFE0
8000003FFFC0
FFFFFFFFFFC0
FFFFFFFFFFC0
FFFFFFFFFF80
FFFFFFFFFF80
FFFFFFFFFF00
FFFFFFFFFF00
FFFFFFFFFE00
FFFFFFFFFC00
FFFFFFFFF800
FFFFFFFFE000
FFFFFFFF8000
FFFFFFFC0000
ENDCHAR
STARTCHAR 004B
ENCODING 75
SWIDTH 527 0
DWIDTH 95 0
BBX 76 126 14 1
BITMAP
FFF800000000001FFF80
FFF800000000003FFF80
FFF800000000003FFF00
FFF800000000007FFF00
FFF800000000007FFE00
FFF80000000000FFFE00
FFF80000000000FFFC00
FFF80000000001FFFC00
FFF80000000001FFF800
FFF80000000001FFF800
FFF80000000003FFF800
FFF80000000003FFF000
FFF80000000007FFF000
FFF80000000007FFE000
FFF8000000000FFFE000
FFF8000000000FFFC000
FFF8000000001FFFC000
FFF8000000001FFF8000
FFF8000000001FFF8000
FFF8000000003FFF0000
FFF8000000003FFF0000
FFF8000000007FFF0000
FFF8000000007FFE0000
FFF800000000FFFE0000
FFF800000000FFFC0000
FFF800000001FFFC0000
FFF800000001FFF80000
FFF800000001FFF80000
FFF800000003FFF00000
FFF800000003FFF00000
FFF800000007FFE00000
FFF800000007FFE00000
FFF80000000FFFC00000
FFF80000000FFFC00000
FFF80000001FFFC00000
FFF80000001FFF800000
FFF80000003FFF800000
FFF80000003FFF000000
FFF80000003FFF000000
FFF80000007FFE000000
FFF80000007FFE000000
FFF8000000FFFC000000
FFF8000000FFFC000000
FFF8000001FFF8000000
FFF8000001FFF8000000
FFF8000003FFF8000000
FFF8000003FFF0000000
FFF8000003FFF0000000
FFF8000007FFE0000000
FFF800000FFFE0000000
FFF800000FFFC0000000
FFF800001FFFC0000000
FFF800003FFF80000000
FFF80000FFFF00000000
FFFFFFFFFFFF00000000
FFFFFFFFFFFE00000000
FFFFFFFFFFF800000000
FFFFFFFFFFF000000000
FFFFFFFFFFE000000000
FFFFFFFFFFC000000000
FFFFFFFFFFF000000000
FFFFFFFFFFF800000000
FFFFFFFFFFFC00000000
FFFFFFFFFFFE00000000
FFFFFFFFFFFF00000000
FFF80000FFFF80000000
FFF800003FFFC0000000
FFF800001FFFC0000000
FFF800000FFFE0000000
FFF8000007FFE0000000
FFF8000007FFF0000000
FFF8000003FFF0000000
FFF8000003FFF0000000
FFF8000001FFF8000000
FFF8000001FFF8000000
FFF8000001FFFC000000
FFF8000000FFFC000000
FFF8000000FFFE000000
FFF80000007FFE000000
FFF80000007FFE000000
FFF80000007FFF000000
FFF80000003FFF000000
FFF80000003FFF800000
FFF80000001FFF800000
FFF80000001FFFC00000
FFF80000000FFFC00000
FFF80000000FFFE00000
FFF80000000FFFE00000
FFF800000007FFE00000
FFF800000007FFF00000
FFF800000003FFF00000
FFF800000003FFF80000
FFF800000001FFF80000
FFF800000001FFFC0000
FFF800000001FFFC0000
FFF800000000FFFE0000
FFF800000000FFFE0000
FFF8000000007FFE0000
FFF8000000007FFF0000
FFF8000000003FFF0000
FFF8000000003FFF8000
FFF8000000003FFF8000
FFF8000000001FFFC000
FFF8000000001FFFC000
FFF8000000000FFFE000
FFF8000000000FFFE000
FFF80000000007FFE000
FFF80000000007FFF000
FFF80000000007FFF000
FFF80000000003FFF800
FFF80000000003FFF800
FFF80000000001FFFC00
FFF80000000001FFFC00
FFF80000000000FFFE00
FFF80000000000FFFE00
FFF80000000000FFFE00
FFF800000000007FFF00
FFF800000000007FFF00
FFF800000000003FFF80
FFF800000000003FFF80
FFF800000000001FFFC0
FFF800000000001FFFC0
FFF800000000001FFFC0
FFF800000000000FFFE0
FFF800000000000FFFE0
FFF8000000000007FFF0
ENDCHAR
STARTCHAR 004C
ENCODING 76
SWIDTH 455 0
DWIDTH 82 0
BBX 66 126 14 0
BITMAP
FFF000000000000000
FFF000000000000000
FFF000000000000000
FFF000000000000000
FFF000000000000000
FFF000000000000000
FFF000000000000000
FFF000000000000000
FFF000000000000000
FFF000000000000000
FFF000000000000000
FFF000000000000000
FFF000000000000000
FFF000000000000000
FFF000000000000000
FFF000000000000000
FFF000000000000000
FFF000000000000000
FFF000000000000000
FFF000000000000000
FFF000000000000000
FFF000000000000000
FFF000000000000000
FFF000000000000000
FFF000000000000000
FFF000000000000000
FFF000000000000000
FFF000000000000000
FFF000000000000000
FFF000000000000000
FFF000000000000000
FFF000000000000000
FFF000000000000000
FFF000000000000000
FFF000000000000000
FFF000000000000000
FFF000000000000000
FFF000000000000000
FFF000000000000000
FFF000000000000000
FFF000000000000000
FFF000000000000000
FFF000000000000000
FFF000000000000000
FFF000000000000000
FFF000000000000000
FFF000000000000000
FFF000000000000000
FFF000000000000000
FFF000000000000000
FFF000000000000000
FFF000000000000000
FFF000000000000000
FFF000000000000000
FFF000000000000000
FFF000000000000000
FFF000000000000000
FFF000000000000000
FFF000000000000000
FFF000000000000000
FFF000000000000000
FFF000000000000000
FFF000000000000000
FFF000000000000000
FFF000000000000000
FFF000000000000000
FFF000000000000000
FFF000000000000000
FFF000000000000000
FFF000000000000000
FFF000000000000000
FFF000000000000000
FFF000000000000000
FFF000000000000000
FFF000000000000000
FFF000000000000000
FFF000000000000000
FFF000000000000000
FFF000000000000000
FFF000000000000000
FFF000000000000000
FFF000000000000000
FFF000000000000000
FFF000000000000000
FFF000000000000000
FFF000000000000000
FFF000000000000000
FFF000000000000000
FFF000000000000000
FFF000000000000000
FFF000000000000000
FFF000000000000000
FFF000000000000000
FFF000000000000000
FFF000000000000000
FFF000000000000000
FFF000000000000000
FFF000000000000000
FFF000000000000000
FFF000000000000000
FFF000000000000000
FFF000000000000000
FFF000000000000000
FFF000000000000000
FFF000000000000000
FFF000000000000000
FFF000000000000000
FFF000000000000000
FFF000000000000000
FFF000000000000000
FFF000000000000000
FFF000000000000000
FFF000000000000000
FFF000000000000000
FFF0000000000000C0
FFFFFFFFFFFFFFFFC0
FFFFFFFFFFFFFFFFC0
FFFFFFFFFFFFFFFFC0
FFFFFFFFFFFFFFFFC0
FFFFFFFFFFFFFFFFC0
FFFFFFFFFFFFFFFFC0
FFFFFFFFFFFFFFFFC0
FFFFFFFFFFFFFFFFC0
FFFFFFFFFFFFFFFFC0
FFFFFFFFFFFFFFFFC0
FFFFFFFFFFFFFFFFC0
ENDCHAR
STARTCHAR 004D
ENCODING 77
SWIDTH 650 0
DWIDTH 117 0
BBX 89 126 14 0
BITMAP
FFFFF0000000000003FFFF80
FFFFF0000000000003FFFF80
FFFFF0000000000003FFFF80
FFFFF8000000000007FFFF80
FFFFF8000000000007FFFF80
FFFFF8000000000007FFFF80
FFFFF800000000000FFFFF80
FFFFFC00000000000FFFFF80
FFFFFC00000000000FFFFF80
FFFFFC00000000001FFFFF80
FFFFFE00000000001FFFFF80
FFFFFE00000000001FFFFF80
FFFFFE00000000003FFFFF80
FFFFFF00000000003FFFFF80
FFFFFF00000000003FFFFF80
FFFFFF00000000007FFFFF80
FFFFFF80000000007FFFFF80
FFF7FF80000000007FF7FF80
FFF7FF8000000000FFF7FF80
FFF7FFC000000000FFF7FF80
FFF3FFC000000000FFE7FF80
FFF3FFC000000001FFE7FF80
FFF3FFE000000001FFE7FF80
FFF1FFE000000001FFC7FF80
FFF1FFE000000001FFC7FF80
FFF1FFF000000003FFC7FF80
FFF0FFF000000003FF87FF80
FFF0FFF000000003FF87FF80
FFF0FFF800000007FF87FF80
FFF07FF800000007FF07FF80
FFF07FF800000007FF07FF80
FFF07FFC0000000FFF07FF80
FFF03FFC0000000FFE07FF80
FFF03FFC0000000FFE07FF80
FFF03FFE0000001FFE07FF80
FFF01FFE0000001FFC07FF80
FFF01FFE0000001FFC07FF80
FFF01FFE0000003FFC07FF80
FFF00FFF0000003FF807FF80
FFF00FFF0000003FF807FF80
FFF00FFF0000007FF807FF80
FFF007FF8000007FF007FF80
FFF007FF8000007FF007FF80
FFF007FF800000FFF007FF80
FFF003FFC00000FFE007FF80
FFF003FFC00000FFE007FF80
FFF003FFC00001FFE007FF80
FFF001FFE00001FFC007FF80
FFF001FFE00001FFC007FF80
FFF001FFE00003FFC007FF80
FFF000FFF00003FF8007FF80
FFF000FFF00003FF8007FF80
FFF000FFF00007FF8007FF80
FFF0007FF80007FF0007FF80
FFF0007FF80007FF0007FF80
FFF0007FF8000FFF0007FF80
FFF0003FFC000FFE0007FF80
FFF0003FFC000FFE0007FF80
FFF0003FFC001FFE0007FF80
FFF0001FFE001FFC0007FF80
FFF0001FFE001FFC0007FF80
FFF0001FFE003FFC0007FF80
FFF0000FFF003FF80007FF80
FFF0000FFF003FF80007FF80
FFF0000FFF007FF80007FF80
FFF00007FF807FF00007FF80
FFF00007FF807FF00007FF80
FFF00007FF80FFF00007FF80
FFF00003FFC0FFE00007FF80
FFF00003FFC0FFE00007FF80
FFF00003FFC1FFE00007FF80
FFF00003FFC1FFC00007FF80
FFF00001FFE1FFC00007FF80
FFF00001FFE3FFC00007FF80
FFF00001FFE3FF800007FF80
FFF00000FFF3FF800007FF80
FFF00000FFF7FF800007FF80
FFF00000FFF7FF000007FF80
FFF000007FFFFF000007FF80
FFF000007FFFFF000007FF80
FFF000007FFFFE000007FF80
FFF000003FFFFE000007FF80
FFF000003FFFFE000007FF80
FFF000003FFFFC000007FF80
FFF000001FFFFC000007FF80
FFF000001FFFFC000007FF80
FFF000001FFFF8000007FF80
FFF000000FFFF8000007FF80
FFF000000FFFF8000007FF80
FFF000000FFFF0000007FF80
FFF0000007FFF0000007FF80
FFF0000007FFF0000007FF80
FFF0000007FFE0000007FF80
FFF00000000000000007FF80
FFF00000000000000007FF80
FFF00000000000000007FF80
FFF00000000000000007FF80
FFF00000000000000007FF80
FFF00000000000000007FF80
FFF00000000000000007FF80
FFF00000000000000007FF80
FFF00000000000000007FF80
FFF00000000000000007FF80
FFF00000000000000007FF80
FFF00000000000000007FF80
FFF00000000000000007FF80
FFF00000000000000007FF80
FFF00000000000000007FF80
FFF00000000000000007FF80
FFF00000000000000007FF80
FFF00000000000000007FF80
FFF00000000000000007FF80
FFF00000000000000007FF80
FFF00000000000000007FF80
FFF00000000000000007FF80
FFF00000000000000007FF80
FFF00000000000000007FF80
FFF00000000000000007FF80
FFF00000000000000007FF80
FFF00000000000000007FF80
FFF00000000000000007FF80
FFF00000000000000007FF80
FFF00000000000000007FF80
FFF00000000000000007FF80
FFF00000000000000007FF80
FFF00000000000000007FF80
ENDCHAR
STARTCHAR 004E
ENCODING 78
SWIDTH 561 0
DWIDTH 101 0
BBX 73 126 14 0
BITMAP
FFFE000000000007FF80
FFFE000000000007FF80
FFFE000000000007FF80
FFFF000000000007FF80
FFFF000000000007FF80
FFFF800000000007FF80
FFFF800000000007FF80
FFFFC00000000007FF80
FFFFC00000000007FF80
FFFFE00000000007FF80
FFFFE00000000007FF80
FFFFF00000000007FF80
FFFFF00000000007FF80
FFFFF00000000007FF80
FFFFF80000000007FF80
FFFFF80000000007FF80
FFFFFC0000000007FF80
FFFFFC0000000007FF80
FFFFFE0000000007FF80
FFFFFE0000000007FF80
FFFFFF0000000007FF80
FFFFFF0000000007FF80
FFFFFF8000000007FF80
FFFFFF8000000007FF80
FFF7FF8000000007FF80
FFF7FFC000000007FF80
FFF3FFC000000007FF80
FFF3FFE000000007FF80
FFF1FFE000000007FF80
FFF1FFF000000007FF80
FFF0FFF000000007FF80
FFF0FFF800000007FF80
FFF0FFF800000007FF80
FFF07FF800000007FF80
FFF07FFC00000007FF80
FFF03FFC00000007FF80
FFF03FFE00000007FF80
FFF01FFE00000007FF80
FFF01FFF00000007FF80
FFF00FFF00000007FF80
FFF00FFF80000007FF80
FFF007FF80000007FF80
FFF007FFC0000007FF80
FFF007FFC0000007FF80
FFF003FFC0000007FF80
FFF003FFE0000007FF80
FFF001FFE0000007FF80
FFF001FFF0000007FF80
FFF000FFF0000007FF80
FFF000FFF8000007FF80
FFF0007FF8000007FF80
FFF0007FFC000007FF80
FFF0007FFC000007FF80
FFF0003FFC000007FF80
FFF0003FFE000007FF80
FFF0001FFE000007FF80
FFF0001FFF000007FF80
FFF0000FFF000007FF80
FFF0000FFF800007FF80
FFF00007FF800007FF80
FFF00007FFC00007FF80
FFF00003FFC00007FF80
FFF00003FFE00007FF80
FFF00003FFE00007FF80
FFF00001FFE00007FF80
FFF00001FFF00007FF80
FFF00000FFF00007FF80
FFF00000FFF80007FF80
FFF000007FF80007FF80
FFF000007FFC0007FF80
FFF000003FFC0007FF80
FFF000003FFE0007FF80
FFF000003FFE0007FF80
FFF000001FFE0007FF80
FFF000001FFF0007FF80
FFF000000FFF0007FF80
FFF000000FFF8007FF80
FFF0000007FF8007FF80
FFF0000007FFC007FF80
FFF0000003FFC007FF80
FFF0000003FFE007FF80
FFF0000003FFE007FF80
FFF0000001FFF007FF80
FFF0000001FFF007FF80
FFF0000000FFF007FF80
FFF0000000FFF807FF80
FFF00000007FF807FF80
FFF00000007FFC07FF80
FFF00000003FFC07FF80
FFF00000003FFE07FF80
FFF00000001FFE07FF80
FFF00000001FFF07FF80
FFF00000001FFF07FF80
FFF00000000FFF87FF80
FFF00000000FFF87FF80
FFF000000007FF87FF80
FFF000000007FFC7FF80
FFF000000003FFC7FF80
FFF000000003FFE7FF80
FFF000000001FFE7FF80
FFF000000001FFF7FF80
FFF000000001FFF7FF80
FFF000000000FFFFFF80
FFF000000000FFFFFF80
FFF0000000007FFFFF80
FFF0000000007FFFFF80
FFF0000000003FFFFF80
FFF0000000003FFFFF80
FFF0000000001FFFFF80
FFF0000000001FFFFF80
FFF0000000000FFFFF80
FFF0000000000FFFFF80
FFF0000000000FFFFF80
FFF00000000007FFFF80
FFF00000000007FFFF80
FFF00000000003FFFF80
FFF00000000003FFFF80
FFF00000000001FFFF80
FFF00000000001FFFF80
FFF00000000000FFFF80
FFF00000000000FFFF80
FFF00000000000FFFF80
FFF000000000007FFF80
FFF000000000007FFF80
FFF000000000003FFF80
FFF000000000003FFF80
ENDCHAR
STARTCHAR 004F
ENCODING 79
SWIDTH 555 0
DWIDTH 100 0
BBX 72 126 14 0
BITMAP
0007FFFFFFFFFFE000
007FFFFFFFFFFFFE00
00FFFFFFFFFFFFFF80
03FFFFFFFFFFFFFFC0
07FFFFFFFFFFFFFFE0
0FFFFFFFFFFFFFFFF0
1FFFFFFFFFFFFFFFF8
1FFFFFFFFFFFFFFFF8
3FFFFFFFFFFFFFFFFC
3FFFFFFFFFFFFFFFFC
7FFFFFFFFFFFFFFFFE
7FFFFFFFFFFFFFFFFE
7FFF0000000001FFFE
FFFE0000000000FFFF
FFFC00000000007FFF
FFF800000000003FFF
FFF800000000003FFF
FFF000000000001FFF
FFF000000000001FFF
FFF000000000001FFF
FFF000000000001FFF
FFF000000000001FFF
FFF000000000001FFF
FFF000000000001FFF
FFF000000000001FFF
FFF000000000001FFF
FFF000000000001FFF
FFF000000000001FFF
FFF000000000001FFF
FFF000000000001FFF
FFF000000000001FFF
FFF000000000001FFF
FFF000000000001FFF
FFF000000000001FFF
FFF000000000001FFF
FFF000000000001FFF
FFF000000000001FFF
FFF000000000001FFF
FFF000000000001FFF
FFF000000000001FFF
FFF000000000001FFF
FFF000000000001FFF
FFF000000000001FFF
FFF000000000001FFF
FFF000000000001FFF
FFF000000000001FFF
FFF000000000001FFF
FFF000000000001FFF
FFF000000000001FFF
FFF000000000001FFF
FFF000000000001FFF
FFF000000000001FFF
FFF000000000001FFF
FFF000000000001FFF
FFF000000000001FFF
FFF000000000001FFF
FFF000000000001FFF
FFF000000000001FFF
FFF000000000001FFF
FFF000000000001FFF
FFF000000000001FFF
FFF000000000001FFF
FFF000000000001FFF
FFF000000000001FFF
FFF000000000001FFF
FFF000000000001FFF
FFF000000000001FFF
FFF000000000001FFF
FFF000000000001FFF
FFF000000000001FFF
FFF000000000001FFF
FFF000000000001FFF
FFF000000000001FFF
FFF000000000001FFF
FFF000000000001FFF
FFF000000000001FFF
FFF000000000001FFF
FFF000000000001FFF
FFF000000000001FFF
FFF000000000001FFF
FFF000000000001FFF
FFF000000000001FFF
FFF000000000001FFF
FFF000000000001FFF
FFF000000000001FFF
FFF000000000001FFF
FFF000000000001FFF
FFF000000000001FFF
FFF000000000001FFF
FFF000000000001FFF
FFF000000000001FFF
FFF000000000001FFF
FFF000000000001FFF
FFF000000000001FFF
FFF000000000001FFF
FFF000000000001FFF
FFF000000000001FFF
FFF000000000001FFF
FFF000000000001FFF
FFF000000000001FFF
FFF000000000001FFF
FFF000000000001FFF
FFF000000000001FFF
FFF000000000001FFF
FFF000000000001FFF
FFF000000000001FFF
FFF000000000001FFF
FFF000000000001FFF
FFF000000000001FFF
FFF800000000003FFF
FFF800000000003FFF
FFFC00000000007FFF
FFFE0000000000FFFF
7FFF0000000001FFFE
7FFFFFFFFFFFFFFFFE
7FFFFFFFFFFFFFFFFE
3FFFFFFFFFFFFFFFFC
3FFFFFFFFFFFFFFFFC
1FFFFFFFFFFFFFFFF8
1FFFFFFFFFFFFFFFF8
0FFFFFFFFFFFFFFFF0
07FFFFFFFFFFFFFFE0
03FFFFFFFFFFFFFFC0
01FFFFFFFFFFFFFF00
007FFFFFFFFFFFFC00
0007FFFFFFFFFFE000
ENDCHAR
STARTCHAR 0050
ENCODING 80
SWIDTH 522 0
DWIDTH 94 0
BBX 72 126 14 0
BITMAP
FFFFFFFFFFFFFFE000
FFFFFFFFFFFFFFFE00
FFFFFFFFFFFFFFFF80
FFFFFFFFFFFFFFFFC0
FFFFFFFFFFFFFFFFE0
FFFFFFFFFFFFFFFFF0
FFFFFFFFFFFFFFFFF8
FFFFFFFFFFFFFFFFF8
FFFFFFFFFFFFFFFFFC
FFFFFFFFFFFFFFFFFC
FFFFFFFFFFFFFFFFFE
FFFFFFFFFFFFFFFFFE
FFF00000000001FFFE
FFF00000000000FFFF
FFF000000000007FFF
FFF000000000003FFF
FFF000000000003FFF
FFF000000000001FFF
FFF000000000001FFF
FFF000000000001FFF
FFF000000000001FFF
FFF000000000001FFF
FFF000000000001FFF
FFF000000000001FFF
FFF000000000001FFF
FFF000000000001FFF
FFF000000000001FFF
FFF000000000001FFF
FFF000000000001FFF
FFF000000000001FFF
FFF000000000001FFF
FFF000000000001FFF
FFF000000000001FFF
FFF000000000001FFF
FFF000000000001FFF
FFF000000000001FFF
FFF000000000001FFF
FFF000000000001FFF
FFF000000000001FFF
FFF000000000001FFF
FFF000000000001FFF
FFF000000000001FFF
FFF000000000001FFF
FFF000000000001FFF
FFF000000000001FFF
FFF000000000001FFF
FFF000000000001FFF
FFF000000000001FFF
FFF000000000001FFF
FFF000000000001FFF
FFF000000000001FFF
FFF000000000001FFF
FFF000000000003FFF
FFF000000000003FFF
FFF000000000007FFF
FFF00000000000FFFF
FFF00000000003FFFE
FFFFFFFFFFFFFFFFFE
FFFFFFFFFFFFFFFFFE
FFFFFFFFFFFFFFFFFC
FFFFFFFFFFFFFFFFFC
FFFFFFFFFFFFFFFFF8
FFFFFFFFFFFFFFFFF8
FFFFFFFFFFFFFFFFF0
FFFFFFFFFFFFFFFFE0
FFFFFFFFFFFFFFFFC0
FFFFFFFFFFFFFFFF80
FFFFFFFFFFFFFFFE00
FFFFFFFFFFFFFFE000
FFF000000000000000
FFF000000000000000
FFF000000000000000
FFF000000000000000
FFF000000000000000
FFF000000000000000
FFF000000000000000
FFF000000000000000
FFF000000000000000
FFF000000000000000
FFF000000000000000
FFF000000000000000
FFF000000000000000
FFF000000000000000
FFF000000000000000
FFF000000000000000
FFF000000000000000
FFF000000000000000
FFF000000000000000
FFF000000000000000
FFF000000000000000
FFF000000000000000
FFF000000000000000
FFF000000000000000
FFF000000000000000
FFF000000000000000
FFF000000000000000
FFF000000000000000
FFF000000000000000
FFF000000000000000
FFF000000000000000
FFF000000000000000
FFF000000000000000
FFF000000000000000
FFF000000000000000
FFF000000000000000
FFF000000000000000
FFF000000000000000
FFF000000000000000
FFF000000000000000
FFF000000000000000
FFF000000000000000
FFF000000000000000
FFF000000000000000
FFF000000000000000
FFF000000000000000
FFF000000000000000
FFF000000000000000
FFF000000000000000
FFF000000000000000
FFF000000000000000
FFF000000000000000
FFF000000000000000
FFF000000000000000
FFF000000000000000
FFF000000000000000
FFF000000000000000
ENDCHAR
STARTCHAR 0051
ENCODING 81
SWIDTH 555 0
DWIDTH 100 0
BBX 72 162 14 -36
BITMAP
0007FFFFFFFFFFE000
007FFFFFFFFFFFFE00
00FFFFFFFFFFFFFF80
03FFFFFFFFFFFFFFC0
07FFFFFFFFFFFFFFE0
0FFFFFFFFFFFFFFFF0
1FFFFFFFFFFFFFFFF8
1FFFFFFFFFFFFFFFF8
3FFFFFFFFFFFFFFFFC
3FFFFFFFFFFFFFFFFC
7FFFFFFFFFFFFFFFFE
7FFFFFFFFFFFFFFFFE
7FFF0000000001FFFE
FFFE0000000000FFFF
FFFC00000000007FFF
FFF800000000003FFF
FFF800000000003FFF
FFF000000000001FFF
FFF000000000001FFF
FFF000000000001FFF
FFF000000000001FFF
FFF000000000001FFF
FFF000000000001FFF
FFF000000000001FFF
FFF000000000001FFF
FFF000000000001FFF
FFF000000000001FFF
FFF000000000001FFF
FFF000000000001FFF
FFF000000000001FFF
FFF000000000001FFF
FFF000000000001FFF
FFF000000000001FFF
FFF000000000001FFF
FFF000000000001FFF
FFF000000000001FFF
FFF000000000001FFF
FFF000000000001FFF
FFF000000000001FFF
FFF000000000001FFF
FFF000000000001FFF
FFF000000000001FFF
FFF000000000001FFF
FFF000000000001FFF
FFF000000000001FFF
FFF000000000001FFF
FFF000000000001FFF
FFF000000000001FFF
FFF000000000001FFF
FFF000000000001FFF
FFF000000000001FFF
FFF000000000001FFF
FFF000000000001FFF
FFF000000000001FFF
FFF000000000001FFF
FFF000000000001FFF
FFF000000000001FFF
FFF000000000001FFF
FFF000000000001FFF
FFF000000000001FFF
FFF000000000001FFF
FFF000000000001FFF
FFF000000000001FFF
FFF000000000001FFF
FFF000000000001FFF
FFF000000000001FFF
FFF000000000001FFF
FFF000000000001FFF
FFF000000000001FFF
FFF000000000001FFF
FFF000000000001FFF
FFF000000000001FFF
FFF000000000001FFF
FFF000000000001FFF
FFF000000000001FFF
FFF000000000001FFF
FFF000000000001FFF
FFF000000000001FFF
FFF000000000001FFF
FFF000000000001FFF
FFF000000000001FFF
FFF000000000001FFF
FFF000000000001FFF
FFF000000000001FFF
FFF000000000001FFF
FFF000000000001FFF
FFF000000000001FFF
FFF000000000001FFF
FFF000000000001FFF
FFF000000000001FFF
FFF000000000001FFF
FFF000000000001FFF
FFF000000000001FFF
FFF000000000001FFF
FFF000000000001FFF
FFF000000000001FFF
FFF00003FC00001FFF
FFF00003FE00001FFF
FFF00001FE00001FFF
FFF00001FE00001FFF
FFF00001FF00001FFF
FFF00000FF00001FFF
FFF00000FF00001FFF
FFF00000FF80001FFF
FFF000007F80001FFF
FFF000007F80001FFF
FFF000003FC0001FFF
FFF000003FC0001FFF
FFF000003FE0001FFF
FFF800001FE0003FFF
FFF800001FE0003FFF
FFFC00001FF0007FFF
FFFE00000FF000FFFF
7FFF00000FF001FFFE
7FFFFFFFFFFFFFFFFE
7FFFFFFFFFFFFFFFFE
7FFFFFFFFFFFFFFFFC
3FFFFFFFFFFFFFFFFC
3FFFFFFFFFFFFFFFF8
1FFFFFFFFFFFFFFFF8
0FFFFFFFFFFFFFFFF0
07FFFFFFFFFFFFFFE0
03FFFFFFFFFFFFFFC0
01FFFFFFFFFFFFFF00
007FFFFFFFFFFFFC00
000FFFFFFFFFFFE000
0000000000FFC00000
0000000000FFC00000
0000000000FFC00000
00000000007FE00000
00000000007FE00000
00000000007FE00000
00000000003FF00000
00000000003FF00000
00000000003FF80000
00000000001FF80000
00000000001FF80000
00000000001FFC0000
00000000000FFC0000
00000000000FFC0000
00000000000FFE0000
000000000007FE0000
000000000007FF0000
000000000007FF0000
000000000003FF0000
000000000003FF8000
000000000003FF8000
000000000001FF8000
000000000001FFC000
000000000001FFC000
000000000000FFE000
000000000000FFE000
000000000000FFE000
0000000000007FF000
0000000000007FF000
0000000000007FF000
0000000000003FF800
0000000000003FF800
0000000000003FFC00
0000000000001FFC00
0000000000001FFC00
0000000000001FFE00
ENDCHAR
STARTCHAR 0052
ENCODING 82
SWIDTH 566 0
DWIDTH 102 0
BBX 78 126 14 0
BITMAP
FFFFFFFFFFFFFFE00000
FFFFFFFFFFFFFFFC0000
FFFFFFFFFFFFFFFF0000
FFFFFFFFFFFFFFFFC000
FFFFFFFFFFFFFFFFE000
FFFFFFFFFFFFFFFFF000
FFFFFFFFFFFFFFFFF800
FFFFFFFFFFFFFFFFF800
FFFFFFFFFFFFFFFFFC00
FFFFFFFFFFFFFFFFFC00
FFFFFFFFFFFFFFFFFE00
FFFFFFFFFFFFFFFFFE00
FFF00000000001FFFE00
FFF00000000000FFFF00
FFF000000000007FFF00
FFF000000000003FFF00
FFF000000000003FFF00
FFF000000000001FFF00
FFF000000000001FFF00
FFF000000000001FFF00
FFF000000000001FFF00
FFF000000000001FFF00
FFF000000000001FFF00
FFF000000000001FFF00
FFF000000000001FFF00
FFF000000000001FFF00
FFF000000000001FFF00
FFF000000000001FFF00
FFF000000000001FFF00
FFF000000000001FFF00
FFF000000000001FFF00
FFF000000000001FFF00
FFF000000000001FFF00
FFF000000000001FFF00
FFF000000000001FFF00
FFF000000000001FFF00
FFF000000000001FFF00
FFF000000000001FFF00
FFF000000000001FFF00
FFF000000000001FFF00
FFF000000000001FFF00
FFF000000000001FFF00
FFF000000000001FFF00
FFF000000000001FFF00
FFF000000000001FFF00
FFF000000000001FFF00
FFF000000000001FFF00
FFF000000000001FFF00
FFF000000000001FFF00
FFF000000000001FFF00
FFF000000000003FFF00
FFF000000000003FFF00
FFF000000000007FFF00
FFF00000000000FFFE00
FFF00000000003FFFE00
FFFFFFFFFFFFFFFFFE00
FFFFFFFFFFFFFFFFFE00
FFFFFFFFFFFFFFFFFC00
FFFFFFFFFFFFFFFFFC00
FFFFFFFFFFFFFFFFF800
FFFFFFFFFFFFFFFFF000
FFFFFFFFFFFFFFFFF000
FFFFFFFFFFFFFFFFC000
FFFFFFFFFFFFFFFF8000
FFFFFFFFFFFFFFFE0000
FFFFFFFFFFFFFFF80000
FFF00000001FFE000000
FFF00000001FFF000000
FFF00000001FFF000000
FFF00000000FFF000000
FFF00000000FFF800000
FFF00000000FFF800000
FFF000000007FFC00000
FFF000000007FFC00000
FFF000000007FFC00000
FFF000000003FFE00000
FFF000000003FFE00000
FFF000000001FFF00000
FFF000000001FFF00000
FFF000000001FFF00000
FFF000000000FFF80000
FFF000000000FFF80000
FFF000000000FFFC0000
FFF0000000007FFC0000
FFF0000000007FFC0000
FFF0000000007FFE0000
FFF0000000003FFE0000
FFF0000000003FFE0000
FFF0000000001FFF0000
FFF0000000001FFF0000
FFF0000000001FFF8000
FFF0000000000FFF8000
FFF0000000000FFF8000
FFF0000000000FFFC000
FFF00000000007FFC000
FFF00000000007FFE000
FFF00000000007FFE000
FFF00000000003FFE000
FFF00000000003FFF000
FFF00000000001FFF000
FFF00000000001FFF000
FFF00000000001FFF800
FFF00000000000FFF800
FFF00000000000FFFC00
FFF00000000000FFFC00
FFF000000000007FFC00
FFF000000000007FFE00
FFF000000000007FFE00
FFF000000000003FFF00
FFF000000000003FFF00
FFF000000000001FFF00
FFF000000000001FFF80
FFF000000000001FFF80
FFF000000000000FFF80
FFF000000000000FFFC0
FFF000000000000FFFC0
FFF0000000000007FFE0
FFF0000000000007FFE0
FFF0000000000007FFE0
FFF0000000000003FFF0
FFF0000000000003FFF0
FFF0000000000001FFF8
FFF0000000000001FFF8
FFF0000000000001FFF8
FFF0000000000000FFFC
FFF0000000000000FFFC
ENDCHAR
STARTCHAR 0053
ENCODING 83
SWIDTH 500 0
DWIDTH 90 0
BBX 66 126 11 0
BITMAP
0007FFFFFFFFFFFFC0
003FFFFFFFFFFFFFC0
00FFFFFFFFFFFFFFC0
03FFFFFFFFFFFFFFC0
07FFFFFFFFFFFFFFC0
0FFFFFFFFFFFFFFFC0
1FFFFFFFFFFFFFFFC0
1FFFFFFFFFFFFFFFC0
3FFFFFFFFFFFFFFFC0
3FFFFFFFFFFFFFFFC0
7FFFFFFFFFFFFFFFC0
7FFFFFFFFFFFFFFFC0
7FFF000000000000C0
FFFE00000000000000
FFFC00000000000000
FFF800000000000000
FFF800000000000000
FFF000000000000000
FFF000000000000000
FFF000000000000000
FFF000000000000000
FFF000000000000000
FFF000000000000000
FFF000000000000000
FFF000000000000000
FFF000000000000000
FFF000000000000000
FFF000000000000000
FFF000000000000000
FFF000000000000000
FFF000000000000000
FFF000000000000000
FFF000000000000000
FFF000000000000000
FFF800000000000000
FFF800000000000000
7FF800000000000000
7FFC00000000000000
7FFE00000000000000
7FFF00000000000000
3FFF80000000000000
3FFFC0000000000000
1FFFF0000000000000
1FFFF8000000000000
0FFFFC000000000000
07FFFE000000000000
03FFFF000000000000
01FFFFC00000000000
00FFFFE00000000000
007FFFF00000000000
003FFFF80000000000
001FFFFE0000000000
000FFFFF0000000000
0003FFFF8000000000
0001FFFFC000000000
0000FFFFF000000000
00007FFFF800000000
00003FFFFC00000000
00000FFFFE00000000
000007FFFF00000000
000003FFFFC0000000
000001FFFFE0000000
0000007FFFF0000000
0000003FFFF8000000
0000001FFFFE000000
0000000FFFFF000000
00000003FFFF800000
00000001FFFFC00000
00000000FFFFF00000
000000007FFFF80000
000000003FFFFC0000
000000000FFFFE0000
0000000007FFFF0000
0000000003FFFFC000
0000000001FFFFE000
00000000007FFFF000
00000000003FFFF800
00000000001FFFFC00
00000000000FFFFC00
000000000003FFFE00
000000000001FFFF00
000000000000FFFF00
0000000000007FFF00
0000000000003FFF80
0000000000001FFF80
0000000000000FFF80
00000000000007FFC0
00000000000007FFC0
00000000000007FFC0
00000000000003FFC0
00000000000003FFC0
00000000000003FFC0
00000000000003FFC0
00000000000003FFC0
00000000000003FFC0
00000000000003FFC0
00000000000003FFC0
00000000000003FFC0
00000000000003FFC0
00000000000003FFC0
00000000000003FFC0
00000000000003FFC0
00000000000003FFC0
00000000000003FFC0
00000000000003FFC0
00000000000003FFC0
00000000000003FFC0
00000000000003FFC0
00000000000003FFC0
00000000000007FFC0
00000000000007FFC0
0000000000000FFFC0
0000000000001FFFC0
C000000000003FFF80
FFFFFFFFFFFFFFFF80
FFFFFFFFFFFFFFFF80
FFFFFFFFFFFFFFFF80
FFFFFFFFFFFFFFFF00
FFFFFFFFFFFFFFFF00
FFFFFFFFFFFFFFFE00
FFFFFFFFFFFFFFFC00
FFFFFFFFFFFFFFF800
FFFFFFFFFFFFFFF000
FFFFFFFFFFFFFFE000
FFFFFFFFFFFFFF8000
FFFFFFFFFFFFFC0000
ENDCHAR
STARTCHAR 0054
ENCODING 84
SWIDTH 466 0
DWIDTH 84 0
BBX 73 126 5 0
BITMAP
FFFFFFFFFFFFFFFFFF80
FFFFFFFFFFFFFFFFFF80
FFFFFFFFFFFFFFFFFF80
FFFFFFFFFFFFFFFFFF80
FFFFFFFFFFFFFFFFFF80
FFFFFFFFFFFFFFFFFF80
FFFFFFFFFFFFFFFFFF80
FFFFFFFFFFFFFFFFFF80
FFFFFFFFFFFFFFFFFF80
FFFFFFFFFFFFFFFFFF80
FFFFFFFFFFFFFFFFFF80
FFFFFFFFFFFFFFFFFF80
00000003FFE000000000
00000003FFE000000000
00000003FFE000000000
00000003FFE000000000
00000003FFE000000000
00000003FFE000000000
00000003FFE000000000
00000003FFE000000000
00000003FFE000000000
00000003FFE000000000
00000003FFE000000000
00000003FFE000000000
00000003FFE000000000
00000003FFE000000000
00000003FFE000000000
00000003FFE000000000
00000003FFE000000000
00000003FFE000000000
00000003FFE000000000
00000003FFE000000000
00000003FFE000000000
00000003FFE000000000
00000003FFE000000000
00000003FFE000000000
00000003FFE000000000
00000003FFE000000000
00000003FFE000000000
00000003FFE000000000
00000003FFE000000000
00000003FFE000000000
00000003FFE000000000
00000003FFE000000000
00000003FFE000000000
00000003FFE000000000
00000003FFE000000000
00000003FFE000000000
00000003FFE000000000
00000003FFE000000000
00000003FFE000000000
00000003FFE000000000
00000003FFE000000000
00000003FFE000000000
00000003FFE000000000
00000003FFE000000000
00000003FFE000000000
00000003FFE000000000
00000003FFE000000000
00000003FFE000000000
00000003FFE000000000
00000003FFE000000000
00000003FFE000000000
00000003FFE000000000
00000003FFE000000000
00000003FFE000000000
00000003FFE000000000
00000003FFE000000000
00000003FFE000000000
00000003FFE000000000
00000003FFE000000000
00000003FFE000000000
00000003FFE000000000
00000003FFE000000000
00000003FFE000000000
00000003FFE000000000
00000003FFE000000000
00000003FFE000000000
00000003FFE000000000
00000003FFE000000000
00000003FFE000000000
00000003FFE000000000
00000003FFE000000000
00000003FFE000000000
00000003FFE000000000
00000003FFE000000000
00000003FFE000000000
00000003FFE000000000
00000003FFE000000000
00000003FFE000000000
00000003FFE000000000
00000003FFE000000000
00000003FFE000000000
00000003FFE000000000
00000003FFE000000000
00000003FFE000000000
00000003FFE000000000
00000003FFE000000000
00000003FFE000000000
00000003FFE000000000
00000003FFE000000000
00000003FFE000000000
00000003FFE000000000
00000003FFE000000000
00000003FFE000000000
00000003FFE000000000
00000003FFE000000000
00000003FFE000000000
00000003FFE000000000
00000003FFE000000000
00000003FFE000000000
00000003FFE000000000
00000003FFE000000000
00000003FFE000000000
00000003FFE000000000
00000003FFE000000000
00000003FFE000000000
00000003FFE000000000
00000003FFE000000000
00000003FFE000000000
00000003FFE000000000
00000003FFE000000000
00000003FFE000000000
00000003FFE000000000
00000003FFE000000000
00000003FFE000000000
ENDCHAR
STARTCHAR 0055
ENCODING 85
SWIDTH 555 0
DWIDTH 100 0
BBX 72 126 14 0
BITMAP
FFF000000000001FFF
FFF000000000001FFF
FFF000000000001FFF
FFF000000000001FFF
FFF000000000001FFF
FFF000000000001FFF
FFF000000000001FFF
FFF000000000001FFF
FFF000000000001FFF
FFF000000000001FFF
FFF000000000001FFF
FFF000000000001FFF
FFF000000000001FFF
FFF000000000001FFF
FFF000000000001FFF
FFF000000000001FFF
FFF000000000001FFF
FFF000000000001FFF
FFF000000000001FFF
FFF000000000001FFF
FFF000000000001FFF
FFF000000000001FFF
FFF000000000001FFF
FFF000000000001FFF
FFF000000000001FFF
FFF000000000001FFF
FFF000000000001FFF
FFF000000000001FFF
FFF000000000001FFF
FFF000000000001FFF
FFF000000000001FFF
FFF000000000001FFF
FFF000000000001FFF
FFF000000000001FFF
FFF000000000001FFF
FFF000000000001FFF
FFF000000000001FFF
FFF000000000001FFF
FFF000000000001FFF
FFF000000000001FFF
FFF000000000001FFF
FFF000000000001FFF
FFF000000000001FFF
FFF000000000001FFF
FFF000000000001FFF
FFF000000000001FFF
FFF000000000001FFF
FFF000000000001FFF
FFF000000000001FFF
FFF000000000001FFF
FFF000000000001FFF
FFF000000000001FFF
FFF000000000001FFF
FFF000000000001FFF
FFF000000000001FFF
FFF000000000001FFF
FFF000000000001FFF
FFF000000000001FFF
FFF000000000001FFF
FFF000000000001FFF
FFF000000000001FFF
FFF000000000001FFF
FFF000000000001FFF
FFF000000000001FFF
FFF000000000001FFF
FFF000000000001FFF
FFF000000000001FFF
FFF000000000001FFF
FFF000000000001FFF
FFF000000000001FFF
FFF000000000001FFF
FFF000000000001FFF
FFF000000000001FFF
FFF000000000001FFF
FFF000000000001FFF
FFF000000000001FFF
FFF000000000001FFF
FFF000000000001FFF
FFF000000000001FFF
FFF000000000001FFF
FFF000000000001FFF
FFF000000000001FFF
FFF000000000001FFF
FFF000000000001FFF
FFF000000000001FFF
FFF000000000001FFF
FFF000000000001FFF
FFF000000000001FFF
FFF000000000001FFF
FFF000000000001FFF
FFF000000000001FFF
FFF000000000001FFF
FFF000000000001FFF
FFF000000000001FFF
FFF000000000001FFF
FFF000000000001FFF
FFF000000000001FFF
FFF000000000001FFF
FFF000000000001FFF
FFF000000000001FFF
FFF000000000001FFF
FFF000000000001FFF
FFF000000000001FFF
FFF000000000001FFF
FFF000000000001FFF
FFF000000000001FFF
FFF000000000001FFF
FFF000000000001FFF
FFF000000000001FFF
FFF800000000003FFF
FFF800000000003FFF
FFFC00000000007FFF
FFFE0000000000FFFF
7FFF0000000001FFFE
7FFFFFFFFFFFFFFFFE
7FFFFFFFFFFFFFFFFE
3FFFFFFFFFFFFFFFFC
3FFFFFFFFFFFFFFFFC
1FFFFFFFFFFFFFFFF8
1FFFFFFFFFFFFFFFF8
0FFFFFFFFFFFFFFFF0
07FFFFFFFFFFFFFFE0
03FFFFFFFFFFFFFFC0
01FFFFFFFFFFFFFF00
007FFFFFFFFFFFFC00
0007FFFFFFFFFFE000
ENDCHAR
STARTCHAR 0056
ENCODING 86
SWIDTH 500 0
DWIDTH 90 0
BBX 87 126 2 0
BITMAP
FFFC000000000000003FFE
FFFC000000000000007FFE
7FFE000000000000007FFC
7FFE000000000000007FFC
7FFE00000000000000FFFC
3FFF00000000000000FFF8
3FFF00000000000000FFF8
3FFF00000000000000FFF8
3FFF00000000000001FFF8
1FFF80000000000001FFF0
1FFF80000000000001FFF0
1FFF80000000000001FFF0
1FFF80000000000003FFE0
0FFFC0000000000003FFE0
0FFFC0000000000003FFE0
0FFFC0000000000003FFE0
07FFC0000000000007FFC0
07FFE0000000000007FFC0
07FFE0000000000007FFC0
07FFE000000000000FFFC0
03FFF000000000000FFF80
03FFF000000000000FFF80
03FFF000000000000FFF80
03FFF000000000001FFF00
01FFF800000000001FFF00
01FFF800000000001FFF00
01FFF800000000001FFF00
00FFF800000000003FFE00
00FFFC00000000003FFE00
00FFFC00000000003FFE00
00FFFC00000000007FFC00
007FFC00000000007FFC00
007FFE00000000007FFC00
007FFE00000000007FFC00
007FFE0000000000FFF800
003FFF0000000000FFF800
003FFF0000000000FFF800
003FFF0000000000FFF000
001FFF0000000001FFF000
001FFF8000000001FFF000
001FFF8000000001FFF000
001FFF8000000003FFE000
000FFF8000000003FFE000
000FFFC000000003FFE000
000FFFC000000003FFC000
0007FFC000000007FFC000
0007FFC000000007FFC000
0007FFE000000007FFC000
0007FFE000000007FF8000
0003FFE00000000FFF8000
0003FFF00000000FFF8000
0003FFF00000000FFF8000
0003FFF00000000FFF0000
0001FFF00000001FFF0000
0001FFF80000001FFF0000
0001FFF80000001FFE0000
0000FFF80000003FFE0000
0000FFF80000003FFE0000
0000FFFC0000003FFE0000
0000FFFC0000003FFC0000
00007FFC0000007FFC0000
00007FFC0000007FFC0000
00007FFE0000007FF80000
00007FFE0000007FF80000
00003FFE000000FFF80000
00003FFF000000FFF80000
00003FFF000000FFF00000
00001FFF000001FFF00000
00001FFF000001FFF00000
00001FFF800001FFE00000
00001FFF800001FFE00000
00000FFF800003FFE00000
00000FFF800003FFE00000
00000FFFC00003FFC00000
00000FFFC00003FFC00000
000007FFC00007FFC00000
000007FFC00007FFC00000
000007FFE00007FF800000
000003FFE0000FFF800000
000003FFE0000FFF800000
000003FFF0000FFF000000
000003FFF0000FFF000000
000001FFF0001FFF000000
000001FFF0001FFF000000
000001FFF8001FFE000000
000000FFF8001FFE000000
000000FFF8003FFE000000
000000FFF8003FFC000000
000000FFFC003FFC000000
0000007FFC003FFC000000
0000007FFC007FFC000000
0000007FFC007FF8000000
0000007FFE007FF8000000
0000003FFE00FFF8000000
0000003FFE00FFF0000000
0000003FFF00FFF0000000
0000001FFF00FFF0000000
0000001FFF01FFF0000000
0000001FFF01FFE0000000
0000001FFF81FFE0000000
0000000FFF81FFE0000000
0000000FFF83FFC0000000
0000000FFF83FFC0000000
0000000FFFC3FFC0000000
00000007FFC7FFC0000000
00000007FFC7FF80000000
00000007FFC7FF80000000
00000003FFE7FF80000000
00000003FFEFFF80000000
00000003FFEFFF00000000
00000003FFFFFF00000000
00000001FFFFFF00000000
00000001FFFFFE00000000
00000001FFFFFE00000000
00000000FFFFFE00000000
00000000FFFFFE00000000
00000000FFFFFC00000000
00000000FFFFFC00000000
000000007FFFFC00000000
000000007FFFF800000000
000000007FFFF800000000
000000007FFFF800000000
000000003FFFF800000000
000000003FFFF000000000
000000003FFFF000000000
000000001FFFF000000000
ENDCHAR
STARTCHAR 0057
ENCODING 87
SWIDTH 766 0
DWIDTH 138 0
BBX 131 126 3 0
BITMAP
FFFC00000000000FFF000000000003FFE0
FFFC00000000001FFF000000000003FFE0
7FFC00000000001FFF800000000003FFC0
7FFC00000000001FFF800000000007FFC0
7FFE00000000001FFF800000000007FFC0
7FFE00000000001FFF800000000007FFC0
7FFE00000000003FFF800000000007FF80
3FFE00000000003FFFC00000000007FF80
3FFE00000000003FFFC0000000000FFF80
3FFF00000000003FFFC0000000000FFF80
3FFF00000000003FFFC0000000000FFF80
1FFF00000000007FFFC0000000000FFF00
1FFF00000000007FFFE0000000001FFF00
1FFF80000000007FFFE0000000001FFF00
1FFF80000000007FFFE0000000001FFF00
0FFF80000000007FFFE0000000001FFE00
0FFF8000000000FFFFE0000000003FFE00
0FFF8000000000FFFFF0000000003FFE00
0FFFC000000000FFFFF0000000003FFE00
07FFC000000000FFFFF0000000003FFC00
07FFC000000000FFFFF0000000003FFC00
07FFC000000001FFFFF0000000007FFC00
07FFE000000001FFFFF8000000007FFC00
07FFE000000001FFBFF8000000007FF800
03FFE000000001FFBFF8000000007FF800
03FFE000000001FFBFF800000000FFF800
03FFE000000003FFBFF800000000FFF800
03FFF000000003FFBFFC00000000FFF000
01FFF000000003FF3FFC00000000FFF000
01FFF000000003FF1FFC00000000FFF000
01FFF000000003FF1FFC00000001FFF000
01FFF800000007FF1FFC00000001FFF000
00FFF800000007FF1FFE00000001FFE000
00FFF800000007FE1FFE00000001FFE000
00FFF800000007FE0FFE00000003FFE000
00FFF800000007FE0FFE00000003FFE000
00FFFC0000000FFE0FFE00000003FFC000
007FFC0000000FFE0FFF00000003FFC000
007FFC0000000FFC0FFF00000003FFC000
007FFC0000000FFC07FF00000007FFC000
007FFE0000000FFC07FF00000007FF8000
003FFE0000001FFC07FF00000007FF8000
003FFE0000001FFC07FF80000007FF8000
003FFE0000001FF807FF8000000FFF8000
003FFE0000001FF803FF8000000FFF0000
001FFF0000001FF803FF8000000FFF0000
001FFF0000003FF803FF8000000FFF0000
001FFF0000003FF803FFC000001FFF0000
001FFF0000003FF003FFC000001FFF0000
001FFF8000003FF001FFC000001FFE0000
000FFF8000003FF001FFC000001FFE0000
000FFF8000007FF001FFC000001FFE0000
000FFF8000007FF001FFC000003FFE0000
000FFF8000007FE001FFE000003FFC0000
0007FFC000007FE000FFE000003FFC0000
0007FFC000007FE000FFE000003FFC0000
0007FFC00000FFE000FFE000007FFC0000
0007FFC00000FFE000FFE000007FF80000
0003FFE00000FFC000FFF000007FF80000
0003FFE00000FFC0007FF000007FF80000
0003FFE00000FFC0007FF000007FF80000
0003FFE00001FFC0007FF00000FFF00000
0001FFE00001FFC0007FF00000FFF00000
0001FFF00001FF80007FF80000FFF00000
0001FFF00001FF80003FF80000FFF00000
0001FFF00001FF80003FF80001FFE00000
0001FFF00003FF80003FF80001FFE00000
0000FFF80003FF80003FF80001FFE00000
0000FFF80003FF00003FFC0001FFE00000
0000FFF80003FF00001FFC0001FFE00000
0000FFF80003FF00001FFC0003FFC00000
00007FF80007FF00001FFC0003FFC00000
00007FFC0007FF00001FFC0003FFC00000
00007FFC0007FE00001FFE0003FFC00000
00007FFC0007FE00000FFE0007FF800000
00003FFC0007FE00000FFE0007FF800000
00003FFE000FFE00000FFE0007FF800000
00003FFE000FFE00000FFE0007FF800000
00003FFE000FFC00000FFF000FFF000000
00003FFE000FFC000007FF000FFF000000
00001FFE000FFC000007FF000FFF000000
00001FFF001FFC000007FF000FFF000000
00001FFF001FFC000007FF000FFE000000
00001FFF001FF8000007FF801FFE000000
00000FFF001FF8000007FF801FFE000000
00000FFF801FF8000003FF801FFE000000
00000FFF803FF8000003FF801FFC000000
00000FFF803FF8000003FF803FFC000000
000007FF803FF0000003FFC03FFC000000
000007FF803FF0000003FFC03FFC000000
000007FFC03FF0000001FFC03FFC000000
000007FFC07FF0000001FFC03FF8000000
000003FFC07FF0000001FFC07FF8000000
000003FFC07FE0000001FFE07FF8000000
000003FFE07FE0000001FFE07FF8000000
000003FFE07FE0000000FFE07FF0000000
000003FFE0FFE0000000FFE0FFF0000000
000001FFE0FFE0000000FFE0FFF0000000
000001FFE0FFC0000000FFF0FFF0000000
000001FFF0FFC0000000FFF0FFE0000000
000001FFF0FFC00000007FF0FFE0000000
000000FFF1FFC00000007FF1FFE0000000
000000FFF1FFC00000007FF1FFE0000000
000000FFF9FF800000007FF9FFC0000000
000000FFF9FF800000007FF9FFC0000000
0000007FF9FF800000003FFBFFC0000000
0000007FFBFF800000003FFBFFC0000000
0000007FFBFF800000003FFBFFC0000000
0000007FFFFF000000003FFBFF80000000
0000007FFFFF000000003FFFFF80000000
0000003FFFFF000000001FFFFF80000000
0000003FFFFF000000001FFFFF80000000
0000003FFFFF000000001FFFFF00000000
0000003FFFFE000000001FFFFF00000000
0000001FFFFE000000001FFFFF00000000
0000001FFFFE000000000FFFFF00000000
0000001FFFFE000000000FFFFE00000000
0000001FFFFE000000000FFFFE00000000
0000000FFFFC000000000FFFFE00000000
0000000FFFFC000000000FFFFE00000000
0000000FFFFC0000000007FFFC00000000
0000000FFFFC0000000007FFFC00000000
0000000FFFFC0000000007FFFC00000000
00000007FFF80000000007FFFC00000000
00000007FFF80000000007FFF800000000
00000007FFF80000000003FFF800000000
ENDCHAR
STARTCHAR 0058
ENCODING 88
SWIDTH 533 0
DWIDTH 96 0
BBX 93 126 2 0
BITMAP
07FFF8000000000000FFFE00
03FFFC000000000000FFFE00
01FFFC000000000001FFFC00
01FFFE000000000001FFFC00
00FFFE000000000003FFF800
00FFFF000000000003FFF800
007FFF000000000007FFF000
007FFF800000000007FFE000
003FFF80000000000FFFE000
001FFFC0000000000FFFC000
001FFFC0000000001FFFC000
000FFFE0000000003FFF8000
000FFFE0000000003FFF8000
0007FFF0000000007FFF0000
0007FFF8000000007FFE0000
0003FFF800000000FFFE0000
0003FFFC00000000FFFC0000
0001FFFC00000001FFFC0000
0000FFFE00000001FFF80000
0000FFFE00000003FFF80000
00007FFF00000003FFF00000
00007FFF00000007FFF00000
00003FFF80000007FFE00000
00003FFF8000000FFFC00000
00001FFFC000000FFFC00000
00001FFFC000001FFF800000
00000FFFE000001FFF800000
000007FFE000003FFF000000
000007FFF000003FFF000000
000003FFF000007FFE000000
000003FFF800007FFC000000
000001FFF80000FFFC000000
000001FFFC0000FFF8000000
000000FFFC0001FFF8000000
0000007FFE0001FFF0000000
0000007FFE0003FFF0000000
0000003FFF0007FFE0000000
0000003FFF0007FFE0000000
0000001FFF800FFFC0000000
0000001FFF800FFF80000000
0000000FFFC01FFF80000000
0000000FFFC01FFF00000000
00000007FFE03FFF00000000
00000003FFE03FFE00000000
00000003FFF07FFE00000000
00000001FFF07FFC00000000
00000001FFF8FFF800000000
00000000FFF8FFF800000000
00000000FFFDFFF000000000
000000007FFFFFF000000000
000000007FFFFFE000000000
000000003FFFFFE000000000
000000001FFFFFC000000000
000000001FFFFFC000000000
000000000FFFFF8000000000
000000000FFFFF0000000000
0000000007FFFF0000000000
0000000007FFFE0000000000
0000000003FFFE0000000000
0000000003FFFE0000000000
0000000007FFFF0000000000
0000000007FFFF0000000000
000000000FFFFF8000000000
000000000FFFFFC000000000
000000001FFFFFC000000000
000000003FFFFFE000000000
000000003FFFFFE000000000
000000007FFFFFF000000000
000000007FFFFFF000000000
00000000FFFDFFF800000000
00000000FFF9FFFC00000000
00000001FFF8FFFC00000000
00000003FFF0FFFE00000000
00000003FFF07FFE00000000
00000007FFE07FFF00000000
00000007FFE03FFF00000000
0000000FFFC03FFF80000000
0000000FFF801FFF80000000
0000001FFF800FFFC0000000
0000003FFF000FFFE0000000
0000003FFF0007FFE0000000
0000007FFE0007FFF0000000
0000007FFE0003FFF0000000
000000FFFC0003FFF8000000
000000FFFC0001FFF8000000
000001FFF80001FFFC000000
000003FFF80000FFFE000000
000003FFF00000FFFE000000
000007FFE000007FFF000000
000007FFE000007FFF000000
00000FFFC000003FFF800000
00000FFFC000001FFF800000
00001FFF8000001FFFC00000
00003FFF8000000FFFE00000
00003FFF0000000FFFE00000
00007FFF00000007FFF00000
00007FFE00000007FFF00000
0000FFFE00000003FFF80000
0000FFFC00000003FFF80000
0001FFFC00000001FFFC0000
0003FFF800000001FFFE0000
0003FFF000000000FFFE0000
0007FFF0000000007FFF0000
0007FFE0000000007FFF0000
000FFFE0000000003FFF8000
000FFFC0000000003FFF8000
001FFFC0000000001FFFC000
001FFF80000000001FFFE000
003FFF80000000000FFFE000
007FFF00000000000FFFF000
007FFF000000000007FFF000
00FFFE000000000007FFF800
00FFFC000000000003FFF800
01FFFC000000000001FFFC00
01FFF8000000000001FFFE00
03FFF8000000000000FFFE00
07FFF0000000000000FFFF00
07FFF00000000000007FFF00
0FFFE00000000000007FFF80
0FFFE00000000000003FFF80
1FFFC00000000000003FFFC0
1FFFC00000000000001FFFC0
3FFF800000000000001FFFE0
7FFF000000000000000FFFF0
7FFF0000000000000007FFF0
FFFE0000000000000007FFF8
ENDCHAR
STARTCHAR 0059
ENCODING 89
SWIDTH 522 0
DWIDTH 94 0
BBX 93 126 0 0
BITMAP
FFFF0000000000000003FFF8
7FFF8000000000000007FFF0
3FFF8000000000000007FFF0
3FFFC00000000000000FFFE0
1FFFC00000000000001FFFC0
1FFFE00000000000001FFFC0
0FFFE00000000000003FFF80
0FFFF00000000000003FFF80
07FFF80000000000007FFF00
03FFF80000000000007FFF00
03FFFC000000000000FFFE00
01FFFC000000000000FFFE00
01FFFE000000000001FFFC00
00FFFE000000000001FFF800
00FFFF000000000003FFF800
007FFF000000000003FFF000
003FFF800000000007FFF000
003FFF800000000007FFE000
001FFFC0000000000FFFE000
001FFFC0000000001FFFC000
000FFFE0000000001FFFC000
000FFFF0000000003FFF8000
0007FFF0000000003FFF0000
0007FFF8000000007FFF0000
0003FFF8000000007FFE0000
0001FFFC00000000FFFE0000
0001FFFC00000000FFFC0000
0000FFFE00000001FFFC0000
0000FFFE00000001FFF80000
00007FFF00000003FFF80000
00007FFF00000003FFF00000
00003FFF80000007FFE00000
00001FFF80000007FFE00000
00001FFFC000000FFFC00000
00000FFFC000001FFFC00000
00000FFFE000001FFF800000
000007FFF000003FFF800000
000007FFF000003FFF000000
000003FFF800007FFF000000
000001FFF800007FFE000000
000001FFFC0000FFFC000000
000000FFFC0000FFFC000000
000000FFFE0001FFF8000000
0000007FFE0001FFF8000000
0000007FFF0003FFF0000000
0000003FFF0003FFF0000000
0000001FFF8007FFE0000000
0000001FFF8007FFE0000000
0000000FFFC00FFFC0000000
0000000FFFC01FFF80000000
00000007FFE01FFF80000000
00000007FFF03FFF00000000
00000003FFF03FFF00000000
00000001FFF87FFE00000000
00000001FFF87FFE00000000
00000000FFFCFFFC00000000
00000000FFFCFFFC00000000
000000007FFFFFF800000000
000000007FFFFFF000000000
000000003FFFFFF000000000
000000001FFFFFE000000000
000000001FFFFFE000000000
000000000FFFFFC000000000
000000000FFFFFC000000000
0000000007FFFF8000000000
0000000007FFFF8000000000
0000000003FFFF0000000000
0000000001FFFE0000000000
0000000001FFFE0000000000
0000000000FFFC0000000000
0000000000FFFC0000000000
00000000007FF80000000000
00000000007FF80000000000
00000000007FF80000000000
00000000007FF80000000000
00000000007FF80000000000
00000000007FF80000000000
00000000007FF80000000000
00000000007FF80000000000
00000000007FF80000000000
00000000007FF80000000000
00000000007FF80000000000
00000000007FF80000000000
00000000007FF80000000000
00000000007FF80000000000
00000000007FF80000000000
00000000007FF80000000000
00000000007FF80000000000
00000000007FF80000000000
00000000007FF80000000000
00000000007FF80000000000
00000000007FF80000000000
00000000007FF80000000000
00000000007FF80000000000
00000000007FF80000000000
00000000007FF80000000000
00000000007FF80000000000
00000000007FF80000000000
00000000007FF80000000000
00000000007FF80000000000
00000000007FF80000000000
00000000007FF80000000000
00000000007FF80000000000
00000000007FF80000000000
00000000007FF80000000000
00000000007FF80000000000
00000000007FF80000000000
00000000007FF80000000000
00000000007FF80000000000
00000000007FF80000000000
00000000007FF80000000000
00000000007FF80000000000
00000000007FF80000000000
00000000007FF80000000000
00000000007FF80000000000
00000000007FF80000000000
00000000007FF80000000000
00000000007FF80000000000
00000000007FF80000000000
00000000007FF80000000000
00000000007FF80000000000
00000000007FF80000000000
00000000007FF80000000000
00000000007FF80000000000
00000000007FF80000000000
00000000007FF80000000000
ENDCHAR
STARTCHAR 005A
ENCODING 90
SWIDTH 494 0
DWIDTH 89 0
BBX 74 126 8 0
BITMAP
FFFFFFFFFFFFFFFFFFC0
FFFFFFFFFFFFFFFFFFC0
FFFFFFFFFFFFFFFFFFC0
FFFFFFFFFFFFFFFFFFC0
FFFFFFFFFFFFFFFFFFC0
FFFFFFFFFFFFFFFFFFC0
FFFFFFFFFFFFFFFFFF80
FFFFFFFFFFFFFFFFFF80
FFFFFFFFFFFFFFFFFF00
FFFFFFFFFFFFFFFFFF00
FFFFFFFFFFFFFFFFFE00
FFFFFFFFFFFFFFFFFE00
000000000000007FFC00
000000000000007FFC00
00000000000000FFF800
00000000000000FFF800
00000000000001FFF000
00000000000001FFF000
00000000000003FFE000
00000000000003FFC000
00000000000007FFC000
00000000000007FF8000
0000000000000FFF8000
0000000000000FFF0000
0000000000001FFF0000
0000000000001FFE0000
0000000000003FFE0000
0000000000007FFC0000
0000000000007FFC0000
000000000000FFF80000
000000000000FFF80000
000000000001FFF00000
000000000001FFF00000
000000000003FFE00000
000000000003FFE00000
000000000007FFC00000
000000000007FFC00000
00000000000FFF800000
00000000000FFF800000
00000000001FFF000000
00000000001FFE000000
00000000003FFE000000
00000000007FFC000000
00000000007FFC000000
0000000000FFF8000000
0000000000FFF8000000
0000000001FFF0000000
0000000001FFF0000000
0000000003FFE0000000
0000000003FFE0000000
0000000007FFC0000000
0000000007FFC0000000
000000000FFF80000000
000000000FFF80000000
000000001FFF00000000
000000001FFF00000000
000000003FFE00000000
000000007FFE00000000
000000007FFC00000000
00000000FFF800000000
00000000FFF800000000
00000001FFF000000000
00000001FFF000000000
00000003FFE000000000
00000003FFE000000000
00000007FFC000000000
00000007FFC000000000
0000000FFF8000000000
0000000FFF8000000000
0000001FFF0000000000
0000001FFF0000000000
0000003FFE0000000000
0000007FFE0000000000
0000007FFC0000000000
000000FFFC0000000000
000000FFF80000000000
000001FFF80000000000
000001FFF00000000000
000003FFE00000000000
000003FFE00000000000
000007FFC00000000000
000007FFC00000000000
00000FFF800000000000
00000FFF800000000000
00001FFF000000000000
00001FFF000000000000
00003FFE000000000000
00007FFE000000000000
00007FFC000000000000
0000FFFC000000000000
0000FFF8000000000000
0001FFF8000000000000
0001FFF0000000000000
0003FFF0000000000000
0003FFE0000000000000
0007FFE0000000000000
0007FFC0000000000000
000FFF80000000000000
000FFF80000000000000
001FFF00000000000000
001FFF00000000000000
003FFE00000000000000
007FFE00000000000000
007FFC00000000000000
00FFFC00000000000000
00FFF800000000000000
01FFF800000000000000
01FFF000000000000000
03FFF000000000000000
03FFE000000000000000
07FFE000000000000000
07FFC000000000000000
0FFFC000000000000000
0FFF8000000000000000
1FFF80000000000000C0
1FFFFFFFFFFFFFFFFFC0
3FFFFFFFFFFFFFFFFFC0
7FFFFFFFFFFFFFFFFFC0
7FFFFFFFFFFFFFFFFFC0
FFFFFFFFFFFFFFFFFFC0
FFFFFFFFFFFFFFFFFFC0
FFFFFFFFFFFFFFFFFFC0
FFFFFFFFFFFFFFFFFFC0
FFFFFFFFFFFFFFFFFFC0
FFFFFFFFFFFFFFFFFFC0
FFFFFFFFFFFFFFFFFFC0
ENDCHAR
STARTCHAR 005B
ENCODING 91
SWIDTH 383 0
DWIDTH 69 0
BBX 37 162 15 -36
BITMAP
FFFFFFFFF8
FFFFFFFFF8
FFFFFFFFF8
FFFFFFFFF8
FFFFFFFFF8
FFFFFFFFF8
FFFFFFFFF8
FFFFFFFFF8
FFFFFFFFF8
FFFFFFFFF8
FFFFFFFFF8
FFF8000018
FFF8000000
FFF8000000
FFF8000000
FFF8000000
FFF8000000
FFF8000000
FFF8000000
FFF8000000
FFF8000000
FFF8000000
FFF8000000
FFF8000000
FFF8000000
FFF8000000
FFF8000000
FFF8000000
FFF8000000
FFF8000000
FFF8000000
FFF8000000
FFF8000000
FFF8000000
FFF8000000
FFF8000000
FFF8000000
FFF8000000
FFF8000000
FFF8000000
FFF8000000
FFF8000000
FFF8000000
FFF8000000
FFF8000000
FFF8000000
FFF8000000
FFF8000000
FFF8000000
FFF8000000
FFF8000000
FFF8000000
FFF8000000
FFF8000000
FFF8000000
FFF8000000
FFF8000000
FFF8000000
FFF8000000
FFF8000000
FFF8000000
FFF8000000
FFF8000000
FFF8000000
FFF8000000
FFF8000000
FFF8000000
FFF8000000
FFF8000000
FFF8000000
FFF8000000
FFF8000000
FFF8000000
FFF8000000
FFF8000000
FFF8000000
FFF8000000
FFF8000000
FFF8000000
FFF8000000
FFF8000000
FFF8000000
FFF8000000
FFF8000000
FFF8000000
FFF8000000
FFF8000000
FFF8000000
FFF8000000
FFF8000000
FFF8000000
FFF8000000
FFF8000000
FFF8000000
FFF8000000
FFF8000000
FFF8000000
FFF8000000
FFF8000000
FFF8000000
FFF8000000
FFF8000000
FFF8000000
FFF8000000
FFF8000000
FFF8000000
FFF8000000
FFF8000000
FFF8000000
FFF8000000
FFF8000000
FFF8000000
FFF8000000
FFF8000000
FFF8000000
FFF8000000
FFF8000000
FFF8000000
FFF8000000
FFF8000000
FFF8000000
FFF8000000
FFF8000000
FFF8000000
FFF8000000
FFF8000000
FFF8000000
FFF8000000
FFF8000000
FFF8000000
FFF8000000
FFF8000000
FFF8000000
FFF8000000
FFF8000000
FFF8000000
FFF8000000
FFF8000000
FFF8000000
FFF8000000
FFF8000000
FFF8000000
FFF8000000
FFF8000000
FFF8000000
FFF8000000
FFF8000000
FFF8000000
FFF8000000
FFF8000000
FFF8000008
FFFFFFFFF8
FFFFFFFFF8
FFFFFFFFF8
FFFFFFFFF8
FFFFFFFFF8
FFFFFFFFF8
FFFFFFFFF8
FFFFFFFFF8
FFFFFFFFF8
FFFFFFFFF8
FFFFFFFFF8
ENDCHAR
STARTCHAR 005C
ENCODING 92
SWIDTH 427 0
DWIDTH 77 0
BBX 76 126 0 0
BITMAP
FFFC0000000000000000
7FFE0000000000000000
7FFE0000000000000000
3FFF0000000000000000
3FFF0000000000000000
1FFF8000000000000000
1FFF8000000000000000
0FFFC000000000000000
0FFFC000000000000000
07FFE000000000000000
07FFE000000000000000
03FFF000000000000000
03FFF000000000000000
01FFF800000000000000
01FFF800000000000000
00FFFC00000000000000
00FFFC00000000000000
007FFE00000000000000
007FFE00000000000000
003FFF00000000000000
003FFF00000000000000
001FFF80000000000000
001FFF80000000000000
000FFFC0000000000000
000FFFC0000000000000
0007FFE0000000000000
0007FFE0000000000000
0003FFF0000000000000
0003FFF0000000000000
0001FFF8000000000000
0001FFF8000000000000
0000FFFC000000000000
0000FFFC000000000000
00007FFE000000000000
00007FFE000000000000
00003FFF000000000000
00003FFF000000000000
00001FFF800000000000
00001FFF800000000000
00000FFFC00000000000
00000FFFC00000000000
000007FFE00000000000
000007FFE00000000000
000003FFE00000000000
000003FFF00000000000
000001FFF00000000000
000001FFF80000000000
000000FFF80000000000
000000FFFC0000000000
0000007FFC0000000000
0000007FFE0000000000
0000003FFE0000000000
0000003FFF0000000000
0000001FFF0000000000
0000001FFF8000000000
0000000FFF8000000000
0000000FFFC000000000
00000007FFC000000000
00000007FFE000000000
00000003FFE000000000
00000003FFF000000000
00000001FFF000000000
00000001FFF800000000
00000000FFF800000000
00000000FFFC00000000
000000007FFC00000000
000000007FFE00000000
000000003FFE00000000
000000003FFF00000000
000000001FFF00000000
000000001FFF80000000
000000000FFF80000000
000000000FFFC0000000
0000000007FFC0000000
0000000007FFE0000000
0000000003FFE0000000
0000000003FFF0000000
0000000001FFF0000000
0000000001FFF8000000
0000000000FFF8000000
0000000000FFFC000000
00000000007FFC000000
00000000007FFE000000
00000000003FFE000000
00000000003FFF000000
00000000001FFF000000
00000000001FFF800000
00000000000FFF800000
00000000000FFFC00000
000000000007FFC00000
000000000007FFE00000
000000000003FFE00000
000000000003FFF00000
000000000001FFF00000
000000000001FFF80000
000000000000FFF80000
000000000000FFFC0000
0000000000007FFC0000
0000000000007FFE0000
0000000000003FFE0000
0000000000003FFF0000
0000000000001FFF0000
0000000000001FFF8000
0000000000000FFF8000
0000000000000FFFC000
00000000000007FFC000
00000000000007FFE000
00000000000003FFE000
00000000000003FFF000
00000000000001FFF000
00000000000001FFF800
00000000000000FFF800
00000000000000FFFC00
000000000000007FFC00
000000000000007FFE00
000000000000003FFE00
000000000000003FFF00
000000000000001FFF00
000000000000001FFF80
000000000000000FFF80
000000000000000FFFC0
0000000000000007FFC0
0000000000000007FFE0
0000000000000003FFE0
0000000000000003FFF0
0000000000000001FFF0
ENDCHAR
STARTCHAR 005D
ENCODING 93
SWIDTH 350 0
DWIDTH 63 0
BBX 37 162 11 -36
BITMAP
FFFFFFFFF8
FFFFFFFFF8
FFFFFFFFF8
FFFFFFFFF8
FFFFFFFFF8
FFFFFFFFF8
FFFFFFFFF8
FFFFFFFFF8
FFFFFFFFF8
FFFFFFFFF8
FFFFFFFFF8
800000FFF8
000000FFF8
000000FFF8
000000FFF8
000000FFF8
000000FFF8
000000FFF8
000000FFF8
000000FFF8
000000FFF8
000000FFF8
000000FFF8
000000FFF8
000000FFF8
000000FFF8
000000FFF8
000000FFF8
000000FFF8
000000FFF8
000000FFF8
000000FFF8
000000FFF8
000000FFF8
000000FFF8
000000FFF8
000000FFF8
000000FFF8
000000FFF8
000000FFF8
000000FFF8
000000FFF8
000000FFF8
000000FFF8
000000FFF8
000000FFF8
000000FFF8
000000FFF8
000000FFF8
000000FFF8
000000FFF8
000000FFF8
000000FFF8
000000FFF8
000000FFF8
000000FFF8
000000FFF8
000000FFF8
000000FFF8
000000FFF8
000000FFF8
000000FFF8
000000FFF8
000000FFF8
000000FFF8
000000FFF8
000000FFF8
000000FFF8
000000FFF8
000000FFF8
000000FFF8
000000FFF8
000000FFF8
000000FFF8
000000FFF8
000000FFF8
000000FFF8
000000FFF8
000000FFF8
000000FFF8
000000FFF8
000000FFF8
000000FFF8
000000FFF8
000000FFF8
000000FFF8
000000FFF8
000000FFF8
000000FFF8
000000FFF8
000000FFF8
000000FFF8
000000FFF8
000000FFF8
000000FFF8
000000FFF8
000000FFF8
000000FFF8
000000FFF8
000000FFF8
000000FFF8
000000FFF8
000000FFF8
000000FFF8
000000FFF8
000000FFF8
000000FFF8
000000FFF8
000000FFF8
000000FFF8
000000FFF8
000000FFF8
000000FFF8
000000FFF8
000000FFF8
000000FFF8
000000FFF8
000000FFF8
000000FFF8
000000FFF8
000000FFF8
000000FFF8
000000FFF8
000000FFF8
000000FFF8
000000FFF8
000000FFF8
000000FFF8
000000FFF8
000000FFF8
000000FFF8
000000FFF8
000000FFF8
000000FFF8
000000FFF8
000000FFF8
000000FFF8
000000FFF8
000000FFF8
000000FFF8
000000FFF8
000000FFF8
000000FFF8
000000FFF8
000000FFF8
000000FFF8
000000FFF8
000000FFF8
000000FFF8
000000FFF8
C00000FFF8
FFFFFFFFF8
FFFFFFFFF8
FFFFFFFFF8
FFFFFFFFF8
FFFFFFFFF8
FFFFFFFFF8
FFFFFFFFF8
FFFFFFFFF8
FFFFFFFFF8
FFFFFFFFF8
FFFFFFFFF8
ENDCHAR
STARTCHAR 005E
ENCODING 94
SWIDTH 361 0
DWIDTH 65 0
BBX 62 48 2 77
BITMAP
0000001FE0000000
0000003FF0000000
0000003FF0000000
0000007FF8000000
0000007FF8000000
000000FFFC000000
000000FFFC000000
000001FFFE000000
000003FFFE000000
000003FFFF000000
000007FFFF800000
000007FFFF800000
00000FFFFFC00000
00000FFDFFC00000
00001FF8FFE00000
00003FF8FFE00000
00003FF07FF00000
00007FF03FF80000
00007FE03FF80000
0000FFC01FFC0000
0000FFC01FFC0000
0001FF800FFE0000
0001FF8007FE0000
0003FF0007FF0000
0007FE0003FF8000
0007FE0001FF8000
000FFC0001FFC000
000FFC0000FFC000
001FF80000FFE000
001FF000007FE000
003FF000003FF000
007FE000003FF800
007FC000001FF800
00FFC000001FFC00
00FF8000000FFC00
01FF80000007FE00
01FF00000007FE00
03FE00000003FF00
07FE00000001FF80
07FC00000001FF80
0FFC00000000FFC0
0FF800000000FFC0
1FF0000000007FE0
1FF0000000003FE0
3FE0000000003FF0
3FE0000000001FF0
7FC0000000001FF8
FF80000000000FFC
ENDCHAR
STARTCHAR 005F
ENCODING 95
SWIDTH 722 0
DWIDTH 130 0
BBX 110 11 10 -24
BITMAP
FFFFFFFFFFFFFFFFFFFFFFFFFFFC
FFFFFFFFFFFFFFFFFFFFFFFFFFFC
FFFFFFFFFFFFFFFFFFFFFFFFFFFC
FFFFFFFFFFFFFFFFFFFFFFFFFFFC
FFFFFFFFFFFFFFFFFFFFFFFFFFFC
FFFFFFFFFFFFFFFFFFFFFFFFFFFC
FFFFFFFFFFFFFFFFFFFFFFFFFFFC
FFFFFFFFFFFFFFFFFFFFFFFFFFFC
FFFFFFFFFFFFFFFFFFFFFFFFFFFC
FFFFFFFFFFFFFFFFFFFFFFFFFFFC
FFFFFFFFFFFFFFFFFFFFFFFFFFFC
ENDCHAR
STARTCHAR 0060
ENCODING 96
SWIDTH 333 0
DWIDTH 60 0
BBX 31 25 14 100
BITMAP
FFF80000
7FFC0000
3FFC0000
1FFE0000
0FFF0000
07FF8000
03FF8000
03FFC000
01FFE000
00FFF000
007FF000
003FF800
001FFC00
000FFE00
0007FE00
0007FF00
0003FF80
0001FFC0
0000FFC0
00007FE0
00003FF0
00001FF8
00001FF8
00000FFC
000007FE
ENDCHAR
STARTCHAR 0061
ENCODING 97
SWIDTH 461 0
DWIDTH 83 0
BBX 59 90 11 0
BITMAP
FFFFFFFFFFFC0000
FFFFFFFFFFFF8000
FFFFFFFFFFFFE000
FFFFFFFFFFFFF800
FFFFFFFFFFFFFC00
FFFFFFFFFFFFFE00
FFFFFFFFFFFFFF00
FFFFFFFFFFFFFF00
FFFFFFFFFFFFFF80
FFFFFFFFFFFFFF80
FE00000001FFFFC0
80000000001FFFC0
000000000007FFC0
000000000007FFE0
000000000003FFE0
000000000003FFE0
000000000001FFE0
000000000001FFE0
000000000001FFE0
000000000001FFE0
000000000001FFE0
000000000001FFE0
000000000001FFE0
000000000001FFE0
000000000001FFE0
000000000001FFE0
000000000001FFE0
000000000001FFE0
000000000001FFE0
000000000001FFE0
000000000001FFE0
000000000001FFE0
000000000001FFE0
000000000001FFE0
0007FFFFFFFFFFE0
007FFFFFFFFFFFE0
00FFFFFFFFFFFFE0
03FFFFFFFFFFFFE0
07FFFFFFFFFFFFE0
0FFFFFFFFFFFFFE0
1FFFFFFFFFFFFFE0
1FFFFFFFFFFFFFE0
3FFFFFFFFFFFFFE0
3FFF80000001FFE0
7FFE00000001FFE0
7FFC00000001FFE0
7FF800000001FFE0
FFF800000001FFE0
FFF000000001FFE0
FFF000000001FFE0
FFF000000001FFE0
FFF000000001FFE0
FFF000000001FFE0
FFF000000001FFE0
FFF000000001FFE0
FFF000000001FFE0
FFF000000001FFE0
FFF000000001FFE0
FFF000000001FFE0
FFF000000001FFE0
FFF000000001FFE0
FFF000000001FFE0
FFF000000001FFE0
FFF000000001FFE0
FFF000000001FFE0
FFF000000001FFE0
FFF000000001FFE0
FFF000000001FFE0
FFF000000001FFE0
FFF000000001FFE0
FFF000000001FFE0
FFF000000001FFE0
FFF000000001FFE0
FFF000000001FFE0
FFF800000001FFE0
FFF800000001FFE0
FFFC00000001FFE0
7FFE00000001FFE0
7FFF00000001FFE0
7FFFF0000001FFE0
3FFFFFFFFFFFFFE0
3FFFFFFFFFFFFFE0
1FFFFFFFFFFFFFE0
1FFFFFFFFFFFFFE0
0FFFFFFFFFFFFFE0
07FFFFFFFFFFFFE0
03FFFFFFFFFFFFE0
01FFFFFFFFFFFFE0
007FFFFFFFFFFFE0
0007FFFFFFFFFFE0
ENDCHAR
STARTCHAR 0062
ENCODING 98
SWIDTH 466 0
DWIDTH 84 0
BBX 60 126 12 0
BITMAP
FFF0000000000000
FFF0000000000000
FFF0000000000000
FFF0000000000000
FFF0000000000000
FFF0000000000000
FFF0000000000000
FFF0000000000000
FFF0000000000000
FFF0000000000000
FFF0000000000000
FFF0000000000000
FFF0000000000000
FFF0000000000000
FFF0000000000000
FFF0000000000000
FFF0000000000000
FFF0000000000000
FFF0000000000000
FFF0000000000000
FFF0000000000000
FFF0000000000000
FFF0000000000000
FFF0000000000000
FFF0000000000000
FFF0000000000000
FFF0000000000000
FFF0000000000000
FFF0000000000000
FFF0000000000000
FFF0000000000000
FFF0000000000000
FFF0000000000000
FFF0000000000000
FFF0000000000000
FFF0000000000000
FFFFFFFFFFFE0000
FFFFFFFFFFFFE000
FFFFFFFFFFFFF800
FFFFFFFFFFFFFC00
FFFFFFFFFFFFFE00
FFFFFFFFFFFFFF00
FFFFFFFFFFFFFF80
FFFFFFFFFFFFFFC0
FFFFFFFFFFFFFFC0
FFFFFFFFFFFFFFC0
FFFFFFFFFFFFFFE0
FFF00000000FFFE0
FFF000000007FFE0
FFF000000003FFF0
FFF000000001FFF0
FFF000000001FFF0
FFF000000000FFF0
FFF000000000FFF0
FFF000000000FFF0
FFF000000000FFF0
FFF000000000FFF0
FFF000000000FFF0
FFF000000000FFF0
FFF000000000FFF0
FFF000000000FFF0
FFF000000000FFF0
FFF000000000FFF0
FFF000000000FFF0
FFF000000000FFF0
FFF000000000FFF0
FFF000000000FFF0
FFF000000000FFF0
FFF000000000FFF0
FFF000000000FFF0
FFF000000000FFF0
FFF000000000FFF0
FFF000000000FFF0
FFF000000000FFF0
FFF000000000FFF0
FFF000000000FFF0
FFF000000000FFF0
FFF000000000FFF0
FFF000000000FFF0
FFF000000000FFF0
FFF000000000FFF0
FFF000000000FFF0
FFF000000000FFF0
FFF000000000FFF0
FFF000000000FFF0
FFF000000000FFF0
FFF000000000FFF0
FFF000000000FFF0
FFF000000000FFF0
FFF000000000FFF0
FFF000000000FFF0
FFF000000000FFF0
FFF000000000FFF0
FFF000000000FFF0
FFF000000000FFF0
FFF000000000FFF0
FFF000000000FFF0
FFF000000000FFF0
FFF000000000FFF0
FFF000000000FFF0
FFF000000000FFF0
FFF000000000FFF0
FFF000000000FFF0
FFF000000000FFF0
FFF000000000FFF0
FFF000000000FFF0
FFF000000000FFF0
FFF000000000FFF0
FFF000000000FFF0
FFF000000000FFF0
FFF000000001FFF0
FFF000000001FFF0
FFF000000001FFF0
FFF000000003FFE0
FFF00000000FFFE0
FFF0000000FFFFE0
FFFFFFFFFFFFFFC0
FFFFFFFFFFFFFFC0
FFFFFFFFFFFFFF80
FFFFFFFFFFFFFF80
FFFFFFFFFFFFFF00
FFFFFFFFFFFFFE00
FFFFFFFFFFFFFC00
FFFFFFFFFFFFF000
FFFFFFFFFFFFC000
FFFFFFFFFFFE0000
ENDCHAR
STARTCHAR 0063
ENCODING 99
SWIDTH 388 0
DWIDTH 70 0
BBX 51 90 12 0
BITMAP
0007FFFFFFFFE0
003FFFFFFFFFE0
00FFFFFFFFFFE0
03FFFFFFFFFFE0
07FFFFFFFFFFE0
0FFFFFFFFFFFE0
1FFFFFFFFFFFE0
1FFFFFFFFFFFE0
3FFFFFFFFFFFE0
3FFFFFFFFFFFE0
7FFFFFFFFFFFE0
7FFF8000000000
7FFE0000000000
FFFC0000000000
FFF80000000000
FFF80000000000
FFF00000000000
FFF00000000000
FFF00000000000
FFF00000000000
FFF00000000000
FFF00000000000
FFF00000000000
FFF00000000000
FFF00000000000
FFF00000000000
FFF00000000000
FFF00000000000
FFF00000000000
FFF00000000000
FFF00000000000
FFF00000000000
FFF00000000000
FFF00000000000
FFF00000000000
FFF00000000000
FFF00000000000
FFF00000000000
FFF00000000000
FFF00000000000
FFF00000000000
FFF00000000000
FFF00000000000
FFF00000000000
FFF00000000000
FFF00000000000
FFF00000000000
FFF00000000000
FFF00000000000
FFF00000000000
FFF00000000000
FFF00000000000
FFF00000000000
FFF00000000000
FFF00000000000
FFF00000000000
FFF00000000000
FFF00000000000
FFF00000000000
FFF00000000000
FFF00000000000
FFF00000000000
FFF00000000000
FFF00000000000
FFF00000000000
FFF00000000000
FFF00000000000
FFF00000000000
FFF00000000000
FFF00000000000
FFF00000000000
FFF00000000000
FFF00000000000
FFF00000000000
FFF80000000000
FFF80000000000
FFFC0000000000
7FFE0000000000
7FFF0000000000
7FFFFFFFFFFFE0
3FFFFFFFFFFFE0
3FFFFFFFFFFFE0
1FFFFFFFFFFFE0
1FFFFFFFFFFFE0
0FFFFFFFFFFFE0
07FFFFFFFFFFE0
03FFFFFFFFFFE0
01FFFFFFFFFFE0
007FFFFFFFFFE0
0007FFFFFFFFE0
ENDCHAR
STARTCHAR 0064
ENCODING 100
SWIDTH 466 0
DWIDTH 84 0
BBX 60 126 12 0
BITMAP
000000000000FFF0
000000000000FFF0
000000000000FFF0
000000000000FFF0
000000000000FFF0
000000000000FFF0
000000000000FFF0
000000000000FFF0
000000000000FFF0
000000000000FFF0
000000000000FFF0
000000000000FFF0
000000000000FFF0
000000000000FFF0
000000000000FFF0
000000000000FFF0
000000000000FFF0
000000000000FFF0
000000000000FFF0
000000000000FFF0
000000000000FFF0
000000000000FFF0
000000000000FFF0
000000000000FFF0
000000000000FFF0
000000000000FFF0
000000000000FFF0
000000000000FFF0
000000000000FFF0
000000000000FFF0
000000000000FFF0
000000000000FFF0
000000000000FFF0
000000000000FFF0
000000000000FFF0
000000000000FFF0
0007FFFFFFFFFFF0
003FFFFFFFFFFFF0
00FFFFFFFFFFFFF0
03FFFFFFFFFFFFF0
07FFFFFFFFFFFFF0
0FFFFFFFFFFFFFF0
1FFFFFFFFFFFFFF0
1FFFFFFFFFFFFFF0
3FFFFFFFFFFFFFF0
3FFFFFFFFFFFFFF0
7FFFFFFFFFFFFFF0
7FFF00000000FFF0
7FFE00000000FFF0
FFFC00000000FFF0
FFF800000000FFF0
FFF800000000FFF0
FFF000000000FFF0
FFF000000000FFF0
FFF000000000FFF0
FFF000000000FFF0
FFF000000000FFF0
FFF000000000FFF0
FFF000000000FFF0
FFF000000000FFF0
FFF000000000FFF0
FFF000000000FFF0
FFF000000000FFF0
FFF000000000FFF0
FFF000000000FFF0
FFF000000000FFF0
FFF000000000FFF0
FFF000000000FFF0
FFF000000000FFF0
FFF000000000FFF0
FFF000000000FFF0
FFF000000000FFF0
FFF000000000FFF0
FFF000000000FFF0
FFF000000000FFF0
FFF000000000FFF0
FFF000000000FFF0
FFF000000000FFF0
FFF000000000FFF0
FFF000000000FFF0
FFF000000000FFF0
FFF000000000FFF0
FFF000000000FFF0
FFF000000000FFF0
FFF000000000FFF0
FFF000000000FFF0
FFF000000000FFF0
FFF000000000FFF0
FFF000000000FFF0
FFF000000000FFF0
FFF000000000FFF0
FFF000000000FFF0
FFF000000000FFF0
FFF000000000FFF0
FFF000000000FFF0
FFF000000000FFF0
FFF000000000FFF0
FFF000000000FFF0
FFF000000000FFF0
FFF000000000FFF0
FFF000000000FFF0
FFF000000000FFF0
FFF000000000FFF0
FFF000000000FFF0
FFF000000000FFF0
FFF000000000FFF0
FFF000000000FFF0
FFF000000000FFF0
FFF000000000FFF0
FFF000000000FFF0
FFF800000000FFF0
FFF800000000FFF0
FFFC00000000FFF0
7FFC00000000FFF0
7FFF00000000FFF0
7FFFF0000000FFF0
3FFFFFFFFFFFFFF0
3FFFFFFFFFFFFFF0
1FFFFFFFFFFFFFF0
1FFFFFFFFFFFFFF0
0FFFFFFFFFFFFFF0
07FFFFFFFFFFFFF0
03FFFFFFFFFFFFF0
00FFFFFFFFFFFFF0
003FFFFFFFFFFFF0
0007FFFFFFFFFFF0
ENDCHAR
STARTCHAR 0065
ENCODING 101
SWIDTH 455 0
DWIDTH 82 0
BBX 59 90 12 0
BITMAP
0007FFFFFFFC0000
003FFFFFFFFF8000
00FFFFFFFFFFE000
03FFFFFFFFFFF800
07FFFFFFFFFFFC00
0FFFFFFFFFFFFE00
1FFFFFFFFFFFFF00
1FFFFFFFFFFFFF00
3FFFFFFFFFFFFF80
3FFFFFFFFFFFFF80
7FFFC000007FFFC0
7FFE0000001FFFC0
7FFC00000007FFC0
FFF800000003FFE0
FFF800000003FFE0
FFF800000003FFE0
FFF000000001FFE0
FFF000000001FFE0
FFF000000001FFE0
FFF000000001FFE0
FFF000000001FFE0
FFF000000001FFE0
FFF000000001FFE0
FFF000000001FFE0
FFF000000001FFE0
FFF000000001FFE0
FFF000000001FFE0
FFF000000001FFE0
FFF000000001FFE0
FFF000000001FFE0
FFF000000001FFE0
FFF000000001FFE0
FFF000000001FFE0
FFF000000001FFE0
FFFFFFFFFFFFFFE0
FFFFFFFFFFFFFFE0
FFFFFFFFFFFFFFE0
FFFFFFFFFFFFFFE0
FFFFFFFFFFFFFFE0
FFFFFFFFFFFFFFE0
FFFFFFFFFFFFFFE0
FFFFFFFFFFFFFFE0
FFFFFFFFFFFFFFE0
FFF0000000000000
FFF0000000000000
FFF0000000000000
FFF0000000000000
FFF0000000000000
FFF0000000000000
FFF0000000000000
FFF0000000000000
FFF0000000000000
FFF0000000000000
FFF0000000000000
FFF0000000000000
FFF0000000000000
FFF0000000000000
FFF0000000000000
FFF0000000000000
FFF0000000000000
FFF0000000000000
FFF0000000000000
FFF0000000000000
FFF0000000000000
FFF0000000000000
FFF0000000000000
FFF0000000000000
FFF0000000000000
FFF0000000000000
FFF0000000000000
FFF0000000000000
FFF0000000000000
FFF0000000000000
FFF0000000000000
FFF8000000000000
FFF8000000000000
FFFC000000000000
7FFE000000000000
7FFF000000000020
7FFFF00000000FE0
3FFFFFFFFFFFFFE0
3FFFFFFFFFFFFFE0
1FFFFFFFFFFFFFE0
1FFFFFFFFFFFFFE0
0FFFFFFFFFFFFFE0
07FFFFFFFFFFFFE0
03FFFFFFFFFFFFE0
00FFFFFFFFFFFFE0
003FFFFFFFFFFFE0
0007FFFFFFFFFFE0
ENDCHAR
STARTCHAR 0066
ENCODING 102
SWIDTH 277 0
DWIDTH 50 0
BBX 36 126 12 0
BITMAP
0007FFFFF0
003FFFFFF0
00FFFFFFF0
03FFFFFFF0
07FFFFFFF0
0FFFFFFFF0
1FFFFFFFF0
1FFFFFFFF0
3FFFFFFFF0
3FFFFFFFF0
7FFFFFFFF0
7FFF000010
7FFE000000
FFFC000000
FFF8000000
FFF8000000
FFF0000000
FFF0000000
FFF0000000
FFF0000000
FFF0000000
FFF0000000
FFF0000000
FFF0000000
FFF0000000
FFF0000000
FFF0000000
FFF0000000
FFF0000000
FFF0000000
FFF0000000
FFF0000000
FFF0000000
FFF0000000
FFF0000000
FFF0000000
FFFFFFFFF0
FFFFFFFFF0
FFFFFFFFF0
FFFFFFFFF0
FFFFFFFFF0
FFFFFFFFF0
FFFFFFFFF0
FFFFFFFFF0
FFFFFFFFF0
FFFFFFFFF0
FFFFFFFFF0
FFF0000000
FFF0000000
FFF0000000
FFF0000000
FFF0000000
FFF0000000
FFF0000000
FFF0000000
FFF0000000
FFF0000000
FFF0000000
FFF0000000
FFF0000000
FFF0000000
FFF0000000
FFF0000000
FFF0000000
FFF0000000
FFF0000000
FFF0000000
FFF0000000
FFF0000000
FFF0000000
FFF0000000
FFF0000000
FFF0000000
FFF0000000
FFF0000000
FFF0000000
FFF0000000
FFF0000000
FFF0000000
FFF0000000
FFF0000000
FFF0000000
FFF0000000
FFF0000000
FFF0000000
FFF0000000
FFF0000000
FFF0000000
FFF0000000
FFF0000000
FFF0000000
FFF0000000
FFF0000000
FFF0000000
FFF0000000
FFF0000000
FFF0000000
FFF0000000
FFF0000000
FFF0000000
FFF0000000
FFF0000000
FFF0000000
FFF0000000
FFF0000000
FFF0000000
FFF0000000
FFF0000000
FFF0000000
FFF0000000
FFF0000000
FFF0000000
FFF0000000
FFF0000000
FFF0000000
FFF0000000
FFF0000000
FFF0000000
FFF0000000
FFF0000000
FFF0000000
FFF0000000
FFF0000000
FFF0000000
FFF0000000
FFF0000000
ENDCHAR
STARTCHAR 0067
ENCODING 103
SWIDTH 466 0
DWIDTH 84 0
BBX 60 126 12 -36
BITMAP
0007FFFFFFFFFFF0
003FFFFFFFFFFFF0
00FFFFFFFFFFFFF0
03FFFFFFFFFFFFF0
07FFFFFFFFFFFFF0
0FFFFFFFFFFFFFF0
1FFFFFFFFFFFFFF0
1FFFFFFFFFFFFFF0
3FFFFFFFFFFFFFF0
3FFFFFFFFFFFFFF0
7FFFFFFFFFFFFFF0
7FFF00000000FFF0
7FFE00000000FFF0
FFFC00000000FFF0
FFF800000000FFF0
FFF800000000FFF0
FFF000000000FFF0
FFF000000000FFF0
FFF000000000FFF0
FFF000000000FFF0
FFF000000000FFF0
FFF000000000FFF0
FFF000000000FFF0
FFF000000000FFF0
FFF000000000FFF0
FFF000000000FFF0
FFF000000000FFF0
FFF000000000FFF0
FFF000000000FFF0
FFF000000000FFF0
FFF000000000FFF0
FFF000000000FFF0
FFF000000000FFF0
FFF000000000FFF0
FFF000000000FFF0
FFF000000000FFF0
FFF000000000FFF0
FFF000000000FFF0
FFF000000000FFF0
FFF000000000FFF0
FFF000000000FFF0
FFF000000000FFF0
FFF000000000FFF0
FFF000000000FFF0
FFF000000000FFF0
FFF000000000FFF0
FFF000000000FFF0
FFF000000000FFF0
FFF000000000FFF0
FFF000000000FFF0
FFF000000000FFF0
FFF000000000FFF0
FFF000000000FFF0
FFF000000000FFF0
FFF000000000FFF0
FFF000000000FFF0
FFF000000000FFF0
FFF000000000FFF0
FFF000000000FFF0
FFF000000000FFF0
FFF000000000FFF0
FFF000000000FFF0
FFF000000000FFF0
FFF000000000FFF0
FFF000000000FFF0
FFF000000000FFF0
FFF000000000FFF0
FFF000000000FFF0
FFF000000000FFF0
FFF000000000FFF0
FFF000000000FFF0
FFF000000000FFF0
FFF000000000FFF0
FFF000000000FFF0
FFF800000000FFF0
FFF800000000FFF0
FFFC00000000FFF0
7FFC00000000FFF0
7FFF00000000FFF0
7FFFF0000000FFF0
3FFFFFFFFFFFFFF0
3FFFFFFFFFFFFFF0
1FFFFFFFFFFFFFF0
1FFFFFFFFFFFFFF0
0FFFFFFFFFFFFFF0
07FFFFFFFFFFFFF0
03FFFFFFFFFFFFF0
01FFFFFFFFFFFFF0
007FFFFFFFFFFFF0
0007FFFFFFFFFFF0
000000000000FFF0
000000000000FFF0
000000000000FFF0
000000000000FFF0
000000000000FFF0
000000000000FFF0
000000000000FFF0
000000000000FFF0
000000000000FFF0
000000000000FFF0
000000000000FFF0
000000000000FFF0
000000000000FFF0
000000000000FFF0
000000000000FFF0
000000000000FFF0
000000000000FFF0
000000000000FFF0
000000000000FFF0
000000000000FFF0
000000000001FFF0
000000000001FFF0
000000000003FFF0
000000000007FFE0
80000000000FFFE0
FE00000000FFFFE0
FFFFFFFFFFFFFFC0
FFFFFFFFFFFFFFC0
FFFFFFFFFFFFFF80
FFFFFFFFFFFFFF80
FFFFFFFFFFFFFF00
FFFFFFFFFFFFFE00
FFFFFFFFFFFFFC00
FFFFFFFFFFFFF000
FFFFFFFFFFFFC000
FFFFFFFFFFFC0000
ENDCHAR
STARTCHAR 0068
ENCODING 104
SWIDTH 466 0
DWIDTH 84 0
BBX 60 126 12 0
BITMAP
FFF0000000000000
FFF0000000000000
FFF0000000000000
FFF0000000000000
FFF0000000000000
FFF0000000000000
FFF0000000000000
FFF0000000000000
FFF0000000000000
FFF0000000000000
FFF0000000000000
FFF0000000000000
FFF0000000000000
FFF0000000000000
FFF0000000000000
FFF0000000000000
FFF0000000000000
FFF0000000000000
FFF0000000000000
FFF0000000000000
FFF0000000000000
FFF0000000000000
FFF0000000000000
FFF0000000000000
FFF0000000000000
FFF0000000000000
FFF0000000000000
FFF0000000000000
FFF0000000000000
FFF0000000000000
FFF0000000000000
FFF0000000000000
FFF0000000000000
FFF0000000000000
FFF0000000000000
FFF0000000000000
FFFFFFFFFFFE0000
FFFFFFFFFFFFE000
FFFFFFFFFFFFF800
FFFFFFFFFFFFFC00
FFFFFFFFFFFFFE00
FFFFFFFFFFFFFF00
FFFFFFFFFFFFFF80
FFFFFFFFFFFFFF80
FFFFFFFFFFFFFFC0
FFFFFFFFFFFFFFC0
FFFFFFFFFFFFFFE0
FFF00000000FFFE0
FFF000000007FFE0
FFF000000003FFF0
FFF000000001FFF0
FFF000000001FFF0
FFF000000000FFF0
FFF000000000FFF0
FFF000000000FFF0
FFF000000000FFF0
FFF000000000FFF0
FFF000000000FFF0
FFF000000000FFF0
FFF000000000FFF0
FFF000000000FFF0
FFF000000000FFF0
FFF000000000FFF0
FFF000000000FFF0
FFF000000000FFF0
FFF000000000FFF0
FFF000000000FFF0
FFF000000000FFF0
FFF000000000FFF0
FFF000000000FFF0
FFF000000000FFF0
FFF000000000FFF0
FFF000000000FFF0
FFF000000000FFF0
FFF000000000FFF0
FFF000000000FFF0
FFF000000000FFF0
FFF000000000FFF0
FFF000000000FFF0
FFF000000000FFF0
FFF000000000FFF0
FFF000000000FFF0
FFF000000000FFF0
FFF000000000FFF0
FFF000000000FFF0
FFF000000000FFF0
FFF000000000FFF0
FFF000000000FFF0
FFF000000000FFF0
FFF000000000FFF0
FFF000000000FFF0
FFF000000000FFF0
FFF000000000FFF0
FFF000000000FFF0
FFF000000000FFF0
FFF000000000FFF0
FFF000000000FFF0
FFF000000000FFF0
FFF000000000FFF0
FFF000000000FFF0
FFF000000000FFF0
FFF000000000FFF0
FFF000000000FFF0
FFF000000000FFF0
FFF000000000FFF0
FFF000000000FFF0
FFF000000000FFF0
FFF000000000FFF0
FFF000000000FFF0
FFF000000000FFF0
FFF000000000FFF0
FFF000000000FFF0
FFF000000000FFF0
FFF000000000FFF0
FFF000000000FFF0
FFF000000000FFF0
FFF000000000FFF0
FFF000000000FFF0
FFF000000000FFF0
FFF000000000FFF0
FFF000000000FFF0
FFF000000000FFF0
FFF000000000FFF0
FFF000000000FFF0
FFF000000000FFF0
FFF000000000FFF0
ENDCHAR
STARTCHAR 0069
ENCODING 105
SWIDTH 205 0
DWIDTH 37 0
BBX 12 117 12 0
BITMAP
FFF0
FFF0
FFF0
FFF0
FFF0
FFF0
FFF0
FFF0
FFF0
FFF0
FFF0
FFF0
FFF0
FFF0
0000
0000
0000
0000
0000
0000
0000
0000
0000
0000
0000
0000
0000
FFF0
FFF0
FFF0
FFF0
FFF0
FFF0
FFF0
FFF0
FFF0
FFF0
FFF0
FFF0
FFF0
FFF0
FFF0
FFF0
FFF0
FFF0
FFF0
FFF0
FFF0
FFF0
FFF0
FFF0
FFF0
FFF0
FFF0
FFF0
FFF0
FFF0
FFF0
FFF0
FFF0
FFF0
FFF0
FFF0
FFF0
FFF0
FFF0
FFF0
FFF0
FFF0
FFF0
FFF0
FFF0
FFF0
FFF0
FFF0
FFF0
FFF0
FFF0
FFF0
FFF0
FFF0
FFF0
FFF0
FFF0
FFF0
FFF0
FFF0
FFF0
FFF0
FFF0
FFF0
FFF0
FFF0
FFF0
FFF0
FFF0
FFF0
FFF0
FFF0
FFF0
FFF0
FFF0
FFF0
FFF0
FFF0
FFF0
FFF0
FFF0
FFF0
FFF0
FFF0
FFF0
FFF0
FFF0
FFF0
FFF0
FFF0
ENDCHAR
STARTCHAR 006A
ENCODING 106
SWIDTH 205 0
DWIDTH 37 0
BBX 18 153 6 -36
BITMAP
03FFC0
03FFC0
03FFC0
03FFC0
03FFC0
03FFC0
03FFC0
03FFC0
03FFC0
03FFC0
03FFC0
03FFC0
03FFC0
03FFC0
000000
000000
000000
000000
000000
000000
000000
000000
000000
000000
000000
000000
000000
03FFC0
03FFC0
03FFC0
03FFC0
03FFC0
03FFC0
03FFC0
03FFC0
03FFC0
03FFC0
03FFC0
03FFC0
03FFC0
03FFC0
03FFC0
03FFC0
03FFC0
03FFC0
03FFC0
03FFC0
03FFC0
03FFC0
03FFC0
03FFC0
03FFC0
03FFC0
03FFC0
03FFC0
03FFC0
03FFC0
03FFC0
03FFC0
03FFC0
03FFC0
03FFC0
03FFC0
03FFC0
03FFC0
03FFC0
03FFC0
03FFC0
03FFC0
03FFC0
03FFC0
03FFC0
03FFC0
03FFC0
03FFC0
03FFC0
03FFC0
03FFC0
03FFC0
03FFC0
03FFC0
03FFC0
03FFC0
03FFC0
03FFC0
03FFC0
03FFC0
03FFC0
03FFC0
03FFC0
03FFC0
03FFC0
03FFC0
03FFC0
03FFC0
03FFC0
03FFC0
03FFC0
03FFC0
03FFC0
03FFC0
03FFC0
03FFC0
03FFC0
03FFC0
03FFC0
03FFC0
03FFC0
03FFC0
03FFC0
03FFC0
03FFC0
03FFC0
03FFC0
03FFC0
03FFC0
03FFC0
03FFC0
03FFC0
03FFC0
03FFC0
03FFC0
03FFC0
03FFC0
03FFC0
03FFC0
03FFC0
07FFC0
07FF80
07FF80
07FF80
07FF80
07FF80
07FF80
0FFF80
0FFF80
0FFF00
0FFF00
0FFF00
0FFF00
1FFF00
1FFE00
1FFE00
1FFE00
3FFE00
3FFE00
3FFC00
7FFC00
7FFC00
7FF800
FFF800
FFF800
FFF000
ENDCHAR
STARTCHAR 006B
ENCODING 107
SWIDTH 444 0
DWIDTH 80 0
BBX 62 125 12 1
BITMAP
FFF0000000000000
FFF0000000000000
FFF0000000000000
FFF0000000000000
FFF0000000000000
FFF0000000000000
FFF0000000000000
FFF0000000000000
FFF0000000000000
FFF0000000000000
FFF0000000000000
FFF0000000000000
FFF0000000000000
FFF0000000000000
FFF0000000000000
FFF0000000000000
FFF0000000000000
FFF0000000000000
FFF0000000000000
FFF0000000000000
FFF0000000000000
FFF0000000000000
FFF0000000000000
FFF0000000000000
FFF0000000000000
FFF0000000000000
FFF0000000000000
FFF0000000000000
FFF0000000000000
FFF0000000000000
FFF0000000000000
FFF0000000000000
FFF0000000000000
FFF0000000000000
FFF0000000000000
FFF0000000000000
FFF000000003FFE0
FFF000000003FFE0
FFF000000007FFC0
FFF000000007FFC0
FFF00000000FFF80
FFF00000000FFF80
FFF00000001FFF80
FFF00000001FFF00
FFF00000003FFF00
FFF00000003FFE00
FFF00000007FFE00
FFF00000007FFC00
FFF00000007FFC00
FFF0000000FFF800
FFF0000000FFF800
FFF0000001FFF000
FFF0000001FFF000
FFF0000003FFE000
FFF0000003FFE000
FFF0000007FFE000
FFF0000007FFC000
FFF0000007FFC000
FFF000000FFF8000
FFF000000FFF8000
FFF000001FFF0000
FFF000001FFF0000
FFF000003FFE0000
FFF000003FFE0000
FFF000007FFC0000
FFF000007FFC0000
FFF00000FFF80000
FFF00000FFF80000
FFF00001FFF80000
FFF00003FFF00000
FFF0000FFFE00000
FFFFFFFFFFE00000
FFFFFFFFFFC00000
FFFFFFFFFF800000
FFFFFFFFFE000000
FFFFFFFFFC000000
FFFFFFFFFE000000
FFFFFFFFFF000000
FFFFFFFFFF800000
FFFFFFFFFFC00000
FFFFFFFFFFE00000
FFF0000FFFE00000
FFF00003FFF00000
FFF00001FFF80000
FFF00000FFF80000
FFF00000FFF80000
FFF000007FFC0000
FFF000007FFC0000
FFF000003FFE0000
FFF000003FFE0000
FFF000001FFE0000
FFF000001FFF0000
FFF000001FFF0000
FFF000000FFF8000
FFF000000FFF8000
FFF000000FFFC000
FFF0000007FFC000
FFF0000007FFC000
FFF0000003FFE000
FFF0000003FFE000
FFF0000003FFF000
FFF0000001FFF000
FFF0000001FFF000
FFF0000000FFF800
FFF0000000FFF800
FFF0000000FFFC00
FFF00000007FFC00
FFF00000007FFE00
FFF00000007FFE00
FFF00000003FFE00
FFF00000003FFF00
FFF00000001FFF00
FFF00000001FFF80
FFF00000001FFF80
FFF00000000FFF80
FFF00000000FFFC0
FFF000000007FFC0
FFF000000007FFE0
FFF000000007FFE0
FFF000000003FFF0
FFF000000003FFF0
FFF000000003FFF0
FFF000000001FFF8
FFF000000001FFF8
FFF000000000FFFC
ENDCHAR
STARTCHAR 006C
ENCODING 108
SWIDTH 205 0
DWIDTH 37 0
BBX 12 126 12 0
BITMAP
FFF0
FFF0
FFF0
FFF0
FFF0
FFF0
FFF0
FFF0
FFF0
FFF0
FFF0
FFF0
FFF0
FFF0
FFF0
FFF0
FFF0
FFF0
FFF0
FFF0
FFF0
FFF0
FFF0
FFF0
FFF0
FFF0
FFF0
FFF0
FFF0
FFF0
FFF0
FFF0
FFF0
FFF0
FFF0
FFF0
FFF0
FFF0
FFF0
FFF0
FFF0
FFF0
FFF0
FFF0
FFF0
FFF0
FFF0
FFF0
FFF0
FFF0
FFF0
FFF0
FFF0
FFF0
FFF0
FFF0
FFF0
FFF0
FFF0
FFF0
FFF0
FFF0
FFF0
FFF0
FFF0
FFF0
FFF0
FFF0
FFF0
FFF0
FFF0
FFF0
FFF0
FFF0
FFF0
FFF0
FFF0
FFF0
FFF0
FFF0
FFF0
FFF0
FFF0
FFF0
FFF0
FFF0
FFF0
FFF0
FFF0
FFF0
FFF0
FFF0
FFF0
FFF0
FFF0
FFF0
FFF0
FFF0
FFF0
FFF0
FFF0
FFF0
FFF0
FFF0
FFF0
FFF0
FFF0
FFF0
FFF0
FFF0
FFF0
FFF0
FFF0
FFF0
FFF0
FFF0
FFF0
FFF0
FFF0
FFF0
FFF0
FFF0
FFF0
FFF0
FFF0
FFF0
ENDCHAR
STARTCHAR 006D
ENCODING 109
SWIDTH 677 0
DWIDTH 122 0
BBX 97 90 12 0
BITMAP
FFFFFFFFFC00000FFFFFF00000
FFFFFFFFFFC0007FFFFFFF0000
FFFFFFFFFFF001FFFFFFFFC000
FFFFFFFFFFF803FFFFFFFFE000
FFFFFFFFFFFC07FFFFFFFFF000
FFFFFFFFFFFE0FFFFFFFFFF800
FFFFFFFFFFFF1FFFFFFFFFFC00
FFFFFFFFFFFF1FFFFFFFFFFE00
FFFFFFFFFFFFBFFFFFFFFFFE00
FFFFFFFFFFFFBFFFFFFFFFFF00
FFFFFFFFFFFFBFFFFFFFFFFF00
FFF0000001FFFFE000007FFF00
FFF0000000FFFFC000003FFF00
FFF00000007FFF8000001FFF80
FFF00000003FFF0000000FFF80
FFF00000003FFF0000000FFF80
FFF00000001FFE00000007FF80
FFF00000001FFE00000007FF80
FFF00000001FFE00000007FF80
FFF00000001FFE00000007FF80
FFF00000001FFE00000007FF80
FFF00000001FFE00000007FF80
FFF00000001FFE00000007FF80
FFF00000001FFE00000007FF80
FFF00000001FFE00000007FF80
FFF00000001FFE00000007FF80
FFF00000001FFE00000007FF80
FFF00000001FFE00000007FF80
FFF00000001FFE00000007FF80
FFF00000001FFE00000007FF80
FFF00000001FFE00000007FF80
FFF00000001FFE00000007FF80
FFF00000001FFE00000007FF80
FFF00000001FFE00000007FF80
FFF00000001FFE00000007FF80
FFF00000001FFE00000007FF80
FFF00000001FFE00000007FF80
FFF00000001FFE00000007FF80
FFF00000001FFE00000007FF80
FFF00000001FFE00000007FF80
FFF00000001FFE00000007FF80
FFF00000001FFE00000007FF80
FFF00000001FFE00000007FF80
FFF00000001FFE00000007FF80
FFF00000001FFE00000007FF80
FFF00000001FFE00000007FF80
FFF00000001FFE00000007FF80
FFF00000001FFE00000007FF80
FFF00000001FFE00000007FF80
FFF00000001FFE00000007FF80
FFF00000001FFE00000007FF80
FFF00000001FFE00000007FF80
FFF00000001FFE00000007FF80
FFF00000001FFE00000007FF80
FFF00000001FFE00000007FF80
FFF00000001FFE00000007FF80
FFF00000001FFE00000007FF80
FFF00000001FFE00000007FF80
FFF00000001FFE00000007FF80
FFF00000001FFE00000007FF80
FFF00000001FFE00000007FF80
FFF00000001FFE00000007FF80
FFF00000001FFE00000007FF80
FFF00000001FFE00000007FF80
FFF00000001FFE00000007FF80
FFF00000001FFE00000007FF80
FFF00000001FFE00000007FF80
FFF00000001FFE00000007FF80
FFF00000001FFE00000007FF80
FFF00000001FFE00000007FF80
FFF00000001FFE00000007FF80
FFF00000001FFE00000007FF80
FFF00000001FFE00000007FF80
FFF00000001FFE00000007FF80
FFF00000001FFE00000007FF80
FFF00000001FFE00000007FF80
FFF00000001FFE00000007FF80
FFF00000001FFE00000007FF80
FFF00000001FFE00000007FF80
FFF00000001FFE00000007FF80
FFF00000001FFE00000007FF80
FFF00000001FFE00000007FF80
FFF00000001FFE00000007FF80
FFF00000001FFE00000007FF80
FFF00000001FFE00000007FF80
FFF00000001FFE00000007FF80
FFF00000001FFE00000007FF80
FFF00000001FFE00000007FF80
FFF00000001FFE00000007FF80
FFF00000001FFE00000007FF80
ENDCHAR
STARTCHAR 006E
ENCODING 110
SWIDTH 466 0
DWIDTH 84 0
BBX 60 90 12 0
BITMAP
FFFFFFFFFFFE0000
FFFFFFFFFFFFC000
FFFFFFFFFFFFF000
FFFFFFFFFFFFFC00
FFFFFFFFFFFFFE00
FFFFFFFFFFFFFF00
FFFFFFFFFFFFFF80
FFFFFFFFFFFFFF80
FFFFFFFFFFFFFFC0
FFFFFFFFFFFFFFC0
FFFFFFFFFFFFFFE0
FFF00000000FFFE0
FFF000000007FFE0
FFF000000003FFF0
FFF000000001FFF0
FFF000000001FFF0
FFF000000000FFF0
FFF000000000FFF0
FFF000000000FFF0
FFF000000000FFF0
FFF000000000FFF0
FFF000000000FFF0
FFF000000000FFF0
FFF000000000FFF0
FFF000000000FFF0
FFF000000000FFF0
FFF000000000FFF0
FFF000000000FFF0
FFF000000000FFF0
FFF000000000FFF0
FFF000000000FFF0
FFF000000000FFF0
FFF000000000FFF0
FFF000000000FFF0
FFF000000000FFF0
FFF000000000FFF0
FFF000000000FFF0
FFF000000000FFF0
FFF000000000FFF0
FFF000000000FFF0
FFF000000000FFF0
FFF000000000FFF0
FFF000000000FFF0
FFF000000000FFF0
FFF000000000FFF0
FFF000000000FFF0
FFF000000000FFF0
FFF000000000FFF0
FFF000000000FFF0
FFF000000000FFF0
FFF000000000FFF0
FFF000000000FFF0
FFF000000000FFF0
FFF000000000FFF0
FFF000000000FFF0
FFF000000000FFF0
FFF000000000FFF0
FFF000000000FFF0
FFF000000000FFF0
FFF000000000FFF0
FFF000000000FFF0
FFF000000000FFF0
FFF000000000FFF0
FFF000000000FFF0
FFF000000000FFF0
FFF000000000FFF0
FFF000000000FFF0
FFF000000000FFF0
FFF000000000FFF0
FFF000000000FFF0
FFF000000000FFF0
FFF000000000FFF0
FFF000000000FFF0
FFF000000000FFF0
FFF000000000FFF0
FFF000000000FFF0
FFF000000000FFF0
FFF000000000FFF0
FFF000000000FFF0
FFF000000000FFF0
FFF000000000FFF0
FFF000000000FFF0
FFF000000000FFF0
FFF000000000FFF0
FFF000000000FFF0
FFF000000000FFF0
FFF000000000FFF0
FFF000000000FFF0
FFF000000000FFF0
FFF000000000FFF0
ENDCHAR
STARTCHAR 006F
ENCODING 111
SWIDTH 466 0
DWIDTH 84 0
BBX 60 90 12 0
BITMAP
0007FFFFFFFE0000
003FFFFFFFFFC000
00FFFFFFFFFFF000
03FFFFFFFFFFFC00
07FFFFFFFFFFFE00
0FFFFFFFFFFFFF00
1FFFFFFFFFFFFF80
1FFFFFFFFFFFFF80
3FFFFFFFFFFFFFC0
3FFFFFFFFFFFFFC0
7FFFFFFFFFFFFFE0
7FFF0000000FFFE0
7FFE00000007FFE0
FFFC00000003FFF0
FFF800000001FFF0
FFF800000001FFF0
FFF000000000FFF0
FFF000000000FFF0
FFF000000000FFF0
FFF000000000FFF0
FFF000000000FFF0
FFF000000000FFF0
FFF000000000FFF0
FFF000000000FFF0
FFF000000000FFF0
FFF000000000FFF0
FFF000000000FFF0
FFF000000000FFF0
FFF000000000FFF0
FFF000000000FFF0
FFF000000000FFF0
FFF000000000FFF0
FFF000000000FFF0
FFF000000000FFF0
FFF000000000FFF0
FFF000000000FFF0
FFF000000000FFF0
FFF000000000FFF0
FFF000000000FFF0
FFF000000000FFF0
FFF000000000FFF0
FFF000000000FFF0
FFF000000000FFF0
FFF000000000FFF0
FFF000000000FFF0
FFF000000000FFF0
FFF000000000FFF0
FFF000000000FFF0
FFF000000000FFF0
FFF000000000FFF0
FFF000000000FFF0
FFF000000000FFF0
FFF000000000FFF0
FFF000000000FFF0
FFF000000000FFF0
FFF000000000FFF0
FFF000000000FFF0
FFF000000000FFF0
FFF000000000FFF0
FFF000000000FFF0
FFF000000000FFF0
FFF000000000FFF0
FFF000000000FFF0
FFF000000000FFF0
FFF000000000FFF0
FFF000000000FFF0
FFF000000000FFF0
FFF000000000FFF0
FFF000000000FFF0
FFF000000000FFF0
FFF000000000FFF0
FFF000000000FFF0
FFF000000000FFF0
FFF000000000FFF0
FFF800000001FFF0
FFF800000001FFF0
FFFC00000003FFF0
7FFE00000003FFE0
7FFF0000000FFFE0
7FFFF00000FFFFE0
3FFFFFFFFFFFFFC0
3FFFFFFFFFFFFFC0
1FFFFFFFFFFFFF80
1FFFFFFFFFFFFF80
0FFFFFFFFFFFFF00
07FFFFFFFFFFFE00
03FFFFFFFFFFFC00
00FFFFFFFFFFF000
003FFFFFFFFFC000
0007FFFFFFFE0000
ENDCHAR
STARTCHAR 0070
ENCODING 112
SWIDTH 466 0
DWIDTH 84 0
BBX 60 126 12 -36
BITMAP
FFFFFFFFFFFE0000
FFFFFFFFFFFFC000
FFFFFFFFFFFFF000
FFFFFFFFFFFFFC00
FFFFFFFFFFFFFE00
FFFFFFFFFFFFFF00
FFFFFFFFFFFFFF80
FFFFFFFFFFFFFF80
FFFFFFFFFFFFFFC0
FFFFFFFFFFFFFFC0
FFFFFFFFFFFFFFE0
FFF00000000FFFE0
FFF000000007FFE0
FFF000000003FFF0
FFF000000001FFF0
FFF000000001FFF0
FFF000000000FFF0
FFF000000000FFF0
FFF000000000FFF0
FFF000000000FFF0
FFF000000000FFF0
FFF000000000FFF0
FFF000000000FFF0
FFF000000000FFF0
FFF000000000FFF0
FFF000000000FFF0
FFF000000000FFF0
FFF000000000FFF0
FFF000000000FFF0
FFF000000000FFF0
FFF000000000FFF0
FFF000000000FFF0
FFF000000000FFF0
FFF000000000FFF0
FFF000000000FFF0
FFF000000000FFF0
FFF000000000FFF0
FFF000000000FFF0
FFF000000000FFF0
FFF000000000FFF0
FFF000000000FFF0
FFF000000000FFF0
FFF000000000FFF0
FFF000000000FFF0
FFF000000000FFF0
FFF000000000FFF0
FFF000000000FFF0
FFF000000000FFF0
FFF000000000FFF0
FFF000000000FFF0
FFF000000000FFF0
FFF000000000FFF0
FFF000000000FFF0
FFF000000000FFF0
FFF000000000FFF0
FFF000000000FFF0
FFF000000000FFF0
FFF000000000FFF0
FFF000000000FFF0
FFF000000000FFF0
FFF000000000FFF0
FFF000000000FFF0
FFF000000000FFF0
FFF000000000FFF0
FFF000000000FFF0
FFF000000000FFF0
FFF000000000FFF0
FFF000000000FFF0
FFF000000000FFF0
FFF000000000FFF0
FFF000000000FFF0
FFF000000000FFF0
FFF000000000FFF0
FFF000000000FFF0
FFF000000001FFF0
FFF000000001FFF0
FFF000000001FFF0
FFF000000003FFE0
FFF00000000FFFE0
FFF0000000FFFFE0
FFFFFFFFFFFFFFC0
FFFFFFFFFFFFFFC0
FFFFFFFFFFFFFF80
FFFFFFFFFFFFFF80
FFFFFFFFFFFFFF00
FFFFFFFFFFFFFE00
FFFFFFFFFFFFFC00
FFFFFFFFFFFFF000
FFFFFFFFFFFFC000
FFFFFFFFFFFE0000
FFF0000000000000
FFF0000000000000
FFF0000000000000
FFF0000000000000
FFF0000000000000
FFF0000000000000
FFF0000000000000
FFF0000000000000
FFF0000000000000
FFF0000000000000
FFF0000000000000
FFF0000000000000
FFF0000000000000
FFF0000000000000
FFF0000000000000
FFF0000000000000
FFF0000000000000
FFF0000000000000
FFF0000000000000
FFF0000000000000
FFF0000000000000
FFF0000000000000
FFF0000000000000
FFF0000000000000
FFF0000000000000
FFF0000000000000
FFF0000000000000
FFF0000000000000
FFF0000000000000
FFF0000000000000
FFF0000000000000
FFF0000000000000
FFF0000000000000
FFF0000000000000
FFF0000000000000
FFF0000000000000
ENDCHAR
STARTCHAR 0071
ENCODING 113
SWIDTH 466 0
DWIDTH 84 0
BBX 60 126 12 -36
BITMAP
0007FFFFFFFFFFF0
003FFFFFFFFFFFF0
00FFFFFFFFFFFFF0
03FFFFFFFFFFFFF0
07FFFFFFFFFFFFF0
0FFFFFFFFFFFFFF0
1FFFFFFFFFFFFFF0
1FFFFFFFFFFFFFF0
3FFFFFFFFFFFFFF0
3FFFFFFFFFFFFFF0
7FFFFFFFFFFFFFF0
7FFF00000000FFF0
7FFE00000000FFF0
FFFC00000000FFF0
FFF800000000FFF0
FFF800000000FFF0
FFF000000000FFF0
FFF000000000FFF0
FFF000000000FFF0
FFF000000000FFF0
FFF000000000FFF0
FFF000000000FFF0
FFF000000000FFF0
FFF000000000FFF0
FFF000000000FFF0
FFF000000000FFF0
FFF000000000FFF0
FFF000000000FFF0
FFF000000000FFF0
FFF000000000FFF0
FFF000000000FFF0
FFF000000000FFF0
FFF000000000FFF0
FFF000000000FFF0
FFF000000000FFF0
FFF000000000FFF0
FFF000000000FFF0
FFF000000000FFF0
FFF000000000FFF0
FFF000000000FFF0
FFF000000000FFF0
FFF000000000FFF0
FFF000000000FFF0
FFF000000000FFF0
FFF000000000FFF0
FFF000000000FFF0
FFF000000000FFF0
FFF000000000FFF0
FFF000000000FFF0
FFF000000000FFF0
FFF000000000FFF0
FFF000000000FFF0
FFF000000000FFF0
FFF000000000FFF0
FFF000000000FFF0
FFF000000000FFF0
FFF000000000FFF0
FFF000000000FFF0
FFF000000000FFF0
FFF000000000FFF0
FFF000000000FFF0
FFF000000000FFF0
FFF000000000FFF0
FFF000000000FFF0
FFF000000000FFF0
FFF000000000FFF0
FFF000000000FFF0
FFF000000000FFF0
FFF000000000FFF0
FFF000000000FFF0
FFF000000000FFF0
FFF000000000FFF0
FFF000000000FFF0
FFF000000000FFF0
FFF800000000FFF0
FFF800000000FFF0
FFFC00000000FFF0
7FFC00000000FFF0
7FFF00000000FFF0
7FFFF0000000FFF0
3FFFFFFFFFFFFFF0
3FFFFFFFFFFFFFF0
1FFFFFFFFFFFFFF0
1FFFFFFFFFFFFFF0
0FFFFFFFFFFFFFF0
07FFFFFFFFFFFFF0
03FFFFFFFFFFFFF0
01FFFFFFFFFFFFF0
007FFFFFFFFFFFF0
0007FFFFFFFFFFF0
000000000000FFF0
000000000000FFF0
000000000000FFF0
000000000000FFF0
000000000000FFF0
000000000000FFF0
000000000000FFF0
000000000000FFF0
000000000000FFF0
000000000000FFF0
000000000000FFF0
000000000000FFF0
000000000000FFF0
000000000000FFF0
000000000000FFF0
000000000000FFF0
000000000000FFF0
000000000000FFF0
000000000000FFF0
000000000000FFF0
000000000000FFF0
000000000000FFF0
000000000000FFF0
000000000000FFF0
000000000000FFF0
000000000000FFF0
000000000000FFF0
000000000000FFF0
000000000000FFF0
000000000000FFF0
000000000000FFF0
000000000000FFF0
000000000000FFF0
000000000000FFF0
000000000000FFF0
000000000000FFF0
ENDCHAR
STARTCHAR 0072
ENCODING 114
SWIDTH 300 0
DWIDTH 54 0
BBX 39 90 12 0
BITMAP
FFF00FFFFE
FFF03FFFFE
FFF0FFFFFE
FFF1FFFFFE
FFF3FFFFFE
FFF3FFFFFE
FFF7FFFFFE
FFF7FFFFFE
FFFFFFFFFE
FFFFFFFFFE
FFFFFFFFFE
FFFFF0003E
FFFF800000
FFFE000000
FFFC000000
FFFC000000
FFF8000000
FFF8000000
FFF8000000
FFF0000000
FFF0000000
FFF0000000
FFF0000000
FFF0000000
FFF0000000
FFF0000000
FFF0000000
FFF0000000
FFF0000000
FFF0000000
FFF0000000
FFF0000000
FFF0000000
FFF0000000
FFF0000000
FFF0000000
FFF0000000
FFF0000000
FFF0000000
FFF0000000
FFF0000000
FFF0000000
FFF0000000
FFF0000000
FFF0000000
FFF0000000
FFF0000000
FFF0000000
FFF0000000
FFF0000000
FFF0000000
FFF0000000
FFF0000000
FFF0000000
FFF0000000
FFF0000000
FFF0000000
FFF0000000
FFF0000000
FFF0000000
FFF0000000
FFF0000000
FFF0000000
FFF0000000
FFF0000000
FFF0000000
FFF0000000
FFF0000000
FFF0000000
FFF0000000
FFF0000000
FFF0000000
FFF0000000
FFF0000000
FFF0000000
FFF0000000
FFF0000000
FFF0000000
FFF0000000
FFF0000000
FFF0000000
FFF0000000
FFF0000000
FFF0000000
FFF0000000
FFF0000000
FFF0000000
FFF0000000
FFF0000000
FFF0000000
ENDCHAR
STARTCHAR 0073
ENCODING 115
SWIDTH 405 0
DWIDTH 73 0
BBX 54 90 10 0
BITMAP
0003FFFFFFFFFC
003FFFFFFFFFFC
00FFFFFFFFFFFC
01FFFFFFFFFFFC
07FFFFFFFFFFFC
0FFFFFFFFFFFFC
1FFFFFFFFFFFFC
1FFFFFFFFFFFFC
3FFFFFFFFFFFFC
3FFFFFFFFFFFFC
7FFFFFFFFFFFFC
7FFF0000000004
7FFE0000000000
FFFC0000000000
FFF80000000000
FFF80000000000
FFF00000000000
FFF00000000000
FFF00000000000
FFF00000000000
FFF00000000000
FFF00000000000
FFF00000000000
FFF00000000000
FFF80000000000
FFF80000000000
FFF80000000000
7FFC0000000000
7FFE0000000000
7FFF0000000000
3FFF8000000000
3FFFE000000000
1FFFF000000000
1FFFFC00000000
0FFFFF00000000
07FFFF80000000
03FFFFE0000000
01FFFFF0000000
007FFFFC000000
003FFFFF000000
001FFFFF800000
0007FFFFE00000
0001FFFFF00000
0000FFFFFC0000
00003FFFFF0000
00001FFFFF8000
000007FFFFE000
000003FFFFF000
000000FFFFFC00
0000003FFFFE00
0000001FFFFF00
00000007FFFF80
00000003FFFFC0
00000000FFFFE0
000000007FFFE0
000000001FFFF0
0000000007FFF0
0000000003FFF8
0000000001FFF8
0000000000FFF8
00000000007FFC
00000000007FFC
00000000007FFC
00000000003FFC
00000000003FFC
00000000003FFC
00000000003FFC
00000000003FFC
00000000003FFC
00000000003FFC
00000000003FFC
00000000003FFC
00000000003FFC
00000000003FFC
00000000007FFC
00000000007FFC
0000000000FFFC
0000000000FFF8
0000000003FFF8
FFFFFFFFFFFFF8
FFFFFFFFFFFFF0
FFFFFFFFFFFFF0
FFFFFFFFFFFFE0
FFFFFFFFFFFFE0
FFFFFFFFFFFFC0
FFFFFFFFFFFF80
FFFFFFFFFFFF00
FFFFFFFFFFFC00
FFFFFFFFFFF000
FFFFFFFFFF8000
ENDCHAR
STARTCHAR 0074
ENCODING 116
SWIDTH 305 0
DWIDTH 55 0
BBX 36 114 12 1
BITMAP
0010000000
0070000000
01F0000000
03F0000000
0FF0000000
3FF0000000
7FF0000000
FFF0000000
FFF0000000
FFF0000000
FFF0000000
FFF0000000
FFF0000000
FFF0000000
FFF0000000
FFF0000000
FFF0000000
FFF0000000
FFF0000000
FFF0000000
FFF0000000
FFF0000000
FFF0000000
FFF0000000
FFFFFFFFF0
FFFFFFFFF0
FFFFFFFFF0
FFFFFFFFF0
FFFFFFFFF0
FFFFFFFFF0
FFFFFFFFF0
FFFFFFFFF0
FFFFFFFFF0
FFFFFFFFF0
FFFFFFFFF0
FFF0000000
FFF0000000
FFF0000000
FFF0000000
FFF0000000
FFF0000000
FFF0000000
FFF0000000
FFF0000000
FFF0000000
FFF0000000
FFF0000000
FFF0000000
FFF0000000
FFF0000000
FFF0000000
FFF0000000
FFF0000000
FFF0000000
FFF0000000
FFF0000000
FFF0000000
FFF0000000
FFF0000000
FFF0000000
FFF0000000
FFF0000000
FFF0000000
FFF0000000
FFF0000000
FFF0000000
FFF0000000
FFF0000000
FFF0000000
FFF0000000
FFF0000000
FFF0000000
FFF0000000
FFF0000000
FFF0000000
FFF0000000
FFF0000000
FFF0000000
FFF0000000
FFF0000000
FFF0000000
FFF0000000
FFF0000000
FFF0000000
FFF0000000
FFF0000000
FFF0000000
FFF0000000
FFF0000000
FFF0000000
FFF0000000
FFF0000000
FFF0000000
FFF0000000
FFF0000000
FFF0000000
FFF0000000
FFF0000000
FFF8000000
FFF8000000
FFFC000000
7FFE000000
7FFF800010
7FFFFFFFF0
3FFFFFFFF0
3FFFFFFFF0
1FFFFFFFF0
1FFFFFFFF0
0FFFFFFFF0
07FFFFFFF0
03FFFFFFF0
01FFFFFFF0
007FFFFFF0
0007FFFFF0
ENDCHAR
STARTCHAR 0075
ENCODING 117
SWIDTH 466 0
DWIDTH 84 0
BBX 60 90 12 0
BITMAP
FFF000000000FFF0
FFF000000000FFF0
FFF000000000FFF0
FFF000000000FFF0
FFF000000000FFF0
FFF000000000FFF0
FFF000000000FFF0
FFF000000000FFF0
FFF000000000FFF0
FFF000000000FFF0
FFF000000000FFF0
FFF000000000FFF0
FFF000000000FFF0
FFF000000000FFF0
FFF000000000FFF0
FFF000000000FFF0
FFF000000000FFF0
FFF000000000FFF0
FFF000000000FFF0
FFF000000000FFF0
FFF000000000FFF0
FFF000000000FFF0
FFF000000000FFF0
FFF000000000FFF0
FFF000000000FFF0
FFF000000000FFF0
FFF000000000FFF0
FFF000000000FFF0
FFF000000000FFF0
FFF000000000FFF0
FFF000000000FFF0
FFF000000000FFF0
FFF000000000FFF0
FFF000000000FFF0
FFF000000000FFF0
FFF000000000FFF0
FFF000000000FFF0
FFF000000000FFF0
FFF000000000FFF0
FFF000000000FFF0
FFF000000000FFF0
FFF000000000FFF0
FFF000000000FFF0
FFF000000000FFF0
FFF000000000FFF0
FFF000000000FFF0
FFF000000000FFF0
FFF000000000FFF0
FFF000000000FFF0
FFF000000000FFF0
FFF000000000FFF0
FFF000000000FFF0
FFF000000000FFF0
FFF000000000FFF0
FFF000000000FFF0
FFF000000000FFF0
FFF000000000FFF0
FFF000000000FFF0
FFF000000000FFF0
FFF000000000FFF0
FFF000000000FFF0
FFF000000000FFF0
FFF000000000FFF0
FFF000000000FFF0
FFF000000000FFF0
FFF000000000FFF0
FFF000000000FFF0
FFF000000000FFF0
FFF000000000FFF0
FFF000000000FFF0
FFF000000000FFF0
FFF000000000FFF0
FFF000000000FFF0
FFF000000000FFF0
FFF800000000FFF0
FFF800000000FFF0
FFFC00000000FFF0
7FFC00000000FFF0
7FFF00000000FFF0
7FFFF0000000FFF0
3FFFFFFFFFFFFFF0
3FFFFFFFFFFFFFF0
1FFFFFFFFFFFFFF0
1FFFFFFFFFFFFFF0
0FFFFFFFFFFFFFF0
07FFFFFFFFFFFFF0
03FFFFFFFFFFFFF0
00FFFFFFFFFFFFF0
003FFFFFFFFFFFF0
0007FFFFFFFFFFF0
ENDCHAR
STARTCHAR 0076
ENCODING 118
SWIDTH 411 0
DWIDTH 74 0
BBX 69 90 2 0
BITMAP
FFFC0000000001FFF8
FFFC0000000001FFF8
7FFE0000000001FFF0
7FFE0000000001FFF0
7FFE0000000003FFF0
3FFE0000000003FFE0
3FFF0000000003FFE0
3FFF0000000003FFE0
1FFF0000000007FFC0
1FFF8000000007FFC0
1FFF8000000007FFC0
1FFF800000000FFFC0
0FFF800000000FFF80
0FFFC00000000FFF80
0FFFC00000000FFF80
07FFC00000001FFF00
07FFC00000001FFF00
07FFE00000001FFF00
03FFE00000001FFE00
03FFE00000003FFE00
03FFF00000003FFE00
03FFF00000003FFE00
01FFF00000003FFC00
01FFF00000007FFC00
01FFF80000007FFC00
00FFF80000007FF800
00FFF8000000FFF800
00FFF8000000FFF800
007FFC000000FFF000
007FFC000000FFF000
007FFC000001FFF000
007FFC000001FFE000
003FFE000001FFE000
003FFE000001FFE000
003FFE000003FFE000
001FFF000003FFC000
001FFF000003FFC000
001FFF000003FFC000
000FFF000007FF8000
000FFF800007FF8000
000FFF800007FF8000
000FFF80000FFF0000
0007FF80000FFF0000
0007FFC0000FFF0000
0007FFC0000FFF0000
0003FFC0001FFE0000
0003FFE0001FFE0000
0003FFE0001FFE0000
0001FFE0001FFC0000
0001FFE0003FFC0000
0001FFF0003FFC0000
0001FFF0003FF80000
0000FFF0007FF80000
0000FFF0007FF80000
0000FFF8007FF80000
00007FF8007FF00000
00007FF800FFF00000
00007FFC00FFF00000
00003FFC00FFE00000
00003FFC00FFE00000
00003FFC01FFE00000
00003FFE01FFC00000
00001FFE01FFC00000
00001FFE01FFC00000
00001FFE03FFC00000
00000FFF03FF800000
00000FFF03FF800000
00000FFF07FF800000
000007FF87FF000000
000007FF87FF000000
000007FF87FF000000
000007FF8FFE000000
000003FFCFFE000000
000003FFCFFE000000
000003FFCFFE000000
000001FFDFFC000000
000001FFFFFC000000
000001FFFFFC000000
000000FFFFF8000000
000000FFFFF8000000
000000FFFFF8000000
000000FFFFF0000000
0000007FFFF0000000
0000007FFFF0000000
0000007FFFE0000000
0000003FFFE0000000
0000003FFFE0000000
0000003FFFE0000000
0000001FFFC0000000
0000001FFFC0000000
ENDCHAR
STARTCHAR 0077
ENCODING 119
SWIDTH 638 0
DWIDTH 115 0
BBX 108 90 4 0
BITMAP
FFFC00000001FFF800000003FFF0
FFFC00000001FFF800000003FFF0
7FFC00000001FFFC00000003FFE0
7FFE00000001FFFC00000003FFE0
7FFE00000001FFFC00000007FFE0
7FFE00000003FFFC00000007FFC0
3FFE00000003FFFC00000007FFC0
3FFF00000003FFFE00000007FFC0
3FFF00000003FFFE0000000FFFC0
1FFF00000003FFFE0000000FFF80
1FFF00000007FFFE0000000FFF80
1FFF80000007FFFE0000000FFF80
1FFF80000007FFFF0000000FFF80
0FFF80000007FFFF0000001FFF00
0FFF80000007FFFF0000001FFF00
0FFFC000000FFFFF0000001FFF00
0FFFC000000FFFFF0000001FFE00
07FFC000000FFFFF8000003FFE00
07FFC000000FFFFF8000003FFE00
07FFE000000FFFFF8000003FFE00
07FFE000001FF9FF8000003FFC00
03FFE000001FF9FF8000007FFC00
03FFE000001FF9FFC000007FFC00
03FFE000001FF9FFC000007FFC00
01FFF000001FF1FFC000007FF800
01FFF000003FF0FFC00000FFF800
01FFF000003FF0FFC00000FFF800
01FFF000003FF0FFE00000FFF000
00FFF800003FF0FFE00000FFF000
00FFF800003FE0FFE00000FFF000
00FFF800007FE07FE00001FFF000
00FFF800007FE07FE00001FFE000
007FFC00007FE07FF00001FFE000
007FFC00007FE07FF00001FFE000
007FFC00007FC07FF00003FFE000
003FFC0000FFC03FF00003FFC000
003FFE0000FFC03FF00003FFC000
003FFE0000FFC03FF80003FFC000
003FFE0000FFC03FF80007FF8000
001FFE0000FF803FF80007FF8000
001FFF0001FF801FF80007FF8000
001FFF0001FF801FF80007FF8000
001FFF0001FF801FF8000FFF0000
000FFF0001FF801FFC000FFF0000
000FFF8001FF001FFC000FFF0000
000FFF8003FF000FFC000FFF0000
000FFF8003FF000FFC001FFE0000
0007FF8003FF000FFC001FFE0000
0007FF8003FF000FFE001FFE0000
0007FFC003FE000FFE001FFC0000
0003FFC007FE0007FE001FFC0000
0003FFC007FE0007FE003FFC0000
0003FFC007FE0007FE003FFC0000
0003FFE007FE0007FF003FF80000
0001FFE007FC0007FF003FF80000
0001FFE00FFC0003FF007FF80000
0001FFE00FFC0003FF007FF80000
0001FFF00FFC0003FF007FF00000
0000FFF00FFC0003FF807FF00000
0000FFF00FF80003FF80FFF00000
0000FFF01FF80001FF80FFE00000
0000FFF81FF80001FF80FFE00000
00007FF81FF80001FF80FFE00000
00007FF81FF00001FFC1FFE00000
00007FF81FF00001FFC1FFC00000
00003FFC3FF00000FFC1FFC00000
00003FFC3FF00000FFC1FFC00000
00003FFC3FF00000FFC1FFC00000
00003FFC3FE00000FFE3FF800000
00001FFC3FE00000FFE3FF800000
00001FFE7FE000007FE3FF800000
00001FFE7FE000007FE3FF000000
00001FFE7FE000007FE7FF000000
00000FFE7FC000007FF7FF000000
00000FFF7FC000007FF7FF000000
00000FFFFFC000003FF7FE000000
00000FFFFFC000003FFFFE000000
000007FFFFC000003FFFFE000000
000007FFFF8000003FFFFC000000
000007FFFF8000003FFFFC000000
000003FFFF8000001FFFFC000000
000003FFFF8000001FFFFC000000
000003FFFF8000001FFFF8000000
000003FFFF0000001FFFF8000000
000001FFFF0000001FFFF8000000
000001FFFF0000000FFFF8000000
000001FFFF0000000FFFF0000000
000001FFFF0000000FFFF0000000
000000FFFE0000000FFFF0000000
000000FFFE0000000FFFE0000000
ENDCHAR
STARTCHAR 0078
ENCODING 120
SWIDTH 427 0
DWIDTH 77 0
BBX 70 90 4 0
BITMAP
FFFE0000000000FFFC
7FFF0000000001FFF8
3FFF0000000003FFF0
3FFF8000000003FFF0
1FFF8000000007FFE0
1FFFC000000007FFE0
0FFFC00000000FFFC0
07FFE00000000FFF80
07FFF00000001FFF80
03FFF00000003FFF00
01FFF80000003FFE00
01FFF80000007FFE00
00FFFC0000007FFC00
00FFFE000000FFFC00
007FFE000001FFF800
003FFF000001FFF000
003FFF000003FFF000
001FFF800003FFE000
001FFF800007FFC000
000FFFC00007FFC000
0007FFE0000FFF8000
0007FFE0001FFF8000
0003FFF0001FFF0000
0001FFF0003FFE0000
0001FFF8003FFE0000
0000FFFC007FFC0000
0000FFFC00FFFC0000
00007FFE00FFF80000
00003FFE01FFF00000
00003FFF01FFF00000
00001FFF03FFE00000
00000FFF83FFC00000
00000FFFC7FFC00000
000007FFCFFF800000
000007FFEFFF800000
000003FFFFFF000000
000001FFFFFE000000
000001FFFFFE000000
000000FFFFFC000000
000000FFFFF8000000
0000007FFFF8000000
0000003FFFF0000000
0000003FFFF0000000
0000001FFFE0000000
0000000FFFC0000000
0000000FFFE0000000
0000001FFFE0000000
0000001FFFF0000000
0000003FFFF0000000
0000007FFFF8000000
0000007FFFFC000000
000000FFFFFC000000
000001FFFFFE000000
000001FFFFFF000000
000003FFFFFF000000
000003FFDFFF800000
000007FFCFFF800000
00000FFF87FFC00000
00000FFF87FFE00000
00001FFF03FFE00000
00001FFF03FFF00000
00003FFE01FFF00000
00007FFC01FFF80000
00007FFC00FFFC0000
0000FFF8007FFC0000
0001FFF8007FFE0000
0001FFF0003FFF0000
0003FFE0003FFF0000
0003FFE0001FFF8000
0007FFC0000FFF8000
000FFFC0000FFFC000
000FFF800007FFE000
001FFF800007FFE000
003FFF000003FFF000
003FFE000003FFF000
007FFE000001FFF800
007FFC000000FFFC00
00FFFC000000FFFC00
01FFF80000007FFE00
01FFF00000007FFF00
03FFF00000003FFF00
07FFE00000001FFF80
07FFE00000001FFF80
0FFFC00000000FFFC0
0FFFC00000000FFFE0
1FFF8000000007FFE0
3FFF0000000007FFF0
3FFF0000000003FFF0
7FFE0000000001FFF8
FFFE0000000001FFFC
ENDCHAR
STARTCHAR 0079
ENCODING 121
SWIDTH 411 0
DWIDTH 74 0
BBX 69 126 2 -36
BITMAP
FFFC0000000001FFF8
FFFC0000000001FFF8
7FFE0000000001FFF0
7FFE0000000001FFF0
7FFE0000000003FFF0
3FFE0000000003FFE0
3FFF0000000003FFE0
3FFF0000000003FFE0
1FFF0000000007FFC0
1FFF8000000007FFC0
1FFF8000000007FFC0
1FFF8000000007FFC0
0FFF800000000FFF80
0FFFC00000000FFF80
0FFFC00000000FFF80
07FFC00000001FFF00
07FFC00000001FFF00
07FFE00000001FFF00
03FFE00000001FFE00
03FFE00000003FFE00
03FFE00000003FFE00
03FFF00000003FFC00
01FFF00000003FFC00
01FFF00000007FFC00
01FFF80000007FFC00
00FFF80000007FF800
00FFF80000007FF800
00FFF8000000FFF800
007FFC000000FFF000
007FFC000000FFF000
007FFC000001FFF000
007FFC000001FFE000
003FFE000001FFE000
003FFE000001FFE000
003FFE000003FFE000
001FFE000003FFC000
001FFF000003FFC000
001FFF000003FFC000
000FFF000007FF8000
000FFF800007FF8000
000FFF800007FF8000
000FFF800007FF0000
0007FF80000FFF0000
0007FFC0000FFF0000
0007FFC0000FFE0000
0003FFC0001FFE0000
0003FFC0001FFE0000
0003FFE0001FFE0000
0001FFE0001FFC0000
0001FFE0003FFC0000
0001FFF0003FFC0000
0001FFF0003FF80000
0000FFF0003FF80000
0000FFF0007FF80000
0000FFF8007FF00000
00007FF8007FF00000
00007FF8007FF00000
00007FF800FFF00000
00003FFC00FFE00000
00003FFC00FFE00000
00003FFC01FFE00000
00003FFC01FFC00000
00001FFE01FFC00000
00001FFE01FFC00000
00001FFE03FF800000
00000FFF03FF800000
00000FFF03FF800000
00000FFF03FF800000
000007FF07FF000000
000007FF87FF000000
000007FF87FF000000
000007FF87FE000000
000003FF8FFE000000
000003FFCFFE000000
000003FFCFFC000000
000001FFCFFC000000
000001FFDFFC000000
000001FFFFF8000000
000000FFFFF8000000
000000FFFFF8000000
000000FFFFF8000000
000000FFFFF0000000
0000007FFFF0000000
0000007FFFF0000000
0000007FFFE0000000
0000003FFFE0000000
0000003FFFE0000000
0000003FFFC0000000
0000001FFFC0000000
0000001FFFC0000000
00000007FFC0000000
00000007FF80000000
0000000FFF80000000
0000000FFF80000000
0000000FFF00000000
0000001FFF00000000
0000001FFF00000000
0000001FFE00000000
0000003FFE00000000
0000003FFE00000000
0000003FFC00000000
0000007FFC00000000
0000007FFC00000000
0000007FFC00000000
000000FFF800000000
000000FFF800000000
000000FFF800000000
000001FFF000000000
000001FFF000000000
000003FFF000000000
000003FFE000000000
000003FFE000000000
000007FFE000000000
000007FFE000000000
000007FFC000000000
00000FFFC000000000
00000FFFC000000000
00000FFF8000000000
00001FFF8000000000
00001FFF8000000000
00001FFF0000000000
00003FFF0000000000
00003FFF0000000000
00003FFF0000000000
00007FFE0000000000
00007FFE0000000000
ENDCHAR
STARTCHAR 007A
ENCODING 122
SWIDTH 411 0
DWIDTH 74 0
BBX 60 90 7 0
BITMAP
FFFFFFFFFFFFFFF0
FFFFFFFFFFFFFFF0
FFFFFFFFFFFFFFF0
FFFFFFFFFFFFFFF0
FFFFFFFFFFFFFFF0
FFFFFFFFFFFFFFF0
FFFFFFFFFFFFFFE0
FFFFFFFFFFFFFFE0
FFFFFFFFFFFFFFC0
FFFFFFFFFFFFFF80
FFFFFFFFFFFFFF80
00000000000FFF00
00000000000FFF00
00000000001FFE00
00000000001FFC00
00000000003FFC00
00000000007FF800
00000000007FF800
0000000000FFF000
0000000001FFE000
0000000001FFE000
0000000003FFC000
0000000003FFC000
0000000007FF8000
000000000FFF0000
000000000FFF0000
000000001FFE0000
000000001FFE0000
000000003FFC0000
000000007FF80000
000000007FF80000
00000000FFF00000
00000000FFF00000
00000001FFE00000
00000003FFC00000
00000003FFC00000
00000007FF800000
0000000FFF800000
0000000FFF000000
0000001FFE000000
0000001FFE000000
0000003FFC000000
0000007FFC000000
0000007FF8000000
000000FFF0000000
000000FFF0000000
000001FFE0000000
000003FFE0000000
000003FFC0000000
000007FFC0000000
000007FF80000000
00000FFF00000000
00001FFF00000000
00001FFE00000000
00003FFE00000000
00007FFC00000000
00007FF800000000
0000FFF800000000
0000FFF000000000
0001FFF000000000
0003FFE000000000
0003FFC000000000
0007FFC000000000
0007FF8000000000
000FFF8000000000
001FFF0000000000
001FFE0000000000
003FFE0000000000
003FFC0000000000
007FFC0000000000
00FFF80000000000
00FFF00000000000
01FFF00000000000
03FFE00000000000
03FFE00000000000
07FFC00000000000
07FF800000000000
0FFF800000000000
1FFF000000000000
1FFFFFFFFFFFFFF0
3FFFFFFFFFFFFFF0
3FFFFFFFFFFFFFF0
7FFFFFFFFFFFFFF0
FFFFFFFFFFFFFFF0
FFFFFFFFFFFFFFF0
FFFFFFFFFFFFFFF0
FFFFFFFFFFFFFFF0
FFFFFFFFFFFFFFF0
FFFFFFFFFFFFFFF0
FFFFFFFFFFFFFFF0
ENDCHAR
STARTCHAR 007B
ENCODING 123
SWIDTH 333 0
DWIDTH 60 0
BBX 45 162 5 -36
BITMAP
000000001FF8
00000007FFF8
0000003FFFF8
000001FFFFF8
000007FFFFF8
00000FFFFFF8
00003FFFFFF8
00007FFFFFF8
0000FFFFFFF8
0001FFFFFFF8
0001FFFFFFF8
0003FFFFFC00
0003FFFF0000
0007FFFC0000
0007FFF00000
000FFFC00000
000FFFC00000
000FFF800000
001FFF000000
001FFF000000
001FFE000000
001FFE000000
001FFE000000
003FFE000000
003FFC000000
003FFC000000
003FFC000000
003FFC000000
003FFC000000
003FFC000000
003FFC000000
003FFC000000
003FFC000000
003FFC000000
003FFC000000
003FFC000000
003FFC000000
003FFC000000
003FFC000000
003FFC000000
003FFC000000
003FFC000000
003FFC000000
003FFC000000
003FFC000000
003FFC000000
003FFC000000
003FFC000000
003FFC000000
003FFC000000
003FFC000000
003FFC000000
003FFC000000
003FFC000000
003FFC000000
003FFC000000
003FFC000000
003FFC000000
003FFC000000
003FFC000000
003FFC000000
003FFC000000
003FFC000000
003FFC000000
003FFC000000
003FFC000000
007FFC000000
007FFC000000
007FFC000000
00FFF8000000
01FFF8000000
03FFF0000000
1FFFF0000000
FFFFE0000000
FFFFC0000000
FFFF80000000
FFFF00000000
FFFC00000000
FFFF00000000
FFFF80000000
FFFFC0000000
FFFFE0000000
1FFFF0000000
07FFF0000000
01FFF8000000
00FFF8000000
00FFFC000000
007FFC000000
007FFC000000
003FFC000000
003FFC000000
003FFC000000
003FFC000000
003FFC000000
003FFC000000
003FFC000000
003FFC000000
003FFC000000
003FFC000000
003FFC000000
003FFC000000
003FFC000000
003FFC000000
003FFC000000
003FFC000000
003FFC000000
003FFC000000
003FFC000000
003FFC000000
003FFC000000
003FFC000000
003FFC000000
003FFC000000
003FFC000000
003FFC000000
003FFC000000
003FFC000000
003FFC000000
003FFC000000
003FFC000000
003FFC000000
003FFC000000
003FFC000000
003FFC000000
003FFC000000
003FFC000000
003FFC000000
003FFC000000
003FFC000000
003FFC000000
003FFC000000
003FFC000000
003FFC000000
003FFC000000
003FFC000000
003FFC000000
003FFC000000
003FFC000000
003FFE000000
001FFE000000
001FFE000000
001FFE000000
001FFF000000
001FFF000000
000FFF800000
000FFFC00000
000FFFC00000
0007FFF00000
0007FFF80000
0003FFFF0000
0003FFFFF000
0001FFFFFFF8
0001FFFFFFF8
0000FFFFFFF8
00007FFFFFF8
00003FFFFFF8
00000FFFFFF8
000007FFFFF8
000001FFFFF8
0000003FFFF8
00000007FFF8
000000001FF8
ENDCHAR
STARTCHAR 007C
ENCODING 124
SWIDTH 216 0
DWIDTH 39 0
BBX 12 162 13 -36
BITMAP
FFF0
FFF0
FFF0
FFF0
FFF0
FFF0
FFF0
FFF0
FFF0
FFF0
FFF0
FFF0
FFF0
FFF0
FFF0
FFF0
FFF0
FFF0
FFF0
FFF0
FFF0
FFF0
FFF0
FFF0
FFF0
FFF0
FFF0
FFF0
FFF0
FFF0
FFF0
FFF0
FFF0
FFF0
FFF0
FFF0
FFF0
FFF0
FFF0
FFF0
FFF0
FFF0
FFF0
FFF0
FFF0
FFF0
FFF0
FFF0
FFF0
FFF0
FFF0
FFF0
FFF0
FFF0
FFF0
FFF0
FFF0
FFF0
FFF0
FFF0
FFF0
FFF0
FFF0
FFF0
FFF0
FFF0
FFF0
FFF0
FFF0
FFF0
FFF0
FFF0
FFF0
FFF0
FFF0
FFF0
FFF0
FFF0
FFF0
FFF0
FFF0
FFF0
FFF0
FFF0
FFF0
FFF0
FFF0
FFF0
FFF0
FFF0
FFF0
FFF0
FFF0
FFF0
FFF0
FFF0
FFF0
FFF0
FFF0
FFF0
FFF0
FFF0
FFF0
FFF0
FFF0
FFF0
FFF0
FFF0
FFF0
FFF0
FFF0
FFF0
FFF0
FFF0
FFF0
FFF0
FFF0
FFF0
FFF0
FFF0
FFF0
FFF0
FFF0
FFF0
FFF0
FFF0
FFF0
FFF0
FFF0
FFF0
FFF0
FFF0
FFF0
FFF0
FFF0
FFF0
FFF0
FFF0
FFF0
FFF0
FFF0
FFF0
FFF0
FFF0
FFF0
FFF0
FFF0
FFF0
FFF0
FFF0
FFF0
FFF0
FFF0
FFF0
FFF0
FFF0
FFF0
FFF0
FFF0
FFF0
FFF0
FFF0
ENDCHAR
STARTCHAR 007D
ENCODING 125
SWIDTH 333 0
DWIDTH 60 0
BBX 45 162 9 -36
BITMAP
FFC000000000
FFFF00000000
FFFFF0000000
FFFFFC000000
FFFFFF000000
FFFFFFC00000
FFFFFFE00000
FFFFFFF00000
FFFFFFF80000
FFFFFFFC0000
FFFFFFFC0000
01FFFFFE0000
0007FFFF0000
0001FFFF0000
00007FFF8000
00001FFF8000
00000FFF8000
00000FFF8000
000007FFC000
000007FFC000
000003FFC000
000003FFC000
000003FFE000
000003FFE000
000001FFE000
000001FFE000
000001FFE000
000001FFE000
000001FFE000
000001FFE000
000001FFE000
000001FFE000
000001FFE000
000001FFE000
000001FFE000
000001FFE000
000001FFE000
000001FFE000
000001FFE000
000001FFE000
000001FFE000
000001FFE000
000001FFE000
000001FFE000
000001FFE000
000001FFE000
000001FFE000
000001FFE000
000001FFE000
000001FFE000
000001FFE000
000001FFE000
000001FFE000
000001FFE000
000001FFE000
000001FFE000
000001FFE000
000001FFE000
000001FFE000
000001FFE000
000001FFE000
000001FFE000
000001FFE000
000001FFE000
000001FFE000
000001FFE000
000001FFF000
000001FFF000
000000FFF800
000000FFF800
000000FFFC00
0000007FFF00
0000007FFFC0
0000003FFFF8
0000001FFFF8
0000000FFFF8
00000007FFF8
00000001FFF8
00000007FFF8
0000000FFFF8
0000001FFFF8
0000003FFFF8
0000007FFFC0
0000007FFF00
000000FFFC00
000000FFF800
000000FFF800
000001FFF000
000001FFF000
000001FFE000
000001FFE000
000001FFE000
000001FFE000
000001FFE000
000001FFE000
000001FFE000
000001FFE000
000001FFE000
000001FFE000
000001FFE000
000001FFE000
000001FFE000
000001FFE000
000001FFE000
000001FFE000
000001FFE000
000001FFE000
000001FFE000
000001FFE000
000001FFE000
000001FFE000
000001FFE000
000001FFE000
000001FFE000
000001FFE000
000001FFE000
000001FFE000
000001FFE000
000001FFE000
000001FFE000
000001FFE000
000001FFE000
000001FFE000
000001FFE000
000001FFE000
000001FFE000
000001FFE000
000001FFE000
000001FFE000
000001FFE000
000001FFE000
000001FFE000
000001FFE000
000001FFE000
000001FFE000
000001FFE000
000001FFE000
000001FFE000
000003FFE000
000003FFC000
000003FFC000
000003FFC000
000007FFC000
000007FFC000
00000FFF8000
00000FFF8000
00001FFF8000
00003FFF0000
0000FFFF0000
0003FFFF0000
003FFFFE0000
FFFFFFFC0000
FFFFFFFC0000
FFFFFFF80000
FFFFFFF00000
FFFFFFE00000
FFFFFF800000
FFFFFF000000
FFFFFC000000
FFFFE0000000
FFFF00000000
FF8000000000
ENDCHAR
STARTCHAR 007E
ENCODING 126
SWIDTH 472 0
DWIDTH 85 0
BBX 69 29 8 77
BITMAP
0003FC0000000007F8
001FFF8000000007F8
007FFFF000000007F8
01FFFFF800000007F8
03FFFFFE00000007F8
07FFFFFF00000007F8
07FFFFFFC0000007F8
0FFFFFFFE0000007F8
1FFFFFFFF0000007F8
1FFFFFFFFC00000FF8
3FFFFFFFFE00000FF8
3FFFFFFFFF00000FF8
3FFC07FFFF80000FF8
7FF000FFFFE0001FF8
7FE0007FFFF0003FF0
7FC0001FFFFC007FF0
7FC0000FFFFF00FFF0
FF800003FFFFFFFFF0
FF800001FFFFFFFFE0
FF800000FFFFFFFFE0
FF8000007FFFFFFFE0
FF0000001FFFFFFFC0
FF0000000FFFFFFF80
FF00000007FFFFFF80
FF00000001FFFFFF00
FF00000000FFFFFE00
FF000000003FFFF800
FF000000000FFFF000
FF0000000001FF0000
ENDCHAR
STARTCHAR 00A0
ENCODING 160
SWIDTH 261 0
DWIDTH 47 0
BBX 0 0 0 0
BITMAP
ENDCHAR
STARTCHAR 00A1
ENCODING 161
SWIDTH 200 0
DWIDTH 36 0
BBX 14 126 11 -36
BITMAP
FFFC
FFFC
FFFC
FFFC
FFFC
FFFC
FFFC
FFFC
FFFC
FFFC
FFFC
FFFC
FFFC
FFFC
0000
0000
0000
0000
0000
0000
0000
0000
0000
0000
0000
0000
0000
FFFC
FFFC
FFFC
FFFC
FFFC
FFFC
FFFC
FFFC
FFFC
FFFC
FFFC
FFFC
FFFC
FFFC
FFFC
FFFC
FFFC
FFFC
FFFC
FFFC
FFFC
FFFC
FFFC
FFFC
FFFC
FFFC
FFFC
FFFC
FFFC
FFFC
FFFC
FFFC
FFFC
FFFC
FFFC
FFFC
FFFC
FFFC
FFFC
FFFC
FFFC
FFFC
FFFC
FFFC
FFFC
FFFC
FFFC
FFFC
FFFC
FFFC
FFFC
FFFC
FFFC
FFFC
FFFC
FFFC
FFFC
FFFC
FFFC
FFFC
FFFC
FFFC
FFFC
FFFC
FFFC
FFFC
FFFC
FFFC
FFFC
FFFC
FFFC
FFFC
FFFC
FFFC
FFFC
FFFC
FFFC
FFFC
FFFC
FFFC
FFFC
FFFC
FFFC
FFFC
FFFC
FFFC
FFFC
FFFC
FFFC
FFFC
FFFC
FFFC
FFFC
FFFC
FFFC
FFFC
FFFC
FFFC
FFFC
ENDCHAR
STARTCHAR 00A2
ENCODING 162
SWIDTH 377 0
DWIDTH 68 0
BBX 52 127 8 0
BITMAP
000000FFE00000
000000FFE00000
000000FFE00000
000000FFE00000
000000FFE00000
000000FFE00000
000000FFE00000
000000FFE00000
000000FFE00000
000000FFE00000
000000FFE00000
000000FFE00000
000000FFE00000
000000FFE00000
000000FFE00000
000000FFE00000
000000FFE00000
000000FFE00000
000FFFFFFFFFF0
007FFFFFFFFFF0
00FFFFFFFFFFF0
03FFFFFFFFFFF0
07FFFFFFFFFFF0
0FFFFFFFFFFFF0
1FFFFFFFFFFFF0
1FFFFFFFFFFFF0
3FFFFFFFFFFFF0
3FFFFFFFFFFFF0
7FFFFFFFFFFFF0
7FFF8000000010
7FFE0000000000
7FFC0000000000
FFF80000000000
FFF80000000000
FFF00000000000
FFF00000000000
FFF00000000000
FFF00000000000
FFF00000000000
FFF00000000000
FFF00000000000
FFF00000000000
FFF00000000000
FFF00000000000
FFF00000000000
FFF00000000000
FFF00000000000
FFF00000000000
FFF00000000000
FFF00000000000
FFF00000000000
FFF00000000000
FFF00000000000
FFF00000000000
FFF00000000000
FFF00000000000
FFF00000000000
FFF00000000000
FFF00000000000
FFF00000000000
FFF00000000000
FFF00000000000
FFF00000000000
FFF00000000000
FFF00000000000
FFF00000000000
FFF00000000000
FFF00000000000
FFF00000000000
FFF00000000000
FFF00000000000
FFF00000000000
FFF00000000000
FFF00000000000
FFF00000000000
FFF00000000000
FFF00000000000
FFF00000000000
FFF00000000000
FFF00000000000
FFF00000000000
FFF00000000000
FFF00000000000
FFF00000000000
FFF00000000000
FFF00000000000
FFF00000000000
FFF00000000000
FFF00000000000
FFF00000000000
FFF00000000000
FFF00000000000
FFF80000000000
FFF80000000000
FFF80000000000
FFFC0000000000
7FFE0000000000
7FFF8000000010
7FFFFFFFFFFFF0
3FFFFFFFFFFFF0
3FFFFFFFFFFFF0
1FFFFFFFFFFFF0
1FFFFFFFFFFFF0
0FFFFFFFFFFFF0
07FFFFFFFFFFF0
03FFFFFFFFFFF0
01FFFFFFFFFFF0
007FFFFFFFFFF0
000FFFFFFFFFF0
000000FFE00000
000000FFE00000
000000FFE00000
000000FFE00000
000000FFE00000
000000FFE00000
000000FFE00000
000000FFE00000
000000FFE00000
000000FFE00000
000000FFE00000
000000FFE00000
000000FFE00000
000000FFE00000
000000FFE00000
000000FFE00000
000000FFE00000
000000FFE00000
ENDCHAR
STARTCHAR 00A3
ENCODING 163
SWIDTH 461 0
DWIDTH 83 0
BBX 73 126 7 0
BITMAP
00000FFFFFFF80000000
0000FFFFFFFF80000000
0003FFFFFFFF80000000
0007FFFFFFFF80000000
000FFFFFFFFF80000000
001FFFFFFFFF80000000
003FFFFFFFFF80000000
007FFFFFFFFF80000000
007FFFFFFFFF80000000
007FFFFFFFFF80000000
00FFFFFFFFFF80000000
00FFFFFFFFFF80000000
00FFFE00000080000000
01FFFC00000000000000
01FFF800000000000000
01FFF000000000000000
01FFF000000000000000
01FFE000000000000000
01FFE000000000000000
01FFE000000000000000
01FFE000000000000000
01FFE000000000000000
01FFE000000000000000
01FFE000000000000000
01FFE000000000000000
01FFE000000000000000
01FFE000000000000000
01FFE000000000000000
01FFE000000000000000
01FFE000000000000000
01FFE000000000000000
01FFE000000000000000
01FFE000000000000000
01FFE000000000000000
01FFE000000000000000
01FFE000000000000000
01FFE000000000000000
01FFE000000000000000
01FFE000000000000000
01FFE000000000000000
01FFE000000000000000
01FFE000000000000000
01FFE000000000000000
01FFE000000000000000
01FFE000000000000000
01FFE000000000000000
01FFE000000000000000
01FFE000000000000000
01FFE000000000000000
01FFE000000000000000
01FFE000000000000000
01FFE000000000000000
01FFE000000000000000
01FFE000000000000000
01FFE000000000000000
01FFE000000000000000
01FFE000000000000000
01FFE000000000000000
01FFE000000000000000
FFFFFFFFFFFF00000000
FFFFFFFFFFFF00000000
FFFFFFFFFFFF00000000
FFFFFFFFFFFF00000000
FFFFFFFFFFFF00000000
FFFFFFFFFFFF00000000
FFFFFFFFFFFF00000000
FFFFFFFFFFFF00000000
FFFFFFFFFFFF00000000
FFFFFFFFFFFF00000000
01FFE000000000000000
01FFE000000000000000
01FFE000000000000000
01FFE000000000000000
01FFE000000000000000
01FFE000000000000000
01FFE000000000000000
01FFE000000000000000
01FFE000000000000000
01FFE000000000000000
01FFE000000000000000
01FFE000000000000000
01FFE000000000000000
01FFE000000000000000
01FFE000000000000000
01FFE000000000000000
01FFE000000000000000
01FFE000000000000000
01FFE000000000000000
01FFE000000000000000
01FFE000000000000000
01FFE000000000000000
01FFE000000000000000
01FFE000000000000000
01FFE000000000000000
01FFE000000000000000
01FFE000000000000000
01FFE000000000000000
01FFE000000000000000
01FFE000000000000000
01FFE000000000000000
01FFE000000000000000
01FFE000000000000000
01FFE000000000000000
01FFE000000000000000
01FFE000000000000000
01FFE000000000000000
01FFE000000000000000
01FFE000000000000000
01FFE000000000000000
01FFE000000000000000
01FFE000000000000000
01FFE000000000000000
01FFE000000000000000
01FFE000000000000000
01FFE000000000000F80
01FFFFFFFFFFFFFFFF80
01FFFFFFFFFFFFFFFF80
01FFFFFFFFFFFFFFFF80
01FFFFFFFFFFFFFFFF80
01FFFFFFFFFFFFFFFF80
01FFFFFFFFFFFFFFFF80
01FFFFFFFFFFFFFFFF80
01FFFFFFFFFFFFFFFF80
01FFFFFFFFFFFFFFFF80
01FFFFFFFFFFFFFFFF80
01FFFFFFFFFFFFFFFF80
ENDCHAR
STARTCHAR 00A4
ENCODING 164
SWIDTH 511 0
DWIDTH 92 0
BBX 86 126 3 0
BITMAP
FFF8000000000000007FFC
7FF8000000000000007FF8
7FFC00000000000000FFF8
3FFE00000000000001FFF0
3FFE00000000000001FFF0
1FFF00000000000003FFE0
1FFF80000000000003FFE0
0FFF80000000000007FFC0
0FFFC000000000000FFFC0
07FFC000000000000FFF80
07FFE000000000001FFF80
03FFF000000000001FFF00
03FFF000000000003FFF00
01FFF800000000007FFE00
01FFF800000000007FFE00
00FFFC0000000000FFFC00
00FFFE0000000000FFFC00
007FFE0000000001FFF800
007FFF0000000003FFF800
003FFF0000000003FFF000
003FFF8000000007FFF000
001FFFC000000007FFE000
001FFFFFFFFFFFFFFFE000
000FFFFFFFFFFFFFFFC000
000FFFFFFFFFFFFFFFC000
0007FFFFFFFFFFFFFF8000
0007FFFFFFFFFFFFFF8000
0007FFFFFFFFFFFFFF0000
0007FFFFFFFFFFFFFF0000
0007FFFFFFFFFFFFFF0000
0007FFFFFFFFFFFFFF0000
0007FFFFFFFFFFFFFF0000
0007FFFFFFFFFFFFFF0000
0007FFFC000001FFFF0000
0007FFF00000007FFF0000
0007FFE00000003FFF0000
0007FFC00000001FFF0000
0007FFC00000001FFF0000
0007FF800000000FFF0000
0007FF800000000FFF0000
0007FF800000000FFF0000
0007FF800000000FFF0000
0007FF800000000FFF0000
0007FF800000000FFF0000
0007FF800000000FFF0000
0007FF800000000FFF0000
0007FF800000000FFF0000
0007FF800000000FFF0000
0007FF800000000FFF0000
0007FF800000000FFF0000
0007FF800000000FFF0000
0007FF800000000FFF0000
0007FF800000000FFF0000
0007FF800000000FFF0000
0007FF800000000FFF0000
0007FF800000000FFF0000
0007FF800000000FFF0000
0007FF800000000FFF0000
0007FF800000000FFF0000
0007FF800000000FFF0000
0007FF800000000FFF0000
0007FF800000000FFF0000
0007FF800000000FFF0000
0007FF800000000FFF0000
0007FF800000000FFF0000
0007FF800000000FFF0000
0007FF800000000FFF0000
0007FF800000000FFF0000
0007FF800000000FFF0000
0007FF800000000FFF0000
0007FF800000000FFF0000
0007FF800000000FFF0000
0007FF800000000FFF0000
0007FF800000000FFF0000
0007FF800000000FFF0000
0007FF800000000FFF0000
0007FF800000000FFF0000
0007FF800000000FFF0000
0007FF800000000FFF0000
0007FF800000000FFF0000
0007FF800000000FFF0000
0007FF800000000FFF0000
0007FF800000000FFF0000
0007FF800000000FFF0000
0007FF800000000FFF0000
0007FF800000000FFF0000
0007FF800000000FFF0000
0007FF800000000FFF0000
0007FF800000000FFF0000
0007FFC00000001FFF0000
0007FFC00000001FFF0000
0007FFE00000003FFF0000
0007FFF00000007FFF0000
0007FFFC000001FFFF0000
0007FFFFFFFFFFFFFF0000
0007FFFFFFFFFFFFFF0000
0007FFFFFFFFFFFFFF0000
0007FFFFFFFFFFFFFF0000
0007FFFFFFFFFFFFFF0000
0007FFFFFFFFFFFFFF0000
0007FFFFFFFFFFFFFF8000
000FFFFFFFFFFFFFFF8000
000FFFFFFFFFFFFFFFC000
001FFFFFFFFFFFFFFFC000
001FFFFFFFFFFFFFFFE000
003FFF8000000007FFE000
003FFF8000000003FFF000
007FFF0000000003FFF000
007FFF0000000001FFF800
00FFFE0000000001FFF800
00FFFC0000000000FFFC00
01FFFC00000000007FFC00
01FFF800000000007FFE00
03FFF800000000003FFE00
03FFF000000000003FFF00
07FFE000000000001FFF00
07FFE000000000000FFF80
0FFFC000000000000FFF80
0FFF80000000000007FFC0
1FFF80000000000007FFE0
1FFF00000000000003FFE0
3FFF00000000000001FFF0
3FFE00000000000001FFF0
7FFC00000000000000FFF8
7FFC00000000000000FFF8
FFF8000000000000007FFC
ENDCHAR
STARTCHAR 00A5
ENCODING 165
SWIDTH 522 0
DWIDTH 94 0
BBX 93 126 0 0
BITMAP
FFFF0000000000000003FFF8
FFFF0000000000000007FFF8
7FFF8000000000000007FFF0
7FFFC00000000000000FFFF0
3FFFC00000000000000FFFE0
1FFFE00000000000001FFFE0
1FFFE00000000000001FFFC0
0FFFF00000000000003FFF80
0FFFF00000000000003FFF80
07FFF80000000000007FFF00
07FFF80000000000007FFF00
03FFFC000000000000FFFE00
01FFFC000000000000FFFE00
01FFFE000000000001FFFC00
00FFFE000000000003FFFC00
00FFFF000000000003FFF800
007FFF800000000007FFF000
007FFF800000000007FFF000
003FFFC0000000000FFFE000
001FFFC0000000000FFFE000
001FFFE0000000001FFFC000
000FFFE0000000001FFFC000
000FFFF0000000003FFF8000
0007FFF0000000003FFF0000
0007FFF8000000007FFF0000
0003FFF8000000007FFE0000
0001FFFC00000000FFFE0000
0001FFFC00000001FFFC0000
0000FFFE00000001FFFC0000
0000FFFF00000003FFF80000
00007FFF00000003FFF00000
00003FFF80000007FFF00000
00003FFF80000007FFE00000
00001FFFC000000FFFE00000
00001FFFC000000FFFC00000
00000FFFE000001FFFC00000
00000FFFE000001FFF800000
000007FFF000003FFF800000
000003FFF000003FFF000000
000003FFF800007FFE000000
000001FFF800007FFE000000
000001FFFC0000FFFC000000
000000FFFE0001FFFC000000
000000FFFE0001FFF8000000
0000007FFF0003FFF8000000
0000003FFF0003FFF0000000
0000003FFF8007FFE0000000
0000001FFF8007FFE0000000
0000001FFFC00FFFC0000000
0000000FFFC00FFFC0000000
0000000FFFE01FFF80000000
00000007FFE01FFF80000000
00000003FFF03FFF00000000
00000003FFF03FFF00000000
00000001FFF87FFE00000000
00000001FFFC7FFC00000000
00000000FFFCFFFC00000000
000000007FFFFFF800000000
000000007FFFFFF800000000
000000003FFFFFF000000000
000000003FFFFFF000000000
000000001FFFFFE000000000
000000001FFFFFC000000000
000000000FFFFFC000000000
0000000007FFFF8000000000
0000000007FFFF8000000000
0000000003FFFF0000000000
0000000003FFFF0000000000
0000000001FFFE0000000000
0000000001FFFE0000000000
0000000000FFFC0000000000
00000000007FF80000000000
00000000007FF80000000000
00000000007FF80000000000
00000000007FF80000000000
00000000007FF80000000000
00000000007FF80000000000
00000000007FF80000000000
00000000007FF80000000000
00000000007FF80000000000
00000000007FF80000000000
0000001FFFFFFFFFC0000000
0000001FFFFFFFFFC0000000
0000001FFFFFFFFFC0000000
0000001FFFFFFFFFC0000000
0000001FFFFFFFFFC0000000
0000001FFFFFFFFFC0000000
0000001FFFFFFFFFC0000000
0000001FFFFFFFFFC0000000
0000001FFFFFFFFFC0000000
00000000007FF80000000000
00000000007FF80000000000
00000000007FF80000000000
00000000007FF80000000000
00000000007FF80000000000
00000000007FF80000000000
00000000007FF80000000000
00000000007FF80000000000
00000000007FF80000000000
00000000007FF80000000000
00000000007FF80000000000
00000000007FF80000000000
00000000007FF80000000000
00000000007FF80000000000
00000000007FF80000000000
00000000007FF80000000000
00000000007FF80000000000
00000000007FF80000000000
00000000007FF80000000000
00000000007FF80000000000
00000000007FF80000000000
00000000007FF80000000000
00000000007FF80000000000
00000000007FF80000000000
00000000007FF80000000000
00000000007FF80000000000
00000000007FF80000000000
00000000007FF80000000000
00000000007FF80000000000
00000000007FF80000000000
00000000007FF80000000000
00000000007FF80000000000
00000000007FF80000000000
00000000007FF80000000000
00000000007FF80000000000
00000000007FF80000000000
ENDCHAR
ENDFONT
